<?xml version="1.0" encoding="UTF-8" standalone="no"?>
<svg
   width="997"
   height="383"
   viewBox="0 0 997 383"
   fill="none"
   version="1.1"
   id="svg612"
   sodipodi:docname="bitcoin-penguins-graph.svg"
   inkscape:version="1.2.2 (b0a8486541, 2022-12-01)"
   xmlns:inkscape="http://www.inkscape.org/namespaces/inkscape"
   xmlns:sodipodi="http://sodipodi.sourceforge.net/DTD/sodipodi-0.dtd"
   xmlns="http://www.w3.org/2000/svg"
   xmlns:svg="http://www.w3.org/2000/svg">
  <sodipodi:namedview
     id="namedview614"
     pagecolor="#ffffff"
     bordercolor="#000000"
     borderopacity="0.25"
     inkscape:showpageshadow="2"
     inkscape:pageopacity="0.0"
     inkscape:pagecheckerboard="0"
     inkscape:deskcolor="#d1d1d1"
     showgrid="false"
     inkscape:zoom="1.0661989"
     inkscape:cx="196.02347"
     inkscape:cy="254.64293"
     inkscape:window-width="5120"
     inkscape:window-height="1403"
     inkscape:window-x="0"
     inkscape:window-y="0"
     inkscape:window-maximized="1"
     inkscape:current-layer="svg612" />
  <path
     d="M147.025 255.039C121.345 285.151 80.3085 301.044 63 305.226V349.837H995L997 66.8372C981.894 66.8372 960.839 91.9307 944.789 107.266C914.523 136.184 919.298 111.448 879.646 91.9307C839.994 72.4135 858.876 125.389 836.217 174.182C813.559 222.975 797.509 171.394 772.963 174.182C748.416 176.97 725.758 171.394 714.429 202.064C703.099 232.734 655.894 255.039 634.18 263.404C612.466 271.768 563.373 255.039 514.28 273.162C465.186 291.286 472.739 264.798 431.199 273.162C389.658 281.527 421.758 218.793 375.497 235.522C329.236 252.251 310.354 193.699 293.36 202.064C276.366 210.428 248.043 287.103 214.056 235.522C180.068 183.941 179.124 217.399 147.025 255.039Z"
     fill="url(#paint0_linear_8129_1136)"
     id="path519" />
  <path
     d="M256.54 320.444C260.605 319.005 264.374 316.619 266.889 312.649C260.902 314.916 255.46 316.295 249.151 315.156C242.719 313.992 236.815 310.575 230.68 307.72C217.873 301.76 206.675 306.629 194.322 312.409C187.972 315.383 181.994 316.595 175.372 314.904C168.882 313.249 162.599 310.251 156.092 308.5C152.711 307.588 149.446 306.869 146.172 306.665C143.995 306.917 141.81 307.385 139.624 308.224C133.522 310.574 127.997 314.34 123 319.845C127.519 318.082 132.046 315.947 136.648 314.784C143.484 313.057 150.864 316.223 157.544 318.094C163.489 319.761 169.187 322.483 175.224 323.478C181.227 324.474 187.395 321.344 192.928 318.298C199.369 314.76 205.768 311.234 212.612 309.747C219.762 308.2 226.796 311.606 233.459 314.904C240.691 318.49 248.788 321.44 256.54 320.42V320.444Z"
     fill="#7BBBE7"
     id="path521" />
  <path
     d="M951.54 281.444C955.605 280.005 959.374 277.619 961.889 273.649C955.902 275.916 950.46 277.295 944.151 276.156C937.719 274.992 931.815 271.575 925.68 268.72C912.873 262.76 901.675 267.629 889.322 273.409C882.972 276.383 876.994 277.595 870.372 275.904C863.882 274.249 857.599 271.251 851.092 269.5C847.711 268.588 844.446 267.869 841.172 267.665C838.995 267.917 836.81 268.385 834.624 269.224C828.522 271.574 822.997 275.34 818 280.845C822.519 279.082 827.046 276.947 831.648 275.784C838.484 274.057 845.864 277.223 852.544 279.094C858.489 280.761 864.187 283.483 870.224 284.478C876.227 285.474 882.395 282.344 887.928 279.298C894.369 275.76 900.768 272.234 907.612 270.747C914.762 269.2 921.796 272.606 928.459 275.904C935.691 279.49 943.788 282.44 951.54 281.42V281.444Z"
     fill="#7BBBE7"
     id="path523" />
  <path
     d="M651.818 319.444C655.861 318.005 659.61 315.619 662.111 311.649C656.157 313.916 650.744 315.295 644.469 314.156C638.072 312.992 632.2 309.575 626.098 306.72C613.36 300.76 602.222 305.629 589.936 311.409C583.621 314.383 577.675 315.595 571.089 313.904C564.634 312.249 558.384 309.251 551.913 307.5C548.551 306.588 545.303 305.869 542.047 305.665C539.881 305.917 537.708 306.385 535.535 307.224C529.465 309.574 523.97 313.34 519 318.845C523.495 317.082 527.997 314.947 532.574 313.784C539.373 312.057 546.713 315.223 553.357 317.094C559.27 318.761 564.938 321.483 570.941 322.478C576.912 323.474 583.047 320.344 588.55 317.298C594.956 313.76 601.32 310.234 608.128 308.747C615.239 307.2 622.235 310.606 628.861 313.904C636.054 317.49 644.108 320.44 651.818 319.42V319.444Z"
     fill="#7BBBE7"
     id="path525" />
  <path
     d="M833.377 223.722C834.196 222.745 834.933 221.646 835.556 220.388C831.977 222.049 828.299 222.831 824.606 222.525C823.303 222.647 821.952 222.599 820.503 222.244C815.367 220.998 810.732 216.87 805.933 214.11C802.739 212.277 799.479 211.044 796.195 210.421C796.097 210.445 795.998 210.47 795.892 210.445C787.178 208.601 779.037 212.754 771.166 217.957C765.556 221.67 759.504 226.092 753.165 225.176C746.138 224.15 739.963 218.165 732.903 217.395C726.433 216.687 720.332 218.727 715 223.796C715.541 224.235 716.179 223.918 716.851 223.6C719.308 222.452 722.191 222.77 724.721 222.635C730.577 222.318 735.802 226.153 741.093 229.231C751.56 235.338 762.256 229.39 771.871 222.66C777.751 218.531 783.009 215.184 789.618 215.123C796.146 215.062 801.928 217.957 807.857 221.768C812.321 224.626 816.694 227.24 821.584 227.887C825.605 228.425 829.7 226.336 833.377 223.747V223.722Z"
     fill="#7BBBE7"
     id="path527" />
  <path
     d="M363.554 268.018C360.245 269.069 356.799 271.983 354.096 273.308C348.834 275.885 342.942 277.648 337.502 275.209C331.853 272.671 323.645 265.467 317.495 268.919C315.849 270.169 314.372 271.87 313 274.021C317.261 269.406 322.58 270.645 327.576 273.859C331.78 276.56 335.452 280.562 340.158 281.099C343.2 281.45 346.13 281.037 349.003 280.036C355.193 276.497 360.883 270.107 367.444 268.581C366.177 268.143 364.878 268.006 363.562 268.018H363.554Z"
     fill="#7BBBE7"
     id="path529" />
  <path
     d="M403.675 325.054C408.582 327.449 413.056 331.566 418.088 333.466C423.711 335.569 429.649 335.734 435.138 332.541C438.989 330.312 444.296 326.954 446.333 321C442.458 323.154 438.956 327.182 435.005 329.121C434.44 329.4 433.866 329.602 433.284 329.78C430.514 331.123 427.611 331.845 424.418 331.351C418.604 330.451 413.689 325.307 408.133 323.141C403.658 321.405 399.333 321.203 395 322.052C395.674 322.254 396.331 322.444 396.988 322.546C399.366 322.938 401.512 323.813 403.675 325.041V325.054Z"
     fill="#7BBBE7"
     id="path531" />
  <g
     style="mix-blend-mode:screen"
     id="g535">
    <path
       d="M677.199 278.202C666.977 272.839 653.44 272.997 647 288.222C651.108 284.907 655.248 281.262 659.824 280.189C665.74 278.812 671.331 279.958 676.977 282.944C684.242 286.796 690.911 288.685 698.374 284.602C702.339 282.42 706.146 279.653 710 277.044C705.099 278.69 700.301 281.701 695.297 282.53C688.722 283.614 683.401 281.457 677.199 278.202Z"
       fill="#7BBBE7"
       id="path533" />
  </g>
  <g
     style="mix-blend-mode:screen"
     id="g539">
    <path
       d="M777.814 319.928C785.599 319.123 792.762 321.478 800.195 324.65C803.674 326.127 807.055 327.31 810.444 327.847C810.215 327.774 809.994 327.725 809.765 327.627C806.04 326.102 802.496 323.943 798.976 321.612C790.323 315.914 781.13 310.924 771.527 313.877C760.984 317.11 752.053 328.933 742 333.728C747.706 334.753 753.231 332.825 758.978 328.957C765.044 324.87 771.061 320.636 777.814 319.928Z"
       fill="#7BBBE7"
       id="path537" />
  </g>
  <path
     d="M63 304.837C80.3085 300.662 121.345 284.795 147.025 254.732C179.124 217.153 180.068 183.749 214.056 235.247C248.043 286.744 276.366 210.194 293.36 201.843C310.354 193.492 329.236 251.948 375.497 235.247C421.758 218.545 389.658 281.176 431.199 272.826C472.739 264.475 465.186 290.919 514.28 272.826C563.373 254.732 612.466 271.434 634.18 263.083C655.894 254.732 703.099 232.463 714.429 201.843C725.758 171.223 748.416 176.79 772.963 174.007C797.509 171.223 813.559 222.72 836.217 174.007C858.876 125.293 839.994 72.4044 879.646 91.8897C919.298 111.375 914.523 136.071 944.789 107.2C960.839 91.8898 961.5 66.8372 997 66.8372"
     stroke="black"
     stroke-width="3"
     id="path541" />
  <path
     d="M35.8209 347.039C35.8209 347.459 35.7549 347.837 35.6229 348.173C35.4909 348.509 35.3049 348.809 35.0649 349.073C34.8249 349.325 34.5309 349.535 34.1829 349.703C33.8469 349.859 33.4689 349.973 33.0489 350.045V351.269C33.0489 351.449 33.0309 351.611 32.9949 351.755C32.9709 351.911 32.8989 352.031 32.7789 352.115C32.6589 352.199 32.4669 352.241 32.2029 352.241C31.9629 352.241 31.7829 352.193 31.6629 352.097C31.5429 352.013 31.4649 351.893 31.4289 351.737C31.4049 351.593 31.3929 351.437 31.3929 351.269V350.045C31.0689 349.985 30.7569 349.889 30.4569 349.757C30.1569 349.613 29.8869 349.445 29.6469 349.253C29.4069 349.061 29.2029 348.845 29.0349 348.605C28.8549 348.329 28.7649 348.095 28.7649 347.903C28.7649 347.711 28.9029 347.495 29.1789 347.255C29.3709 347.099 29.5509 347.015 29.7189 347.003C29.8869 346.991 30.0429 347.039 30.1869 347.147C30.3309 347.243 30.4629 347.375 30.5829 347.543C30.7869 347.819 31.0209 348.029 31.2849 348.173C31.5489 348.305 31.8429 348.371 32.1669 348.371C32.5509 348.371 32.8749 348.323 33.1389 348.227C33.4029 348.119 33.6009 347.969 33.7329 347.777C33.8649 347.585 33.9309 347.351 33.9309 347.075C33.9309 346.751 33.7989 346.505 33.5349 346.337C33.2709 346.157 32.9349 346.007 32.5269 345.887C32.1189 345.755 31.7049 345.599 31.2849 345.419C30.9849 345.311 30.6969 345.185 30.4209 345.041C30.1449 344.885 29.8989 344.699 29.6829 344.483C29.4669 344.267 29.2929 344.009 29.1609 343.709C29.0289 343.409 28.9629 343.049 28.9629 342.629C28.9629 342.257 29.0169 341.921 29.1249 341.621C29.2449 341.309 29.4069 341.039 29.6109 340.811C29.8269 340.571 30.0849 340.373 30.3849 340.217C30.6849 340.061 31.0209 339.947 31.3929 339.875V338.759C31.3929 338.579 31.4049 338.417 31.4289 338.273C31.4649 338.129 31.5429 338.015 31.6629 337.931C31.7829 337.847 31.9689 337.805 32.2209 337.805C32.4729 337.805 32.6589 337.847 32.7789 337.931C32.8989 338.015 32.9709 338.129 32.9949 338.273C33.0309 338.417 33.0489 338.579 33.0489 338.759V339.857C33.4449 339.917 33.7929 340.031 34.0929 340.199C34.4049 340.367 34.6749 340.565 34.9029 340.793C35.1429 341.009 35.2689 341.195 35.2809 341.351C35.3049 341.507 35.2149 341.723 35.0109 341.999C34.8909 342.179 34.7589 342.311 34.6149 342.395C34.4709 342.467 34.3269 342.485 34.1829 342.449C34.0389 342.413 33.8829 342.335 33.7149 342.215C33.5949 342.095 33.4569 341.987 33.3009 341.891C33.1569 341.795 32.9889 341.717 32.7969 341.657C32.6169 341.597 32.4009 341.567 32.1489 341.567C31.9569 341.567 31.7769 341.597 31.6089 341.657C31.4529 341.705 31.3149 341.777 31.1949 341.873C31.0869 341.969 30.9969 342.083 30.9249 342.215C30.8649 342.347 30.8349 342.491 30.8349 342.647C30.8349 342.923 30.9309 343.145 31.1229 343.313C31.3269 343.481 31.5909 343.619 31.9149 343.727C32.2389 343.823 32.5869 343.925 32.9589 344.033C33.2949 344.141 33.6309 344.261 33.9669 344.393C34.3029 344.525 34.6089 344.705 34.8849 344.933C35.1729 345.149 35.4009 345.425 35.5689 345.761C35.7369 346.097 35.8209 346.523 35.8209 347.039ZM41.8506 351.143C41.1426 351.143 40.5246 351.029 39.9966 350.801C39.4686 350.561 39.0246 350.237 38.6646 349.829C38.3046 349.409 38.0166 348.929 37.8006 348.389C37.5846 347.837 37.4286 347.249 37.3326 346.625C37.2366 346.001 37.1886 345.359 37.1886 344.699C37.1886 344.075 37.2366 343.457 37.3326 342.845C37.4286 342.233 37.5786 341.657 37.7826 341.117C37.9986 340.565 38.2866 340.079 38.6466 339.659C39.0066 339.227 39.4446 338.891 39.9606 338.651C40.4886 338.399 41.1066 338.273 41.8146 338.273C42.4986 338.273 43.0926 338.393 43.5966 338.633C44.1126 338.873 44.5446 339.203 44.8926 339.623C45.2526 340.043 45.5406 340.529 45.7566 341.081C45.9726 341.633 46.1286 342.221 46.2246 342.845C46.3206 343.457 46.3686 344.081 46.3686 344.717C46.3686 345.365 46.3206 346.001 46.2246 346.625C46.1286 347.249 45.9726 347.837 45.7566 348.389C45.5406 348.929 45.2526 349.409 44.8926 349.829C44.5446 350.237 44.1186 350.561 43.6146 350.801C43.1106 351.029 42.5226 351.143 41.8506 351.143ZM41.7606 348.947C42.2526 348.947 42.6486 348.845 42.9486 348.641C43.2486 348.425 43.4826 348.149 43.6506 347.813C43.8306 347.477 43.9566 347.117 44.0286 346.733C44.1006 346.349 44.1426 345.989 44.1546 345.653C44.1786 345.305 44.1906 345.023 44.1906 344.807V344.699C44.1906 343.799 44.1006 343.031 43.9206 342.395C43.7406 341.759 43.4706 341.279 43.1106 340.955C42.7626 340.619 42.3246 340.451 41.7966 340.451C41.2446 340.451 40.7886 340.619 40.4286 340.955C40.0686 341.279 39.7986 341.759 39.6186 342.395C39.4506 343.019 39.3666 343.793 39.3666 344.717C39.3666 345.617 39.4566 346.385 39.6366 347.021C39.8166 347.645 40.0806 348.125 40.4286 348.461C40.7886 348.785 41.2326 348.947 41.7606 348.947Z"
     fill="black"
     id="path543" />
  <path
     d="M81.7041 381.927C81.4281 381.927 81.1761 381.819 80.9481 381.603C80.7321 381.375 80.6241 381.111 80.6241 380.811C80.6241 380.619 80.6361 380.433 80.6601 380.253C80.6841 380.073 80.7381 379.899 80.8221 379.731C80.9061 379.563 81.0321 379.401 81.2001 379.245C81.7521 378.789 82.3101 378.369 82.8741 377.985C83.4501 377.601 84.0021 377.235 84.5301 376.887C85.0581 376.539 85.5321 376.191 85.9521 375.843C86.3721 375.483 86.7021 375.111 86.9421 374.727C87.1821 374.331 87.3021 373.905 87.3021 373.449C87.3021 373.077 87.2241 372.741 87.0681 372.441C86.9241 372.141 86.6901 371.901 86.3661 371.721C86.0421 371.541 85.6101 371.451 85.0701 371.451C84.6981 371.451 84.3681 371.505 84.0801 371.613C83.8041 371.721 83.5701 371.877 83.3781 372.081C83.1981 372.285 83.0541 372.537 82.9461 372.837C82.8501 373.125 82.8021 373.455 82.8021 373.827C82.8021 374.031 82.7841 374.211 82.7481 374.367C82.7121 374.523 82.6161 374.649 82.4601 374.745C82.3161 374.829 82.0641 374.871 81.7041 374.871C81.3441 374.871 81.0861 374.817 80.9301 374.709C80.7861 374.601 80.6961 374.457 80.6601 374.277C80.6361 374.085 80.6241 373.887 80.6241 373.683C80.6241 373.083 80.7201 372.519 80.9121 371.991C81.1161 371.451 81.4101 370.983 81.7941 370.587C82.1781 370.179 82.6401 369.861 83.1801 369.633C83.7321 369.393 84.3561 369.273 85.0521 369.273C85.9281 369.273 86.6961 369.453 87.3561 369.813C88.0281 370.173 88.5501 370.677 88.9221 371.325C89.3061 371.973 89.4981 372.747 89.4981 373.647C89.4981 374.115 89.4261 374.553 89.2821 374.961C89.1381 375.369 88.9401 375.753 88.6881 376.113C88.4361 376.461 88.1421 376.785 87.8061 377.085C87.4821 377.385 87.1281 377.673 86.7441 377.949C86.3721 378.213 85.9941 378.465 85.6101 378.705C85.2261 378.933 84.8541 379.155 84.4941 379.371L83.8101 379.731H88.9221C89.1261 379.731 89.3121 379.755 89.4801 379.803C89.6481 379.839 89.7741 379.935 89.8581 380.091C89.9541 380.247 90.0021 380.499 90.0021 380.847C90.0021 381.183 89.9541 381.429 89.8581 381.585C89.7621 381.741 89.6301 381.837 89.4621 381.873C89.2941 381.909 89.1021 381.927 88.8861 381.927H81.7041ZM95.8506 382.143C95.1426 382.143 94.5246 382.029 93.9966 381.801C93.4686 381.561 93.0246 381.237 92.6646 380.829C92.3046 380.409 92.0166 379.929 91.8006 379.389C91.5846 378.837 91.4286 378.249 91.3326 377.625C91.2366 377.001 91.1886 376.359 91.1886 375.699C91.1886 375.075 91.2366 374.457 91.3326 373.845C91.4286 373.233 91.5786 372.657 91.7826 372.117C91.9986 371.565 92.2866 371.079 92.6466 370.659C93.0066 370.227 93.4446 369.891 93.9606 369.651C94.4886 369.399 95.1066 369.273 95.8146 369.273C96.4986 369.273 97.0926 369.393 97.5966 369.633C98.1126 369.873 98.5446 370.203 98.8926 370.623C99.2526 371.043 99.5406 371.529 99.7566 372.081C99.9726 372.633 100.129 373.221 100.225 373.845C100.321 374.457 100.369 375.081 100.369 375.717C100.369 376.365 100.321 377.001 100.225 377.625C100.129 378.249 99.9726 378.837 99.7566 379.389C99.5406 379.929 99.2526 380.409 98.8926 380.829C98.5446 381.237 98.1186 381.561 97.6146 381.801C97.1106 382.029 96.5226 382.143 95.8506 382.143ZM95.7606 379.947C96.2526 379.947 96.6486 379.845 96.9486 379.641C97.2486 379.425 97.4826 379.149 97.6506 378.813C97.8306 378.477 97.9566 378.117 98.0286 377.733C98.1006 377.349 98.1426 376.989 98.1546 376.653C98.1786 376.305 98.1906 376.023 98.1906 375.807V375.699C98.1906 374.799 98.1006 374.031 97.9206 373.395C97.7406 372.759 97.4706 372.279 97.1106 371.955C96.7626 371.619 96.3246 371.451 95.7966 371.451C95.2446 371.451 94.7886 371.619 94.4286 371.955C94.0686 372.279 93.7986 372.759 93.6186 373.395C93.4506 374.019 93.3666 374.793 93.3666 375.717C93.3666 376.617 93.4566 377.385 93.6366 378.021C93.8166 378.645 94.0806 379.125 94.4286 379.461C94.7886 379.785 95.2326 379.947 95.7606 379.947ZM102.71 381.927C102.434 381.927 102.182 381.819 101.954 381.603C101.738 381.375 101.63 381.111 101.63 380.811C101.63 380.619 101.642 380.433 101.666 380.253C101.69 380.073 101.744 379.899 101.828 379.731C101.912 379.563 102.038 379.401 102.206 379.245C102.758 378.789 103.316 378.369 103.88 377.985C104.456 377.601 105.008 377.235 105.536 376.887C106.064 376.539 106.538 376.191 106.958 375.843C107.378 375.483 107.708 375.111 107.948 374.727C108.188 374.331 108.308 373.905 108.308 373.449C108.308 373.077 108.23 372.741 108.074 372.441C107.93 372.141 107.696 371.901 107.372 371.721C107.048 371.541 106.616 371.451 106.076 371.451C105.704 371.451 105.374 371.505 105.086 371.613C104.81 371.721 104.576 371.877 104.384 372.081C104.204 372.285 104.06 372.537 103.952 372.837C103.856 373.125 103.808 373.455 103.808 373.827C103.808 374.031 103.79 374.211 103.754 374.367C103.718 374.523 103.622 374.649 103.466 374.745C103.322 374.829 103.07 374.871 102.71 374.871C102.35 374.871 102.092 374.817 101.936 374.709C101.792 374.601 101.702 374.457 101.666 374.277C101.642 374.085 101.63 373.887 101.63 373.683C101.63 373.083 101.726 372.519 101.918 371.991C102.122 371.451 102.416 370.983 102.8 370.587C103.184 370.179 103.646 369.861 104.186 369.633C104.738 369.393 105.362 369.273 106.058 369.273C106.934 369.273 107.702 369.453 108.362 369.813C109.034 370.173 109.556 370.677 109.928 371.325C110.312 371.973 110.504 372.747 110.504 373.647C110.504 374.115 110.432 374.553 110.288 374.961C110.144 375.369 109.946 375.753 109.694 376.113C109.442 376.461 109.148 376.785 108.812 377.085C108.488 377.385 108.134 377.673 107.75 377.949C107.378 378.213 107 378.465 106.616 378.705C106.232 378.933 105.86 379.155 105.5 379.371L104.816 379.731H109.928C110.132 379.731 110.318 379.755 110.486 379.803C110.654 379.839 110.78 379.935 110.864 380.091C110.96 380.247 111.008 380.499 111.008 380.847C111.008 381.183 110.96 381.429 110.864 381.585C110.768 381.741 110.636 381.837 110.468 381.873C110.3 381.909 110.108 381.927 109.892 381.927H102.71ZM116.856 382.143C116.148 382.143 115.53 382.029 115.002 381.801C114.474 381.561 114.03 381.237 113.67 380.829C113.31 380.409 113.022 379.929 112.806 379.389C112.59 378.837 112.434 378.249 112.338 377.625C112.242 377.001 112.194 376.359 112.194 375.699C112.194 375.075 112.242 374.457 112.338 373.845C112.434 373.233 112.584 372.657 112.788 372.117C113.004 371.565 113.292 371.079 113.652 370.659C114.012 370.227 114.45 369.891 114.966 369.651C115.494 369.399 116.112 369.273 116.82 369.273C117.504 369.273 118.098 369.393 118.602 369.633C119.118 369.873 119.55 370.203 119.898 370.623C120.258 371.043 120.546 371.529 120.762 372.081C120.978 372.633 121.134 373.221 121.23 373.845C121.326 374.457 121.374 375.081 121.374 375.717C121.374 376.365 121.326 377.001 121.23 377.625C121.134 378.249 120.978 378.837 120.762 379.389C120.546 379.929 120.258 380.409 119.898 380.829C119.55 381.237 119.124 381.561 118.62 381.801C118.116 382.029 117.528 382.143 116.856 382.143ZM116.766 379.947C117.258 379.947 117.654 379.845 117.954 379.641C118.254 379.425 118.488 379.149 118.656 378.813C118.836 378.477 118.962 378.117 119.034 377.733C119.106 377.349 119.148 376.989 119.16 376.653C119.184 376.305 119.196 376.023 119.196 375.807V375.699C119.196 374.799 119.106 374.031 118.926 373.395C118.746 372.759 118.476 372.279 118.116 371.955C117.768 371.619 117.33 371.451 116.802 371.451C116.25 371.451 115.794 371.619 115.434 371.955C115.074 372.279 114.804 372.759 114.624 373.395C114.456 374.019 114.372 374.793 114.372 375.717C114.372 376.617 114.462 377.385 114.642 378.021C114.822 378.645 115.086 379.125 115.434 379.461C115.794 379.785 116.238 379.947 116.766 379.947Z"
     fill="black"
     id="path545" />
  <path
     d="M253.436 381.927C253.16 381.927 252.908 381.819 252.68 381.603C252.464 381.375 252.356 381.111 252.356 380.811C252.356 380.619 252.368 380.433 252.392 380.253C252.416 380.073 252.47 379.899 252.554 379.731C252.638 379.563 252.764 379.401 252.932 379.245C253.484 378.789 254.042 378.369 254.606 377.985C255.182 377.601 255.734 377.235 256.262 376.887C256.79 376.539 257.264 376.191 257.684 375.843C258.104 375.483 258.434 375.111 258.674 374.727C258.914 374.331 259.034 373.905 259.034 373.449C259.034 373.077 258.956 372.741 258.8 372.441C258.656 372.141 258.422 371.901 258.098 371.721C257.774 371.541 257.342 371.451 256.802 371.451C256.43 371.451 256.1 371.505 255.812 371.613C255.536 371.721 255.302 371.877 255.11 372.081C254.93 372.285 254.786 372.537 254.678 372.837C254.582 373.125 254.534 373.455 254.534 373.827C254.534 374.031 254.516 374.211 254.48 374.367C254.444 374.523 254.348 374.649 254.192 374.745C254.048 374.829 253.796 374.871 253.436 374.871C253.076 374.871 252.818 374.817 252.662 374.709C252.518 374.601 252.428 374.457 252.392 374.277C252.368 374.085 252.356 373.887 252.356 373.683C252.356 373.083 252.452 372.519 252.644 371.991C252.848 371.451 253.142 370.983 253.526 370.587C253.91 370.179 254.372 369.861 254.912 369.633C255.464 369.393 256.088 369.273 256.784 369.273C257.66 369.273 258.428 369.453 259.088 369.813C259.76 370.173 260.282 370.677 260.654 371.325C261.038 371.973 261.23 372.747 261.23 373.647C261.23 374.115 261.158 374.553 261.014 374.961C260.87 375.369 260.672 375.753 260.42 376.113C260.168 376.461 259.874 376.785 259.538 377.085C259.214 377.385 258.86 377.673 258.476 377.949C258.104 378.213 257.726 378.465 257.342 378.705C256.958 378.933 256.586 379.155 256.226 379.371L255.542 379.731H260.654C260.858 379.731 261.044 379.755 261.212 379.803C261.38 379.839 261.506 379.935 261.59 380.091C261.686 380.247 261.734 380.499 261.734 380.847C261.734 381.183 261.686 381.429 261.59 381.585C261.494 381.741 261.362 381.837 261.194 381.873C261.026 381.909 260.834 381.927 260.618 381.927H253.436ZM267.582 382.143C266.874 382.143 266.256 382.029 265.728 381.801C265.2 381.561 264.756 381.237 264.396 380.829C264.036 380.409 263.748 379.929 263.532 379.389C263.316 378.837 263.16 378.249 263.064 377.625C262.968 377.001 262.92 376.359 262.92 375.699C262.92 375.075 262.968 374.457 263.064 373.845C263.16 373.233 263.31 372.657 263.514 372.117C263.73 371.565 264.018 371.079 264.378 370.659C264.738 370.227 265.176 369.891 265.692 369.651C266.22 369.399 266.838 369.273 267.546 369.273C268.23 369.273 268.824 369.393 269.328 369.633C269.844 369.873 270.276 370.203 270.624 370.623C270.984 371.043 271.272 371.529 271.488 372.081C271.704 372.633 271.86 373.221 271.956 373.845C272.052 374.457 272.1 375.081 272.1 375.717C272.1 376.365 272.052 377.001 271.956 377.625C271.86 378.249 271.704 378.837 271.488 379.389C271.272 379.929 270.984 380.409 270.624 380.829C270.276 381.237 269.85 381.561 269.346 381.801C268.842 382.029 268.254 382.143 267.582 382.143ZM267.492 379.947C267.984 379.947 268.38 379.845 268.68 379.641C268.98 379.425 269.214 379.149 269.382 378.813C269.562 378.477 269.688 378.117 269.76 377.733C269.832 377.349 269.874 376.989 269.886 376.653C269.91 376.305 269.922 376.023 269.922 375.807V375.699C269.922 374.799 269.832 374.031 269.652 373.395C269.472 372.759 269.202 372.279 268.842 371.955C268.494 371.619 268.056 371.451 267.528 371.451C266.976 371.451 266.52 371.619 266.16 371.955C265.8 372.279 265.53 372.759 265.35 373.395C265.182 374.019 265.098 374.793 265.098 375.717C265.098 376.617 265.188 377.385 265.368 378.021C265.548 378.645 265.812 379.125 266.16 379.461C266.52 379.785 266.964 379.947 267.492 379.947ZM274.441 381.927C274.165 381.927 273.913 381.819 273.685 381.603C273.469 381.375 273.361 381.111 273.361 380.811C273.361 380.619 273.373 380.433 273.397 380.253C273.421 380.073 273.475 379.899 273.559 379.731C273.643 379.563 273.769 379.401 273.937 379.245C274.489 378.789 275.047 378.369 275.611 377.985C276.187 377.601 276.739 377.235 277.267 376.887C277.795 376.539 278.269 376.191 278.689 375.843C279.109 375.483 279.439 375.111 279.679 374.727C279.919 374.331 280.039 373.905 280.039 373.449C280.039 373.077 279.961 372.741 279.805 372.441C279.661 372.141 279.427 371.901 279.103 371.721C278.779 371.541 278.347 371.451 277.807 371.451C277.435 371.451 277.105 371.505 276.817 371.613C276.541 371.721 276.307 371.877 276.115 372.081C275.935 372.285 275.791 372.537 275.683 372.837C275.587 373.125 275.539 373.455 275.539 373.827C275.539 374.031 275.521 374.211 275.485 374.367C275.449 374.523 275.353 374.649 275.197 374.745C275.053 374.829 274.801 374.871 274.441 374.871C274.081 374.871 273.823 374.817 273.667 374.709C273.523 374.601 273.433 374.457 273.397 374.277C273.373 374.085 273.361 373.887 273.361 373.683C273.361 373.083 273.457 372.519 273.649 371.991C273.853 371.451 274.147 370.983 274.531 370.587C274.915 370.179 275.377 369.861 275.917 369.633C276.469 369.393 277.093 369.273 277.789 369.273C278.665 369.273 279.433 369.453 280.093 369.813C280.765 370.173 281.287 370.677 281.659 371.325C282.043 371.973 282.235 372.747 282.235 373.647C282.235 374.115 282.163 374.553 282.019 374.961C281.875 375.369 281.677 375.753 281.425 376.113C281.173 376.461 280.879 376.785 280.543 377.085C280.219 377.385 279.865 377.673 279.481 377.949C279.109 378.213 278.731 378.465 278.347 378.705C277.963 378.933 277.591 379.155 277.231 379.371L276.547 379.731H281.659C281.863 379.731 282.049 379.755 282.217 379.803C282.385 379.839 282.511 379.935 282.595 380.091C282.691 380.247 282.739 380.499 282.739 380.847C282.739 381.183 282.691 381.429 282.595 381.585C282.499 381.741 282.367 381.837 282.199 381.873C282.031 381.909 281.839 381.927 281.623 381.927H274.441ZM288.444 382.035C288.048 382.035 287.772 381.957 287.616 381.801C287.46 381.633 287.382 381.345 287.382 380.937V370.497C287.382 370.101 287.46 369.825 287.616 369.669C287.772 369.513 288.054 369.435 288.462 369.435C288.858 369.435 289.134 369.519 289.29 369.687C289.446 369.843 289.524 370.125 289.524 370.533V380.955C289.524 381.351 289.446 381.633 289.29 381.801C289.134 381.957 288.852 382.035 288.444 382.035ZM285.672 374.133C285.396 374.385 285.15 374.511 284.934 374.511C284.718 374.499 284.478 374.349 284.214 374.061C283.962 373.785 283.842 373.527 283.854 373.287C283.878 373.047 284.046 372.789 284.358 372.513L287.436 369.795C287.712 369.555 287.958 369.447 288.174 369.471C288.402 369.483 288.642 369.627 288.894 369.903C289.158 370.179 289.278 370.437 289.254 370.677C289.23 370.917 289.056 371.175 288.732 371.451L285.672 374.133Z"
     fill="black"
     id="path547" />
  <path
     d="M421.643 381.927C421.367 381.927 421.115 381.819 420.887 381.603C420.671 381.375 420.563 381.111 420.563 380.811C420.563 380.619 420.575 380.433 420.599 380.253C420.623 380.073 420.677 379.899 420.761 379.731C420.845 379.563 420.971 379.401 421.139 379.245C421.691 378.789 422.249 378.369 422.813 377.985C423.389 377.601 423.941 377.235 424.469 376.887C424.997 376.539 425.471 376.191 425.891 375.843C426.311 375.483 426.641 375.111 426.881 374.727C427.121 374.331 427.241 373.905 427.241 373.449C427.241 373.077 427.163 372.741 427.007 372.441C426.863 372.141 426.629 371.901 426.305 371.721C425.981 371.541 425.549 371.451 425.009 371.451C424.637 371.451 424.307 371.505 424.019 371.613C423.743 371.721 423.509 371.877 423.317 372.081C423.137 372.285 422.993 372.537 422.885 372.837C422.789 373.125 422.741 373.455 422.741 373.827C422.741 374.031 422.723 374.211 422.687 374.367C422.651 374.523 422.555 374.649 422.399 374.745C422.255 374.829 422.003 374.871 421.643 374.871C421.283 374.871 421.025 374.817 420.869 374.709C420.725 374.601 420.635 374.457 420.599 374.277C420.575 374.085 420.563 373.887 420.563 373.683C420.563 373.083 420.659 372.519 420.851 371.991C421.055 371.451 421.349 370.983 421.733 370.587C422.117 370.179 422.579 369.861 423.119 369.633C423.671 369.393 424.295 369.273 424.991 369.273C425.867 369.273 426.635 369.453 427.295 369.813C427.967 370.173 428.489 370.677 428.861 371.325C429.245 371.973 429.437 372.747 429.437 373.647C429.437 374.115 429.365 374.553 429.221 374.961C429.077 375.369 428.879 375.753 428.627 376.113C428.375 376.461 428.081 376.785 427.745 377.085C427.421 377.385 427.067 377.673 426.683 377.949C426.311 378.213 425.933 378.465 425.549 378.705C425.165 378.933 424.793 379.155 424.433 379.371L423.749 379.731H428.861C429.065 379.731 429.251 379.755 429.419 379.803C429.587 379.839 429.713 379.935 429.797 380.091C429.893 380.247 429.941 380.499 429.941 380.847C429.941 381.183 429.893 381.429 429.797 381.585C429.701 381.741 429.569 381.837 429.401 381.873C429.233 381.909 429.041 381.927 428.825 381.927H421.643ZM435.789 382.143C435.081 382.143 434.463 382.029 433.935 381.801C433.407 381.561 432.963 381.237 432.603 380.829C432.243 380.409 431.955 379.929 431.739 379.389C431.523 378.837 431.367 378.249 431.271 377.625C431.175 377.001 431.127 376.359 431.127 375.699C431.127 375.075 431.175 374.457 431.271 373.845C431.367 373.233 431.517 372.657 431.721 372.117C431.937 371.565 432.225 371.079 432.585 370.659C432.945 370.227 433.383 369.891 433.899 369.651C434.427 369.399 435.045 369.273 435.753 369.273C436.437 369.273 437.031 369.393 437.535 369.633C438.051 369.873 438.483 370.203 438.831 370.623C439.191 371.043 439.479 371.529 439.695 372.081C439.911 372.633 440.067 373.221 440.163 373.845C440.259 374.457 440.307 375.081 440.307 375.717C440.307 376.365 440.259 377.001 440.163 377.625C440.067 378.249 439.911 378.837 439.695 379.389C439.479 379.929 439.191 380.409 438.831 380.829C438.483 381.237 438.057 381.561 437.553 381.801C437.049 382.029 436.461 382.143 435.789 382.143ZM435.699 379.947C436.191 379.947 436.587 379.845 436.887 379.641C437.187 379.425 437.421 379.149 437.589 378.813C437.769 378.477 437.895 378.117 437.967 377.733C438.039 377.349 438.081 376.989 438.093 376.653C438.117 376.305 438.129 376.023 438.129 375.807V375.699C438.129 374.799 438.039 374.031 437.859 373.395C437.679 372.759 437.409 372.279 437.049 371.955C436.701 371.619 436.263 371.451 435.735 371.451C435.183 371.451 434.727 371.619 434.367 371.955C434.007 372.279 433.737 372.759 433.557 373.395C433.389 374.019 433.305 374.793 433.305 375.717C433.305 376.617 433.395 377.385 433.575 378.021C433.755 378.645 434.019 379.125 434.367 379.461C434.727 379.785 435.171 379.947 435.699 379.947ZM442.648 381.927C442.372 381.927 442.12 381.819 441.892 381.603C441.676 381.375 441.568 381.111 441.568 380.811C441.568 380.619 441.58 380.433 441.604 380.253C441.628 380.073 441.682 379.899 441.766 379.731C441.85 379.563 441.976 379.401 442.144 379.245C442.696 378.789 443.254 378.369 443.818 377.985C444.394 377.601 444.946 377.235 445.474 376.887C446.002 376.539 446.476 376.191 446.896 375.843C447.316 375.483 447.646 375.111 447.886 374.727C448.126 374.331 448.246 373.905 448.246 373.449C448.246 373.077 448.168 372.741 448.012 372.441C447.868 372.141 447.634 371.901 447.31 371.721C446.986 371.541 446.554 371.451 446.014 371.451C445.642 371.451 445.312 371.505 445.024 371.613C444.748 371.721 444.514 371.877 444.322 372.081C444.142 372.285 443.998 372.537 443.89 372.837C443.794 373.125 443.746 373.455 443.746 373.827C443.746 374.031 443.728 374.211 443.692 374.367C443.656 374.523 443.56 374.649 443.404 374.745C443.26 374.829 443.008 374.871 442.648 374.871C442.288 374.871 442.03 374.817 441.874 374.709C441.73 374.601 441.64 374.457 441.604 374.277C441.58 374.085 441.568 373.887 441.568 373.683C441.568 373.083 441.664 372.519 441.856 371.991C442.06 371.451 442.354 370.983 442.738 370.587C443.122 370.179 443.584 369.861 444.124 369.633C444.676 369.393 445.3 369.273 445.996 369.273C446.872 369.273 447.64 369.453 448.3 369.813C448.972 370.173 449.494 370.677 449.866 371.325C450.25 371.973 450.442 372.747 450.442 373.647C450.442 374.115 450.37 374.553 450.226 374.961C450.082 375.369 449.884 375.753 449.632 376.113C449.38 376.461 449.086 376.785 448.75 377.085C448.426 377.385 448.072 377.673 447.688 377.949C447.316 378.213 446.938 378.465 446.554 378.705C446.17 378.933 445.798 379.155 445.438 379.371L444.754 379.731H449.866C450.07 379.731 450.256 379.755 450.424 379.803C450.592 379.839 450.718 379.935 450.802 380.091C450.898 380.247 450.946 380.499 450.946 380.847C450.946 381.183 450.898 381.429 450.802 381.585C450.706 381.741 450.574 381.837 450.406 381.873C450.238 381.909 450.046 381.927 449.83 381.927H442.648ZM453.213 381.927C452.937 381.927 452.685 381.819 452.457 381.603C452.241 381.375 452.133 381.111 452.133 380.811C452.133 380.619 452.145 380.433 452.169 380.253C452.193 380.073 452.247 379.899 452.331 379.731C452.415 379.563 452.541 379.401 452.709 379.245C453.261 378.789 453.819 378.369 454.383 377.985C454.959 377.601 455.511 377.235 456.039 376.887C456.567 376.539 457.041 376.191 457.461 375.843C457.881 375.483 458.211 375.111 458.451 374.727C458.691 374.331 458.811 373.905 458.811 373.449C458.811 373.077 458.733 372.741 458.577 372.441C458.433 372.141 458.199 371.901 457.875 371.721C457.551 371.541 457.119 371.451 456.579 371.451C456.207 371.451 455.877 371.505 455.589 371.613C455.313 371.721 455.079 371.877 454.887 372.081C454.707 372.285 454.563 372.537 454.455 372.837C454.359 373.125 454.311 373.455 454.311 373.827C454.311 374.031 454.293 374.211 454.257 374.367C454.221 374.523 454.125 374.649 453.969 374.745C453.825 374.829 453.573 374.871 453.213 374.871C452.853 374.871 452.595 374.817 452.439 374.709C452.295 374.601 452.205 374.457 452.169 374.277C452.145 374.085 452.133 373.887 452.133 373.683C452.133 373.083 452.229 372.519 452.421 371.991C452.625 371.451 452.919 370.983 453.303 370.587C453.687 370.179 454.149 369.861 454.689 369.633C455.241 369.393 455.865 369.273 456.561 369.273C457.437 369.273 458.205 369.453 458.865 369.813C459.537 370.173 460.059 370.677 460.431 371.325C460.815 371.973 461.007 372.747 461.007 373.647C461.007 374.115 460.935 374.553 460.791 374.961C460.647 375.369 460.449 375.753 460.197 376.113C459.945 376.461 459.651 376.785 459.315 377.085C458.991 377.385 458.637 377.673 458.253 377.949C457.881 378.213 457.503 378.465 457.119 378.705C456.735 378.933 456.363 379.155 456.003 379.371L455.319 379.731H460.431C460.635 379.731 460.821 379.755 460.989 379.803C461.157 379.839 461.283 379.935 461.367 380.091C461.463 380.247 461.511 380.499 461.511 380.847C461.511 381.183 461.463 381.429 461.367 381.585C461.271 381.741 461.139 381.837 460.971 381.873C460.803 381.909 460.611 381.927 460.395 381.927H453.213Z"
     fill="black"
     id="path549" />
  <path
     d="M591.704 381.927C591.428 381.927 591.176 381.819 590.948 381.603C590.732 381.375 590.624 381.111 590.624 380.811C590.624 380.619 590.636 380.433 590.66 380.253C590.684 380.073 590.738 379.899 590.822 379.731C590.906 379.563 591.032 379.401 591.2 379.245C591.752 378.789 592.31 378.369 592.874 377.985C593.45 377.601 594.002 377.235 594.53 376.887C595.058 376.539 595.532 376.191 595.952 375.843C596.372 375.483 596.702 375.111 596.942 374.727C597.182 374.331 597.302 373.905 597.302 373.449C597.302 373.077 597.224 372.741 597.068 372.441C596.924 372.141 596.69 371.901 596.366 371.721C596.042 371.541 595.61 371.451 595.07 371.451C594.698 371.451 594.368 371.505 594.08 371.613C593.804 371.721 593.57 371.877 593.378 372.081C593.198 372.285 593.054 372.537 592.946 372.837C592.85 373.125 592.802 373.455 592.802 373.827C592.802 374.031 592.784 374.211 592.748 374.367C592.712 374.523 592.616 374.649 592.46 374.745C592.316 374.829 592.064 374.871 591.704 374.871C591.344 374.871 591.086 374.817 590.93 374.709C590.786 374.601 590.696 374.457 590.66 374.277C590.636 374.085 590.624 373.887 590.624 373.683C590.624 373.083 590.72 372.519 590.912 371.991C591.116 371.451 591.41 370.983 591.794 370.587C592.178 370.179 592.64 369.861 593.18 369.633C593.732 369.393 594.356 369.273 595.052 369.273C595.928 369.273 596.696 369.453 597.356 369.813C598.028 370.173 598.55 370.677 598.922 371.325C599.306 371.973 599.498 372.747 599.498 373.647C599.498 374.115 599.426 374.553 599.282 374.961C599.138 375.369 598.94 375.753 598.688 376.113C598.436 376.461 598.142 376.785 597.806 377.085C597.482 377.385 597.128 377.673 596.744 377.949C596.372 378.213 595.994 378.465 595.61 378.705C595.226 378.933 594.854 379.155 594.494 379.371L593.81 379.731H598.922C599.126 379.731 599.312 379.755 599.48 379.803C599.648 379.839 599.774 379.935 599.858 380.091C599.954 380.247 600.002 380.499 600.002 380.847C600.002 381.183 599.954 381.429 599.858 381.585C599.762 381.741 599.63 381.837 599.462 381.873C599.294 381.909 599.102 381.927 598.886 381.927H591.704ZM605.851 382.143C605.143 382.143 604.525 382.029 603.997 381.801C603.469 381.561 603.025 381.237 602.665 380.829C602.305 380.409 602.017 379.929 601.801 379.389C601.585 378.837 601.429 378.249 601.333 377.625C601.237 377.001 601.189 376.359 601.189 375.699C601.189 375.075 601.237 374.457 601.333 373.845C601.429 373.233 601.579 372.657 601.783 372.117C601.999 371.565 602.287 371.079 602.647 370.659C603.007 370.227 603.445 369.891 603.961 369.651C604.489 369.399 605.107 369.273 605.815 369.273C606.499 369.273 607.093 369.393 607.597 369.633C608.113 369.873 608.545 370.203 608.893 370.623C609.253 371.043 609.541 371.529 609.757 372.081C609.973 372.633 610.129 373.221 610.225 373.845C610.321 374.457 610.369 375.081 610.369 375.717C610.369 376.365 610.321 377.001 610.225 377.625C610.129 378.249 609.973 378.837 609.757 379.389C609.541 379.929 609.253 380.409 608.893 380.829C608.545 381.237 608.119 381.561 607.615 381.801C607.111 382.029 606.523 382.143 605.851 382.143ZM605.761 379.947C606.253 379.947 606.649 379.845 606.949 379.641C607.249 379.425 607.483 379.149 607.651 378.813C607.831 378.477 607.957 378.117 608.029 377.733C608.101 377.349 608.143 376.989 608.155 376.653C608.179 376.305 608.191 376.023 608.191 375.807V375.699C608.191 374.799 608.101 374.031 607.921 373.395C607.741 372.759 607.471 372.279 607.111 371.955C606.763 371.619 606.325 371.451 605.797 371.451C605.245 371.451 604.789 371.619 604.429 371.955C604.069 372.279 603.799 372.759 603.619 373.395C603.451 374.019 603.367 374.793 603.367 375.717C603.367 376.617 603.457 377.385 603.637 378.021C603.817 378.645 604.081 379.125 604.429 379.461C604.789 379.785 605.233 379.947 605.761 379.947ZM612.71 381.927C612.434 381.927 612.182 381.819 611.954 381.603C611.738 381.375 611.63 381.111 611.63 380.811C611.63 380.619 611.642 380.433 611.666 380.253C611.69 380.073 611.744 379.899 611.828 379.731C611.912 379.563 612.038 379.401 612.206 379.245C612.758 378.789 613.316 378.369 613.88 377.985C614.456 377.601 615.008 377.235 615.536 376.887C616.064 376.539 616.538 376.191 616.958 375.843C617.378 375.483 617.708 375.111 617.948 374.727C618.188 374.331 618.308 373.905 618.308 373.449C618.308 373.077 618.23 372.741 618.074 372.441C617.93 372.141 617.696 371.901 617.372 371.721C617.048 371.541 616.616 371.451 616.076 371.451C615.704 371.451 615.374 371.505 615.086 371.613C614.81 371.721 614.576 371.877 614.384 372.081C614.204 372.285 614.06 372.537 613.952 372.837C613.856 373.125 613.808 373.455 613.808 373.827C613.808 374.031 613.79 374.211 613.754 374.367C613.718 374.523 613.622 374.649 613.466 374.745C613.322 374.829 613.07 374.871 612.71 374.871C612.35 374.871 612.092 374.817 611.936 374.709C611.792 374.601 611.702 374.457 611.666 374.277C611.642 374.085 611.63 373.887 611.63 373.683C611.63 373.083 611.726 372.519 611.918 371.991C612.122 371.451 612.416 370.983 612.8 370.587C613.184 370.179 613.646 369.861 614.186 369.633C614.738 369.393 615.362 369.273 616.058 369.273C616.934 369.273 617.702 369.453 618.362 369.813C619.034 370.173 619.556 370.677 619.928 371.325C620.312 371.973 620.504 372.747 620.504 373.647C620.504 374.115 620.432 374.553 620.288 374.961C620.144 375.369 619.946 375.753 619.694 376.113C619.442 376.461 619.148 376.785 618.812 377.085C618.488 377.385 618.134 377.673 617.75 377.949C617.378 378.213 617 378.465 616.616 378.705C616.232 378.933 615.86 379.155 615.5 379.371L614.816 379.731H619.928C620.132 379.731 620.318 379.755 620.486 379.803C620.654 379.839 620.78 379.935 620.864 380.091C620.96 380.247 621.008 380.499 621.008 380.847C621.008 381.183 620.96 381.429 620.864 381.585C620.768 381.741 620.636 381.837 620.468 381.873C620.3 381.909 620.108 381.927 619.892 381.927H612.71ZM626.766 382.125C626.13 382.125 625.542 382.029 625.002 381.837C624.462 381.633 623.982 381.363 623.562 381.027C623.142 380.679 622.812 380.283 622.572 379.839C622.344 379.395 622.218 378.933 622.194 378.453C622.194 377.925 622.584 377.661 623.364 377.661C623.604 377.661 623.784 377.685 623.904 377.733C624.024 377.781 624.12 377.871 624.192 378.003C624.264 378.135 624.336 378.315 624.408 378.543C624.492 378.783 624.63 379.017 624.822 379.245C625.026 379.473 625.29 379.665 625.614 379.821C625.938 379.965 626.328 380.037 626.784 380.037C627.276 380.037 627.702 379.959 628.062 379.803C628.422 379.635 628.698 379.407 628.89 379.119C629.094 378.831 629.196 378.501 629.196 378.129C629.196 377.757 629.094 377.439 628.89 377.175C628.698 376.899 628.434 376.689 628.098 376.545C627.762 376.389 627.378 376.311 626.946 376.311C626.718 376.311 626.514 376.293 626.334 376.257C626.166 376.221 626.028 376.131 625.92 375.987C625.824 375.843 625.776 375.603 625.776 375.267C625.776 374.919 625.824 374.679 625.92 374.547C626.028 374.403 626.172 374.313 626.352 374.277C626.532 374.241 626.736 374.223 626.964 374.223C627.372 374.223 627.708 374.169 627.972 374.061C628.248 373.953 628.458 373.803 628.602 373.611C628.746 373.419 628.818 373.203 628.818 372.963C628.818 372.639 628.74 372.357 628.584 372.117C628.428 371.865 628.206 371.673 627.918 371.541C627.642 371.397 627.312 371.325 626.928 371.325C626.58 371.325 626.28 371.373 626.028 371.469C625.776 371.553 625.554 371.679 625.362 371.847C625.182 372.015 625.014 372.219 624.858 372.459C624.678 372.807 624.468 373.011 624.228 373.071C624 373.131 623.7 373.053 623.328 372.837C623.028 372.657 622.848 372.465 622.788 372.261C622.728 372.045 622.77 371.799 622.914 371.523C622.95 371.439 623.016 371.313 623.112 371.145C623.22 370.965 623.37 370.773 623.562 370.569C623.766 370.353 624.012 370.149 624.3 369.957C624.588 369.753 624.942 369.585 625.362 369.453C625.782 369.321 626.268 369.255 626.82 369.255C627.492 369.255 628.086 369.363 628.602 369.579C629.118 369.783 629.556 370.059 629.916 370.407C630.276 370.743 630.546 371.127 630.726 371.559C630.918 371.979 631.014 372.417 631.014 372.873C631.014 373.281 630.936 373.647 630.78 373.971C630.624 374.295 630.432 374.565 630.204 374.781C629.976 374.997 629.748 375.159 629.52 375.267C629.772 375.375 630.006 375.525 630.222 375.717C630.45 375.909 630.648 376.137 630.816 376.401C630.996 376.653 631.134 376.923 631.23 377.211C631.326 377.499 631.374 377.793 631.374 378.093C631.374 378.861 631.176 379.551 630.78 380.163C630.396 380.775 629.856 381.255 629.16 381.603C628.464 381.951 627.666 382.125 626.766 382.125Z"
     fill="black"
     id="path551" />
  <path
     d="M762.003 381.927C761.727 381.927 761.475 381.819 761.247 381.603C761.031 381.375 760.923 381.111 760.923 380.811C760.923 380.619 760.935 380.433 760.959 380.253C760.983 380.073 761.037 379.899 761.121 379.731C761.205 379.563 761.331 379.401 761.499 379.245C762.051 378.789 762.609 378.369 763.173 377.985C763.749 377.601 764.301 377.235 764.829 376.887C765.357 376.539 765.831 376.191 766.251 375.843C766.671 375.483 767.001 375.111 767.241 374.727C767.481 374.331 767.601 373.905 767.601 373.449C767.601 373.077 767.523 372.741 767.367 372.441C767.223 372.141 766.989 371.901 766.665 371.721C766.341 371.541 765.909 371.451 765.369 371.451C764.997 371.451 764.667 371.505 764.379 371.613C764.103 371.721 763.869 371.877 763.677 372.081C763.497 372.285 763.353 372.537 763.245 372.837C763.149 373.125 763.101 373.455 763.101 373.827C763.101 374.031 763.083 374.211 763.047 374.367C763.011 374.523 762.915 374.649 762.759 374.745C762.615 374.829 762.363 374.871 762.003 374.871C761.643 374.871 761.385 374.817 761.229 374.709C761.085 374.601 760.995 374.457 760.959 374.277C760.935 374.085 760.923 373.887 760.923 373.683C760.923 373.083 761.019 372.519 761.211 371.991C761.415 371.451 761.709 370.983 762.093 370.587C762.477 370.179 762.939 369.861 763.479 369.633C764.031 369.393 764.655 369.273 765.351 369.273C766.227 369.273 766.995 369.453 767.655 369.813C768.327 370.173 768.849 370.677 769.221 371.325C769.605 371.973 769.797 372.747 769.797 373.647C769.797 374.115 769.725 374.553 769.581 374.961C769.437 375.369 769.239 375.753 768.987 376.113C768.735 376.461 768.441 376.785 768.105 377.085C767.781 377.385 767.427 377.673 767.043 377.949C766.671 378.213 766.293 378.465 765.909 378.705C765.525 378.933 765.153 379.155 764.793 379.371L764.109 379.731H769.221C769.425 379.731 769.611 379.755 769.779 379.803C769.947 379.839 770.073 379.935 770.157 380.091C770.253 380.247 770.301 380.499 770.301 380.847C770.301 381.183 770.253 381.429 770.157 381.585C770.061 381.741 769.929 381.837 769.761 381.873C769.593 381.909 769.401 381.927 769.185 381.927H762.003ZM776.149 382.143C775.441 382.143 774.823 382.029 774.295 381.801C773.767 381.561 773.323 381.237 772.963 380.829C772.603 380.409 772.315 379.929 772.099 379.389C771.883 378.837 771.727 378.249 771.631 377.625C771.535 377.001 771.487 376.359 771.487 375.699C771.487 375.075 771.535 374.457 771.631 373.845C771.727 373.233 771.877 372.657 772.081 372.117C772.297 371.565 772.585 371.079 772.945 370.659C773.305 370.227 773.743 369.891 774.259 369.651C774.787 369.399 775.405 369.273 776.113 369.273C776.797 369.273 777.391 369.393 777.895 369.633C778.411 369.873 778.843 370.203 779.191 370.623C779.551 371.043 779.839 371.529 780.055 372.081C780.271 372.633 780.427 373.221 780.523 373.845C780.619 374.457 780.667 375.081 780.667 375.717C780.667 376.365 780.619 377.001 780.523 377.625C780.427 378.249 780.271 378.837 780.055 379.389C779.839 379.929 779.551 380.409 779.191 380.829C778.843 381.237 778.417 381.561 777.913 381.801C777.409 382.029 776.821 382.143 776.149 382.143ZM776.059 379.947C776.551 379.947 776.947 379.845 777.247 379.641C777.547 379.425 777.781 379.149 777.949 378.813C778.129 378.477 778.255 378.117 778.327 377.733C778.399 377.349 778.441 376.989 778.453 376.653C778.477 376.305 778.489 376.023 778.489 375.807V375.699C778.489 374.799 778.399 374.031 778.219 373.395C778.039 372.759 777.769 372.279 777.409 371.955C777.061 371.619 776.623 371.451 776.095 371.451C775.543 371.451 775.087 371.619 774.727 371.955C774.367 372.279 774.097 372.759 773.917 373.395C773.749 374.019 773.665 374.793 773.665 375.717C773.665 376.617 773.755 377.385 773.935 378.021C774.115 378.645 774.379 379.125 774.727 379.461C775.087 379.785 775.531 379.947 776.059 379.947ZM783.009 381.927C782.733 381.927 782.481 381.819 782.253 381.603C782.037 381.375 781.929 381.111 781.929 380.811C781.929 380.619 781.941 380.433 781.965 380.253C781.989 380.073 782.043 379.899 782.127 379.731C782.211 379.563 782.337 379.401 782.505 379.245C783.057 378.789 783.615 378.369 784.179 377.985C784.755 377.601 785.307 377.235 785.835 376.887C786.363 376.539 786.837 376.191 787.257 375.843C787.677 375.483 788.007 375.111 788.247 374.727C788.487 374.331 788.607 373.905 788.607 373.449C788.607 373.077 788.529 372.741 788.373 372.441C788.229 372.141 787.995 371.901 787.671 371.721C787.347 371.541 786.915 371.451 786.375 371.451C786.003 371.451 785.673 371.505 785.385 371.613C785.109 371.721 784.875 371.877 784.683 372.081C784.503 372.285 784.359 372.537 784.251 372.837C784.155 373.125 784.107 373.455 784.107 373.827C784.107 374.031 784.089 374.211 784.053 374.367C784.017 374.523 783.921 374.649 783.765 374.745C783.621 374.829 783.369 374.871 783.009 374.871C782.649 374.871 782.391 374.817 782.235 374.709C782.091 374.601 782.001 374.457 781.965 374.277C781.941 374.085 781.929 373.887 781.929 373.683C781.929 373.083 782.025 372.519 782.217 371.991C782.421 371.451 782.715 370.983 783.099 370.587C783.483 370.179 783.945 369.861 784.485 369.633C785.037 369.393 785.661 369.273 786.357 369.273C787.233 369.273 788.001 369.453 788.661 369.813C789.333 370.173 789.855 370.677 790.227 371.325C790.611 371.973 790.803 372.747 790.803 373.647C790.803 374.115 790.731 374.553 790.587 374.961C790.443 375.369 790.245 375.753 789.993 376.113C789.741 376.461 789.447 376.785 789.111 377.085C788.787 377.385 788.433 377.673 788.049 377.949C787.677 378.213 787.299 378.465 786.915 378.705C786.531 378.933 786.159 379.155 785.799 379.371L785.115 379.731H790.227C790.431 379.731 790.617 379.755 790.785 379.803C790.953 379.839 791.079 379.935 791.163 380.091C791.259 380.247 791.307 380.499 791.307 380.847C791.307 381.183 791.259 381.429 791.163 381.585C791.067 381.741 790.935 381.837 790.767 381.873C790.599 381.909 790.407 381.927 790.191 381.927H783.009ZM799.837 381.999C799.501 381.999 799.255 381.951 799.099 381.855C798.955 381.759 798.859 381.627 798.811 381.459C798.775 381.291 798.757 381.105 798.757 380.901V378.165H793.501C793.165 378.165 792.919 378.117 792.763 378.021C792.607 377.913 792.505 377.775 792.457 377.607C792.421 377.439 792.403 377.259 792.403 377.067C792.403 376.971 792.409 376.893 792.421 376.833C792.433 376.761 792.445 376.689 792.457 376.617L794.239 370.227C794.347 369.771 794.497 369.501 794.689 369.417C794.881 369.333 795.175 369.333 795.571 369.417C795.883 369.489 796.117 369.609 796.273 369.777C796.441 369.933 796.495 370.137 796.435 370.389L794.833 376.131H798.757V370.425C798.757 370.233 798.775 370.065 798.811 369.921C798.859 369.777 798.961 369.657 799.117 369.561C799.285 369.465 799.537 369.417 799.873 369.417C800.209 369.417 800.455 369.471 800.611 369.579C800.767 369.675 800.863 369.807 800.899 369.975C800.935 370.131 800.953 370.311 800.953 370.515V380.937C800.953 381.129 800.929 381.309 800.881 381.477C800.845 381.645 800.749 381.771 800.593 381.855C800.437 381.951 800.185 381.999 799.837 381.999Z"
     fill="black"
     id="path553" />
  <path
     d="M932.346 381.927C932.07 381.927 931.818 381.819 931.59 381.603C931.374 381.375 931.266 381.111 931.266 380.811C931.266 380.619 931.278 380.433 931.302 380.253C931.326 380.073 931.38 379.899 931.464 379.731C931.548 379.563 931.674 379.401 931.842 379.245C932.394 378.789 932.952 378.369 933.516 377.985C934.092 377.601 934.644 377.235 935.172 376.887C935.7 376.539 936.174 376.191 936.594 375.843C937.014 375.483 937.344 375.111 937.584 374.727C937.824 374.331 937.944 373.905 937.944 373.449C937.944 373.077 937.866 372.741 937.71 372.441C937.566 372.141 937.332 371.901 937.008 371.721C936.684 371.541 936.252 371.451 935.712 371.451C935.34 371.451 935.01 371.505 934.722 371.613C934.446 371.721 934.212 371.877 934.02 372.081C933.84 372.285 933.696 372.537 933.588 372.837C933.492 373.125 933.444 373.455 933.444 373.827C933.444 374.031 933.426 374.211 933.39 374.367C933.354 374.523 933.258 374.649 933.102 374.745C932.958 374.829 932.706 374.871 932.346 374.871C931.986 374.871 931.728 374.817 931.572 374.709C931.428 374.601 931.338 374.457 931.302 374.277C931.278 374.085 931.266 373.887 931.266 373.683C931.266 373.083 931.362 372.519 931.554 371.991C931.758 371.451 932.052 370.983 932.436 370.587C932.82 370.179 933.282 369.861 933.822 369.633C934.374 369.393 934.998 369.273 935.694 369.273C936.57 369.273 937.338 369.453 937.998 369.813C938.67 370.173 939.192 370.677 939.564 371.325C939.948 371.973 940.14 372.747 940.14 373.647C940.14 374.115 940.068 374.553 939.924 374.961C939.78 375.369 939.582 375.753 939.33 376.113C939.078 376.461 938.784 376.785 938.448 377.085C938.124 377.385 937.77 377.673 937.386 377.949C937.014 378.213 936.636 378.465 936.252 378.705C935.868 378.933 935.496 379.155 935.136 379.371L934.452 379.731H939.564C939.768 379.731 939.954 379.755 940.122 379.803C940.29 379.839 940.416 379.935 940.5 380.091C940.596 380.247 940.644 380.499 940.644 380.847C940.644 381.183 940.596 381.429 940.5 381.585C940.404 381.741 940.272 381.837 940.104 381.873C939.936 381.909 939.744 381.927 939.528 381.927H932.346ZM946.492 382.143C945.784 382.143 945.166 382.029 944.638 381.801C944.11 381.561 943.666 381.237 943.306 380.829C942.946 380.409 942.658 379.929 942.442 379.389C942.226 378.837 942.07 378.249 941.974 377.625C941.878 377.001 941.83 376.359 941.83 375.699C941.83 375.075 941.878 374.457 941.974 373.845C942.07 373.233 942.22 372.657 942.424 372.117C942.64 371.565 942.928 371.079 943.288 370.659C943.648 370.227 944.086 369.891 944.602 369.651C945.13 369.399 945.748 369.273 946.456 369.273C947.14 369.273 947.734 369.393 948.238 369.633C948.754 369.873 949.186 370.203 949.534 370.623C949.894 371.043 950.182 371.529 950.398 372.081C950.614 372.633 950.77 373.221 950.866 373.845C950.962 374.457 951.01 375.081 951.01 375.717C951.01 376.365 950.962 377.001 950.866 377.625C950.77 378.249 950.614 378.837 950.398 379.389C950.182 379.929 949.894 380.409 949.534 380.829C949.186 381.237 948.76 381.561 948.256 381.801C947.752 382.029 947.164 382.143 946.492 382.143ZM946.402 379.947C946.894 379.947 947.29 379.845 947.59 379.641C947.89 379.425 948.124 379.149 948.292 378.813C948.472 378.477 948.598 378.117 948.67 377.733C948.742 377.349 948.784 376.989 948.796 376.653C948.82 376.305 948.832 376.023 948.832 375.807V375.699C948.832 374.799 948.742 374.031 948.562 373.395C948.382 372.759 948.112 372.279 947.752 371.955C947.404 371.619 946.966 371.451 946.438 371.451C945.886 371.451 945.43 371.619 945.07 371.955C944.71 372.279 944.44 372.759 944.26 373.395C944.092 374.019 944.008 374.793 944.008 375.717C944.008 376.617 944.098 377.385 944.278 378.021C944.458 378.645 944.722 379.125 945.07 379.461C945.43 379.785 945.874 379.947 946.402 379.947ZM953.352 381.927C953.076 381.927 952.824 381.819 952.596 381.603C952.38 381.375 952.272 381.111 952.272 380.811C952.272 380.619 952.284 380.433 952.308 380.253C952.332 380.073 952.386 379.899 952.47 379.731C952.554 379.563 952.68 379.401 952.848 379.245C953.4 378.789 953.958 378.369 954.522 377.985C955.098 377.601 955.65 377.235 956.178 376.887C956.706 376.539 957.18 376.191 957.6 375.843C958.02 375.483 958.35 375.111 958.59 374.727C958.83 374.331 958.95 373.905 958.95 373.449C958.95 373.077 958.872 372.741 958.716 372.441C958.572 372.141 958.338 371.901 958.014 371.721C957.69 371.541 957.258 371.451 956.718 371.451C956.346 371.451 956.016 371.505 955.728 371.613C955.452 371.721 955.218 371.877 955.026 372.081C954.846 372.285 954.702 372.537 954.594 372.837C954.498 373.125 954.45 373.455 954.45 373.827C954.45 374.031 954.432 374.211 954.396 374.367C954.36 374.523 954.264 374.649 954.108 374.745C953.964 374.829 953.712 374.871 953.352 374.871C952.992 374.871 952.734 374.817 952.578 374.709C952.434 374.601 952.344 374.457 952.308 374.277C952.284 374.085 952.272 373.887 952.272 373.683C952.272 373.083 952.368 372.519 952.56 371.991C952.764 371.451 953.058 370.983 953.442 370.587C953.826 370.179 954.288 369.861 954.828 369.633C955.38 369.393 956.004 369.273 956.7 369.273C957.576 369.273 958.344 369.453 959.004 369.813C959.676 370.173 960.198 370.677 960.57 371.325C960.954 371.973 961.146 372.747 961.146 373.647C961.146 374.115 961.074 374.553 960.93 374.961C960.786 375.369 960.588 375.753 960.336 376.113C960.084 376.461 959.79 376.785 959.454 377.085C959.13 377.385 958.776 377.673 958.392 377.949C958.02 378.213 957.642 378.465 957.258 378.705C956.874 378.933 956.502 379.155 956.142 379.371L955.458 379.731H960.57C960.774 379.731 960.96 379.755 961.128 379.803C961.296 379.839 961.422 379.935 961.506 380.091C961.602 380.247 961.65 380.499 961.65 380.847C961.65 381.183 961.602 381.429 961.506 381.585C961.41 381.741 961.278 381.837 961.11 381.873C960.942 381.909 960.75 381.927 960.534 381.927H953.352ZM966.652 382.143C966.196 382.143 965.782 382.101 965.41 382.017C965.05 381.933 964.726 381.825 964.438 381.693C964.162 381.561 963.928 381.435 963.736 381.315C963.544 381.183 963.388 381.069 963.268 380.973C963.124 380.853 962.998 380.739 962.89 380.631C962.794 380.511 962.746 380.373 962.746 380.217C962.746 380.097 962.776 379.977 962.836 379.857C962.908 379.725 963.022 379.575 963.178 379.407C963.31 379.239 963.436 379.119 963.556 379.047C963.688 378.975 963.814 378.939 963.934 378.939C964.042 378.939 964.156 378.969 964.276 379.029C964.408 379.089 964.57 379.197 964.762 379.353C964.858 379.437 964.972 379.527 965.104 379.623C965.248 379.707 965.434 379.785 965.662 379.857C965.89 379.917 966.184 379.947 966.544 379.947C966.952 379.947 967.306 379.869 967.606 379.713C967.906 379.557 968.134 379.335 968.29 379.047C968.458 378.759 968.542 378.411 968.542 378.003C968.542 377.619 968.458 377.283 968.29 376.995C968.122 376.695 967.888 376.461 967.588 376.293C967.3 376.125 966.97 376.041 966.598 376.041C966.418 376.041 966.244 376.065 966.076 376.113C965.908 376.161 965.758 376.221 965.626 376.293C965.506 376.365 965.404 376.443 965.32 376.527C965.224 376.611 965.128 376.683 965.032 376.743C964.948 376.803 964.834 376.839 964.69 376.851C964.558 376.875 964.42 376.875 964.276 376.851C964.144 376.815 963.976 376.755 963.772 376.671C963.508 376.539 963.316 376.419 963.196 376.311C963.076 376.203 963.016 376.065 963.016 375.897L963.754 370.515C963.778 370.371 963.814 370.215 963.862 370.047C963.922 369.867 964.024 369.717 964.168 369.597C964.324 369.465 964.552 369.405 964.852 369.417H969.352C969.544 369.417 969.718 369.441 969.874 369.489C970.03 369.525 970.156 369.621 970.252 369.777C970.348 369.933 970.396 370.185 970.396 370.533C970.396 370.857 970.348 371.091 970.252 371.235C970.168 371.379 970.048 371.469 969.892 371.505C969.748 371.541 969.58 371.559 969.388 371.559H965.824L965.428 374.259C965.548 374.175 965.674 374.109 965.806 374.061C965.938 374.001 966.07 373.959 966.202 373.935C966.346 373.899 966.484 373.881 966.616 373.881H966.742C967.27 373.881 967.774 373.989 968.254 374.205C968.734 374.409 969.16 374.697 969.532 375.069C969.904 375.441 970.198 375.867 970.414 376.347C970.63 376.827 970.738 377.337 970.738 377.877C970.738 378.693 970.558 379.425 970.198 380.073C969.838 380.709 969.352 381.213 968.74 381.585C968.128 381.957 967.432 382.143 966.652 382.143Z"
     fill="black"
     id="path555" />
  <path
     d="M14.7095 271.039C14.7095 271.459 14.6435 271.837 14.5115 272.173C14.3795 272.509 14.1935 272.809 13.9535 273.073C13.7135 273.325 13.4195 273.535 13.0715 273.703C12.7355 273.859 12.3575 273.973 11.9375 274.045V275.269C11.9375 275.449 11.9195 275.611 11.8835 275.755C11.8595 275.911 11.7875 276.031 11.6675 276.115C11.5475 276.199 11.3555 276.241 11.0915 276.241C10.8515 276.241 10.6715 276.193 10.5515 276.097C10.4315 276.013 10.3535 275.893 10.3175 275.737C10.2935 275.593 10.2815 275.437 10.2815 275.269V274.045C9.95755 273.985 9.64555 273.889 9.34555 273.757C9.04555 273.613 8.77555 273.445 8.53555 273.253C8.29555 273.061 8.09155 272.845 7.92355 272.605C7.74355 272.329 7.65355 272.095 7.65355 271.903C7.65355 271.711 7.79155 271.495 8.06755 271.255C8.25955 271.099 8.43955 271.015 8.60755 271.003C8.77555 270.991 8.93155 271.039 9.07555 271.147C9.21955 271.243 9.35155 271.375 9.47155 271.543C9.67555 271.819 9.90955 272.029 10.1735 272.173C10.4375 272.305 10.7315 272.371 11.0555 272.371C11.4395 272.371 11.7635 272.323 12.0275 272.227C12.2915 272.119 12.4895 271.969 12.6215 271.777C12.7535 271.585 12.8195 271.351 12.8195 271.075C12.8195 270.751 12.6875 270.505 12.4235 270.337C12.1595 270.157 11.8235 270.007 11.4155 269.887C11.0075 269.755 10.5935 269.599 10.1735 269.419C9.87355 269.311 9.58555 269.185 9.30955 269.041C9.03355 268.885 8.78755 268.699 8.57155 268.483C8.35555 268.267 8.18155 268.009 8.04955 267.709C7.91755 267.409 7.85155 267.049 7.85155 266.629C7.85155 266.257 7.90555 265.921 8.01355 265.621C8.13355 265.309 8.29555 265.039 8.49955 264.811C8.71555 264.571 8.97355 264.373 9.27355 264.217C9.57355 264.061 9.90955 263.947 10.2815 263.875V262.759C10.2815 262.579 10.2935 262.417 10.3175 262.273C10.3535 262.129 10.4315 262.015 10.5515 261.931C10.6715 261.847 10.8575 261.805 11.1095 261.805C11.3615 261.805 11.5475 261.847 11.6675 261.931C11.7875 262.015 11.8595 262.129 11.8835 262.273C11.9195 262.417 11.9375 262.579 11.9375 262.759V263.857C12.3335 263.917 12.6815 264.031 12.9815 264.199C13.2935 264.367 13.5635 264.565 13.7915 264.793C14.0315 265.009 14.1575 265.195 14.1695 265.351C14.1935 265.507 14.1035 265.723 13.8995 265.999C13.7795 266.179 13.6475 266.311 13.5035 266.395C13.3595 266.467 13.2155 266.485 13.0715 266.449C12.9275 266.413 12.7715 266.335 12.6035 266.215C12.4835 266.095 12.3455 265.987 12.1895 265.891C12.0455 265.795 11.8775 265.717 11.6855 265.657C11.5055 265.597 11.2895 265.567 11.0375 265.567C10.8455 265.567 10.6655 265.597 10.4975 265.657C10.3415 265.705 10.2035 265.777 10.0835 265.873C9.97555 265.969 9.88555 266.083 9.81355 266.215C9.75355 266.347 9.72355 266.491 9.72355 266.647C9.72355 266.923 9.81955 267.145 10.0115 267.313C10.2155 267.481 10.4795 267.619 10.8035 267.727C11.1275 267.823 11.4755 267.925 11.8475 268.033C12.1835 268.141 12.5195 268.261 12.8555 268.393C13.1915 268.525 13.4975 268.705 13.7735 268.933C14.0615 269.149 14.2895 269.425 14.4575 269.761C14.6255 270.097 14.7095 270.523 14.7095 271.039ZM20.6493 275.125C20.0133 275.125 19.4253 275.029 18.8853 274.837C18.3453 274.633 17.8653 274.363 17.4453 274.027C17.0253 273.679 16.6953 273.283 16.4553 272.839C16.2273 272.395 16.1013 271.933 16.0773 271.453C16.0773 270.925 16.4673 270.661 17.2473 270.661C17.4873 270.661 17.6673 270.685 17.7873 270.733C17.9073 270.781 18.0033 270.871 18.0753 271.003C18.1473 271.135 18.2193 271.315 18.2913 271.543C18.3753 271.783 18.5133 272.017 18.7053 272.245C18.9093 272.473 19.1733 272.665 19.4973 272.821C19.8213 272.965 20.2113 273.037 20.6673 273.037C21.1593 273.037 21.5853 272.959 21.9453 272.803C22.3053 272.635 22.5813 272.407 22.7733 272.119C22.9773 271.831 23.0793 271.501 23.0793 271.129C23.0793 270.757 22.9773 270.439 22.7733 270.175C22.5813 269.899 22.3173 269.689 21.9813 269.545C21.6453 269.389 21.2613 269.311 20.8293 269.311C20.6013 269.311 20.3973 269.293 20.2173 269.257C20.0493 269.221 19.9113 269.131 19.8033 268.987C19.7073 268.843 19.6593 268.603 19.6593 268.267C19.6593 267.919 19.7073 267.679 19.8033 267.547C19.9113 267.403 20.0553 267.313 20.2353 267.277C20.4153 267.241 20.6193 267.223 20.8473 267.223C21.2553 267.223 21.5913 267.169 21.8553 267.061C22.1313 266.953 22.3413 266.803 22.4853 266.611C22.6293 266.419 22.7013 266.203 22.7013 265.963C22.7013 265.639 22.6233 265.357 22.4673 265.117C22.3113 264.865 22.0893 264.673 21.8013 264.541C21.5253 264.397 21.1953 264.325 20.8113 264.325C20.4633 264.325 20.1633 264.373 19.9113 264.469C19.6593 264.553 19.4373 264.679 19.2453 264.847C19.0653 265.015 18.8973 265.219 18.7413 265.459C18.5613 265.807 18.3513 266.011 18.1113 266.071C17.8833 266.131 17.5833 266.053 17.2113 265.837C16.9113 265.657 16.7313 265.465 16.6713 265.261C16.6113 265.045 16.6533 264.799 16.7973 264.523C16.8333 264.439 16.8993 264.313 16.9953 264.145C17.1033 263.965 17.2533 263.773 17.4453 263.569C17.6493 263.353 17.8953 263.149 18.1833 262.957C18.4713 262.753 18.8253 262.585 19.2453 262.453C19.6653 262.321 20.1513 262.255 20.7033 262.255C21.3753 262.255 21.9693 262.363 22.4853 262.579C23.0013 262.783 23.4393 263.059 23.7993 263.407C24.1593 263.743 24.4293 264.127 24.6093 264.559C24.8013 264.979 24.8973 265.417 24.8973 265.873C24.8973 266.281 24.8193 266.647 24.6633 266.971C24.5073 267.295 24.3153 267.565 24.0873 267.781C23.8593 267.997 23.6313 268.159 23.4033 268.267C23.6553 268.375 23.8893 268.525 24.1053 268.717C24.3333 268.909 24.5313 269.137 24.6993 269.401C24.8793 269.653 25.0173 269.923 25.1133 270.211C25.2093 270.499 25.2573 270.793 25.2573 271.093C25.2573 271.861 25.0593 272.551 24.6633 273.163C24.2793 273.775 23.7393 274.255 23.0433 274.603C22.3473 274.951 21.5493 275.125 20.6493 275.125ZM31.1807 275.143C30.4727 275.143 29.8547 275.029 29.3267 274.801C28.7987 274.561 28.3547 274.237 27.9947 273.829C27.6347 273.409 27.3467 272.929 27.1307 272.389C26.9147 271.837 26.7587 271.249 26.6627 270.625C26.5667 270.001 26.5187 269.359 26.5187 268.699C26.5187 268.075 26.5667 267.457 26.6627 266.845C26.7587 266.233 26.9087 265.657 27.1127 265.117C27.3287 264.565 27.6167 264.079 27.9767 263.659C28.3367 263.227 28.7747 262.891 29.2907 262.651C29.8187 262.399 30.4367 262.273 31.1447 262.273C31.8287 262.273 32.4227 262.393 32.9267 262.633C33.4427 262.873 33.8747 263.203 34.2227 263.623C34.5827 264.043 34.8707 264.529 35.0867 265.081C35.3027 265.633 35.4587 266.221 35.5547 266.845C35.6507 267.457 35.6987 268.081 35.6987 268.717C35.6987 269.365 35.6507 270.001 35.5547 270.625C35.4587 271.249 35.3027 271.837 35.0867 272.389C34.8707 272.929 34.5827 273.409 34.2227 273.829C33.8747 274.237 33.4487 274.561 32.9447 274.801C32.4407 275.029 31.8527 275.143 31.1807 275.143ZM31.0907 272.947C31.5827 272.947 31.9787 272.845 32.2787 272.641C32.5787 272.425 32.8127 272.149 32.9807 271.813C33.1607 271.477 33.2867 271.117 33.3587 270.733C33.4307 270.349 33.4727 269.989 33.4847 269.653C33.5087 269.305 33.5207 269.023 33.5207 268.807V268.699C33.5207 267.799 33.4307 267.031 33.2507 266.395C33.0707 265.759 32.8007 265.279 32.4407 264.955C32.0927 264.619 31.6547 264.451 31.1267 264.451C30.5747 264.451 30.1187 264.619 29.7587 264.955C29.3987 265.279 29.1287 265.759 28.9487 266.395C28.7807 267.019 28.6967 267.793 28.6967 268.717C28.6967 269.617 28.7867 270.385 28.9667 271.021C29.1467 271.645 29.4107 272.125 29.7587 272.461C30.1187 272.785 30.5627 272.947 31.0907 272.947ZM38.4901 275.017C38.1541 275.017 37.9081 274.963 37.7521 274.855C37.5961 274.759 37.5001 274.627 37.4641 274.459C37.4281 274.291 37.4101 274.111 37.4101 273.919V263.515C37.4101 263.311 37.4281 263.131 37.4641 262.975C37.5121 262.807 37.6081 262.675 37.7521 262.579C37.9081 262.483 38.1601 262.435 38.5081 262.435C38.8441 262.435 39.0841 262.483 39.2281 262.579C39.3841 262.675 39.4801 262.807 39.5161 262.975C39.5641 263.143 39.5881 263.329 39.5881 263.533V267.259L44.1781 262.795C44.3701 262.591 44.5441 262.453 44.7001 262.381C44.8561 262.309 45.0181 262.303 45.1861 262.363C45.3541 262.411 45.5341 262.531 45.7261 262.723C46.0381 263.023 46.1941 263.287 46.1941 263.515C46.1941 263.731 46.0561 263.983 45.7801 264.271L41.0281 268.717L45.8341 273.181C46.1341 273.469 46.2781 273.727 46.2661 273.955C46.2541 274.183 46.0921 274.441 45.7801 274.729C45.5521 274.921 45.3541 275.041 45.1861 275.089C45.0301 275.149 44.8741 275.137 44.7181 275.053C44.5741 274.981 44.4121 274.843 44.2321 274.639L39.5881 270.139V273.937C39.5881 274.129 39.5641 274.309 39.5161 274.477C39.4801 274.645 39.3841 274.777 39.2281 274.873C39.0841 274.969 38.8381 275.017 38.4901 275.017Z"
     fill="black"
     id="path557" />
  <path
     d="M15.5885 195.039C15.5885 195.459 15.5225 195.837 15.3905 196.173C15.2585 196.509 15.0725 196.809 14.8325 197.073C14.5925 197.325 14.2985 197.535 13.9505 197.703C13.6145 197.859 13.2365 197.973 12.8165 198.045V199.269C12.8165 199.449 12.7985 199.611 12.7625 199.755C12.7385 199.911 12.6665 200.031 12.5465 200.115C12.4265 200.199 12.2345 200.241 11.9705 200.241C11.7305 200.241 11.5505 200.193 11.4305 200.097C11.3105 200.013 11.2325 199.893 11.1965 199.737C11.1725 199.593 11.1605 199.437 11.1605 199.269V198.045C10.8365 197.985 10.5245 197.889 10.2245 197.757C9.92445 197.613 9.65445 197.445 9.41445 197.253C9.17445 197.061 8.97045 196.845 8.80245 196.605C8.62245 196.329 8.53245 196.095 8.53245 195.903C8.53245 195.711 8.67045 195.495 8.94645 195.255C9.13845 195.099 9.31845 195.015 9.48645 195.003C9.65445 194.991 9.81045 195.039 9.95445 195.147C10.0985 195.243 10.2305 195.375 10.3505 195.543C10.5545 195.819 10.7885 196.029 11.0525 196.173C11.3165 196.305 11.6105 196.371 11.9345 196.371C12.3185 196.371 12.6425 196.323 12.9065 196.227C13.1705 196.119 13.3685 195.969 13.5005 195.777C13.6325 195.585 13.6985 195.351 13.6985 195.075C13.6985 194.751 13.5665 194.505 13.3025 194.337C13.0385 194.157 12.7025 194.007 12.2945 193.887C11.8865 193.755 11.4725 193.599 11.0525 193.419C10.7525 193.311 10.4645 193.185 10.1885 193.041C9.91245 192.885 9.66645 192.699 9.45045 192.483C9.23445 192.267 9.06045 192.009 8.92845 191.709C8.79645 191.409 8.73045 191.049 8.73045 190.629C8.73045 190.257 8.78445 189.921 8.89245 189.621C9.01245 189.309 9.17445 189.039 9.37845 188.811C9.59445 188.571 9.85245 188.373 10.1525 188.217C10.4525 188.061 10.7885 187.947 11.1605 187.875V186.759C11.1605 186.579 11.1725 186.417 11.1965 186.273C11.2325 186.129 11.3105 186.015 11.4305 185.931C11.5505 185.847 11.7365 185.805 11.9885 185.805C12.2405 185.805 12.4265 185.847 12.5465 185.931C12.6665 186.015 12.7385 186.129 12.7625 186.273C12.7985 186.417 12.8165 186.579 12.8165 186.759V187.857C13.2125 187.917 13.5605 188.031 13.8605 188.199C14.1725 188.367 14.4425 188.565 14.6705 188.793C14.9105 189.009 15.0365 189.195 15.0485 189.351C15.0725 189.507 14.9825 189.723 14.7785 189.999C14.6585 190.179 14.5265 190.311 14.3825 190.395C14.2385 190.467 14.0945 190.485 13.9505 190.449C13.8065 190.413 13.6505 190.335 13.4825 190.215C13.3625 190.095 13.2245 189.987 13.0685 189.891C12.9245 189.795 12.7565 189.717 12.5645 189.657C12.3845 189.597 12.1685 189.567 11.9165 189.567C11.7245 189.567 11.5445 189.597 11.3765 189.657C11.2205 189.705 11.0825 189.777 10.9625 189.873C10.8545 189.969 10.7645 190.083 10.6925 190.215C10.6325 190.347 10.6025 190.491 10.6025 190.647C10.6025 190.923 10.6985 191.145 10.8905 191.313C11.0945 191.481 11.3585 191.619 11.6825 191.727C12.0065 191.823 12.3545 191.925 12.7265 192.033C13.0625 192.141 13.3985 192.261 13.7345 192.393C14.0705 192.525 14.3765 192.705 14.6525 192.933C14.9405 193.149 15.1685 193.425 15.3365 193.761C15.5045 194.097 15.5885 194.523 15.5885 195.039ZM21.2402 199.125C20.3402 199.125 19.5722 198.933 18.9362 198.549C18.3002 198.153 17.8082 197.577 17.4602 196.821C17.1242 196.065 16.9562 195.153 16.9562 194.085C16.9562 193.161 17.0582 192.303 17.2622 191.511C17.4782 190.719 17.7842 190.011 18.1802 189.387C18.5882 188.751 19.0742 188.211 19.6382 187.767C20.2142 187.323 20.8562 186.981 21.5642 186.741C22.2722 186.501 23.0402 186.381 23.8682 186.381C24.0602 186.381 24.2282 186.405 24.3722 186.453C24.5282 186.489 24.6542 186.585 24.7502 186.741C24.8462 186.897 24.8942 187.143 24.8942 187.479C24.8942 187.815 24.8402 188.061 24.7322 188.217C24.6362 188.373 24.5042 188.469 24.3362 188.505C24.1802 188.541 24.0002 188.559 23.7962 188.559C23.1962 188.559 22.6622 188.637 22.1942 188.793C21.7262 188.949 21.3122 189.159 20.9522 189.423C20.5922 189.687 20.2922 189.993 20.0522 190.341C19.8122 190.677 19.6322 191.037 19.5122 191.421C19.3922 191.793 19.3262 192.165 19.3142 192.537L19.0622 192.645C19.1342 192.441 19.2782 192.249 19.4942 192.069C19.7102 191.889 19.9802 191.745 20.3042 191.637C20.6402 191.517 21.0002 191.457 21.3842 191.457C22.1402 191.457 22.8062 191.619 23.3822 191.943C23.9702 192.267 24.4322 192.711 24.7682 193.275C25.1042 193.827 25.2722 194.451 25.2722 195.147C25.2722 195.915 25.0982 196.599 24.7502 197.199C24.4142 197.799 23.9402 198.273 23.3282 198.621C22.7282 198.957 22.0322 199.125 21.2402 199.125ZM21.1682 197.091C21.5882 197.091 21.9422 197.019 22.2302 196.875C22.5302 196.719 22.7522 196.503 22.8962 196.227C23.0522 195.951 23.1302 195.621 23.1302 195.237C23.1302 194.877 23.0582 194.565 22.9142 194.301C22.7702 194.025 22.5542 193.815 22.2662 193.671C21.9902 193.515 21.6602 193.437 21.2762 193.437C20.8562 193.437 20.4902 193.515 20.1782 193.671C19.8662 193.815 19.6262 194.019 19.4582 194.283C19.3022 194.547 19.2242 194.853 19.2242 195.201C19.2242 195.585 19.2962 195.921 19.4402 196.209C19.5962 196.497 19.8182 196.719 20.1062 196.875C20.3942 197.019 20.7482 197.091 21.1682 197.091ZM31.1807 199.143C30.4727 199.143 29.8547 199.029 29.3267 198.801C28.7987 198.561 28.3547 198.237 27.9947 197.829C27.6347 197.409 27.3467 196.929 27.1307 196.389C26.9147 195.837 26.7587 195.249 26.6627 194.625C26.5667 194.001 26.5187 193.359 26.5187 192.699C26.5187 192.075 26.5667 191.457 26.6627 190.845C26.7587 190.233 26.9087 189.657 27.1127 189.117C27.3287 188.565 27.6167 188.079 27.9767 187.659C28.3367 187.227 28.7747 186.891 29.2907 186.651C29.8187 186.399 30.4367 186.273 31.1447 186.273C31.8287 186.273 32.4227 186.393 32.9267 186.633C33.4427 186.873 33.8747 187.203 34.2227 187.623C34.5827 188.043 34.8707 188.529 35.0867 189.081C35.3027 189.633 35.4587 190.221 35.5547 190.845C35.6507 191.457 35.6987 192.081 35.6987 192.717C35.6987 193.365 35.6507 194.001 35.5547 194.625C35.4587 195.249 35.3027 195.837 35.0867 196.389C34.8707 196.929 34.5827 197.409 34.2227 197.829C33.8747 198.237 33.4487 198.561 32.9447 198.801C32.4407 199.029 31.8527 199.143 31.1807 199.143ZM31.0907 196.947C31.5827 196.947 31.9787 196.845 32.2787 196.641C32.5787 196.425 32.8127 196.149 32.9807 195.813C33.1607 195.477 33.2867 195.117 33.3587 194.733C33.4307 194.349 33.4727 193.989 33.4847 193.653C33.5087 193.305 33.5207 193.023 33.5207 192.807V192.699C33.5207 191.799 33.4307 191.031 33.2507 190.395C33.0707 189.759 32.8007 189.279 32.4407 188.955C32.0927 188.619 31.6547 188.451 31.1267 188.451C30.5747 188.451 30.1187 188.619 29.7587 188.955C29.3987 189.279 29.1287 189.759 28.9487 190.395C28.7807 191.019 28.6967 191.793 28.6967 192.717C28.6967 193.617 28.7867 194.385 28.9667 195.021C29.1467 195.645 29.4107 196.125 29.7587 196.461C30.1187 196.785 30.5627 196.947 31.0907 196.947ZM38.4901 199.017C38.1541 199.017 37.9081 198.963 37.7521 198.855C37.5961 198.759 37.5001 198.627 37.4641 198.459C37.4281 198.291 37.4101 198.111 37.4101 197.919V187.515C37.4101 187.311 37.4281 187.131 37.4641 186.975C37.5121 186.807 37.6081 186.675 37.7521 186.579C37.9081 186.483 38.1601 186.435 38.5081 186.435C38.8441 186.435 39.0841 186.483 39.2281 186.579C39.3841 186.675 39.4801 186.807 39.5161 186.975C39.5641 187.143 39.5881 187.329 39.5881 187.533V191.259L44.1781 186.795C44.3701 186.591 44.5441 186.453 44.7001 186.381C44.8561 186.309 45.0181 186.303 45.1861 186.363C45.3541 186.411 45.5341 186.531 45.7261 186.723C46.0381 187.023 46.1941 187.287 46.1941 187.515C46.1941 187.731 46.0561 187.983 45.7801 188.271L41.0281 192.717L45.8341 197.181C46.1341 197.469 46.2781 197.727 46.2661 197.955C46.2541 198.183 46.0921 198.441 45.7801 198.729C45.5521 198.921 45.3541 199.041 45.1861 199.089C45.0301 199.149 44.8741 199.137 44.7181 199.053C44.5741 198.981 44.4121 198.843 44.2321 198.639L39.5881 194.139V197.937C39.5881 198.129 39.5641 198.309 39.5161 198.477C39.4801 198.645 39.3841 198.777 39.2281 198.873C39.0841 198.969 38.8381 199.017 38.4901 199.017Z"
     fill="black"
     id="path559" />
  <path
     d="M15.5885 119.039C15.5885 119.459 15.5225 119.837 15.3905 120.173C15.2585 120.509 15.0725 120.809 14.8325 121.073C14.5925 121.325 14.2985 121.535 13.9505 121.703C13.6145 121.859 13.2365 121.973 12.8165 122.045V123.269C12.8165 123.449 12.7985 123.611 12.7625 123.755C12.7385 123.911 12.6665 124.031 12.5465 124.115C12.4265 124.199 12.2345 124.241 11.9705 124.241C11.7305 124.241 11.5505 124.193 11.4305 124.097C11.3105 124.013 11.2325 123.893 11.1965 123.737C11.1725 123.593 11.1605 123.437 11.1605 123.269V122.045C10.8365 121.985 10.5245 121.889 10.2245 121.757C9.92445 121.613 9.65445 121.445 9.41445 121.253C9.17445 121.061 8.97045 120.845 8.80245 120.605C8.62245 120.329 8.53245 120.095 8.53245 119.903C8.53245 119.711 8.67045 119.495 8.94645 119.255C9.13845 119.099 9.31845 119.015 9.48645 119.003C9.65445 118.991 9.81045 119.039 9.95445 119.147C10.0985 119.243 10.2305 119.375 10.3505 119.543C10.5545 119.819 10.7885 120.029 11.0525 120.173C11.3165 120.305 11.6105 120.371 11.9345 120.371C12.3185 120.371 12.6425 120.323 12.9065 120.227C13.1705 120.119 13.3685 119.969 13.5005 119.777C13.6325 119.585 13.6985 119.351 13.6985 119.075C13.6985 118.751 13.5665 118.505 13.3025 118.337C13.0385 118.157 12.7025 118.007 12.2945 117.887C11.8865 117.755 11.4725 117.599 11.0525 117.419C10.7525 117.311 10.4645 117.185 10.1885 117.041C9.91245 116.885 9.66645 116.699 9.45045 116.483C9.23445 116.267 9.06045 116.009 8.92845 115.709C8.79645 115.409 8.73045 115.049 8.73045 114.629C8.73045 114.257 8.78445 113.921 8.89245 113.621C9.01245 113.309 9.17445 113.039 9.37845 112.811C9.59445 112.571 9.85245 112.373 10.1525 112.217C10.4525 112.061 10.7885 111.947 11.1605 111.875V110.759C11.1605 110.579 11.1725 110.417 11.1965 110.273C11.2325 110.129 11.3105 110.015 11.4305 109.931C11.5505 109.847 11.7365 109.805 11.9885 109.805C12.2405 109.805 12.4265 109.847 12.5465 109.931C12.6665 110.015 12.7385 110.129 12.7625 110.273C12.7985 110.417 12.8165 110.579 12.8165 110.759V111.857C13.2125 111.917 13.5605 112.031 13.8605 112.199C14.1725 112.367 14.4425 112.565 14.6705 112.793C14.9105 113.009 15.0365 113.195 15.0485 113.351C15.0725 113.507 14.9825 113.723 14.7785 113.999C14.6585 114.179 14.5265 114.311 14.3825 114.395C14.2385 114.467 14.0945 114.485 13.9505 114.449C13.8065 114.413 13.6505 114.335 13.4825 114.215C13.3625 114.095 13.2245 113.987 13.0685 113.891C12.9245 113.795 12.7565 113.717 12.5645 113.657C12.3845 113.597 12.1685 113.567 11.9165 113.567C11.7245 113.567 11.5445 113.597 11.3765 113.657C11.2205 113.705 11.0825 113.777 10.9625 113.873C10.8545 113.969 10.7645 114.083 10.6925 114.215C10.6325 114.347 10.6025 114.491 10.6025 114.647C10.6025 114.923 10.6985 115.145 10.8905 115.313C11.0945 115.481 11.3585 115.619 11.6825 115.727C12.0065 115.823 12.3545 115.925 12.7265 116.033C13.0625 116.141 13.3985 116.261 13.7345 116.393C14.0705 116.525 14.3765 116.705 14.6525 116.933C14.9405 117.149 15.1685 117.425 15.3365 117.761C15.5045 118.097 15.5885 118.523 15.5885 119.039ZM18.3062 122.999C18.1262 122.999 17.9582 122.975 17.8022 122.927C17.6582 122.891 17.5382 122.795 17.4422 122.639C17.3582 122.483 17.3162 122.237 17.3162 121.901C17.3162 121.565 17.3642 121.325 17.4602 121.181C17.5682 121.025 17.7062 120.929 17.8742 120.893C18.0422 120.845 18.2282 120.821 18.4322 120.821C19.0202 120.821 19.5482 120.749 20.0162 120.605C20.4962 120.449 20.9102 120.239 21.2582 119.975C21.6182 119.699 21.9182 119.393 22.1582 119.057C22.3982 118.709 22.5782 118.349 22.6982 117.977C22.8182 117.593 22.8842 117.215 22.8962 116.843L23.1662 116.753C23.0942 116.945 22.9442 117.131 22.7162 117.311C22.5002 117.491 22.2302 117.641 21.9062 117.761C21.5822 117.869 21.2222 117.923 20.8262 117.923C20.0822 117.923 19.4162 117.761 18.8282 117.437C18.2402 117.113 17.7782 116.675 17.4422 116.123C17.1182 115.559 16.9562 114.935 16.9562 114.251C16.9562 113.483 17.1242 112.799 17.4602 112.199C17.7962 111.599 18.2642 111.131 18.8642 110.795C19.4762 110.447 20.1782 110.273 20.9702 110.273C21.8702 110.273 22.6382 110.471 23.2742 110.867C23.9222 111.251 24.4142 111.821 24.7502 112.577C25.0982 113.321 25.2722 114.233 25.2722 115.313C25.2722 116.237 25.1642 117.095 24.9482 117.887C24.7322 118.679 24.4202 119.393 24.0122 120.029C23.6162 120.653 23.1302 121.187 22.5542 121.631C21.9902 122.075 21.3482 122.417 20.6282 122.657C19.9202 122.885 19.1462 122.999 18.3062 122.999ZM20.9342 115.961C21.3662 115.961 21.7322 115.889 22.0322 115.745C22.3442 115.589 22.5782 115.379 22.7342 115.115C22.9022 114.839 22.9862 114.533 22.9862 114.197C22.9862 113.801 22.9082 113.465 22.7522 113.189C22.6082 112.901 22.3922 112.679 22.1042 112.523C21.8282 112.367 21.4742 112.289 21.0422 112.289C20.6222 112.289 20.2622 112.367 19.9622 112.523C19.6742 112.667 19.4522 112.877 19.2962 113.153C19.1522 113.429 19.0802 113.759 19.0802 114.143C19.0802 114.491 19.1522 114.803 19.2962 115.079C19.4522 115.355 19.6682 115.571 19.9442 115.727C20.2202 115.883 20.5502 115.961 20.9342 115.961ZM31.1807 123.143C30.4727 123.143 29.8547 123.029 29.3267 122.801C28.7987 122.561 28.3547 122.237 27.9947 121.829C27.6347 121.409 27.3467 120.929 27.1307 120.389C26.9147 119.837 26.7587 119.249 26.6627 118.625C26.5667 118.001 26.5187 117.359 26.5187 116.699C26.5187 116.075 26.5667 115.457 26.6627 114.845C26.7587 114.233 26.9087 113.657 27.1127 113.117C27.3287 112.565 27.6167 112.079 27.9767 111.659C28.3367 111.227 28.7747 110.891 29.2907 110.651C29.8187 110.399 30.4367 110.273 31.1447 110.273C31.8287 110.273 32.4227 110.393 32.9267 110.633C33.4427 110.873 33.8747 111.203 34.2227 111.623C34.5827 112.043 34.8707 112.529 35.0867 113.081C35.3027 113.633 35.4587 114.221 35.5547 114.845C35.6507 115.457 35.6987 116.081 35.6987 116.717C35.6987 117.365 35.6507 118.001 35.5547 118.625C35.4587 119.249 35.3027 119.837 35.0867 120.389C34.8707 120.929 34.5827 121.409 34.2227 121.829C33.8747 122.237 33.4487 122.561 32.9447 122.801C32.4407 123.029 31.8527 123.143 31.1807 123.143ZM31.0907 120.947C31.5827 120.947 31.9787 120.845 32.2787 120.641C32.5787 120.425 32.8127 120.149 32.9807 119.813C33.1607 119.477 33.2867 119.117 33.3587 118.733C33.4307 118.349 33.4727 117.989 33.4847 117.653C33.5087 117.305 33.5207 117.023 33.5207 116.807V116.699C33.5207 115.799 33.4307 115.031 33.2507 114.395C33.0707 113.759 32.8007 113.279 32.4407 112.955C32.0927 112.619 31.6547 112.451 31.1267 112.451C30.5747 112.451 30.1187 112.619 29.7587 112.955C29.3987 113.279 29.1287 113.759 28.9487 114.395C28.7807 115.019 28.6967 115.793 28.6967 116.717C28.6967 117.617 28.7867 118.385 28.9667 119.021C29.1467 119.645 29.4107 120.125 29.7587 120.461C30.1187 120.785 30.5627 120.947 31.0907 120.947ZM38.4901 123.017C38.1541 123.017 37.9081 122.963 37.7521 122.855C37.5961 122.759 37.5001 122.627 37.4641 122.459C37.4281 122.291 37.4101 122.111 37.4101 121.919V111.515C37.4101 111.311 37.4281 111.131 37.4641 110.975C37.5121 110.807 37.6081 110.675 37.7521 110.579C37.9081 110.483 38.1601 110.435 38.5081 110.435C38.8441 110.435 39.0841 110.483 39.2281 110.579C39.3841 110.675 39.4801 110.807 39.5161 110.975C39.5641 111.143 39.5881 111.329 39.5881 111.533V115.259L44.1781 110.795C44.3701 110.591 44.5441 110.453 44.7001 110.381C44.8561 110.309 45.0181 110.303 45.1861 110.363C45.3541 110.411 45.5341 110.531 45.7261 110.723C46.0381 111.023 46.1941 111.287 46.1941 111.515C46.1941 111.731 46.0561 111.983 45.7801 112.271L41.0281 116.717L45.8341 121.181C46.1341 121.469 46.2781 121.727 46.2661 121.955C46.2541 122.183 46.0921 122.441 45.7801 122.729C45.5521 122.921 45.3541 123.041 45.1861 123.089C45.0301 123.149 44.8741 123.137 44.7181 123.053C44.5741 122.981 44.4121 122.843 44.2321 122.639L39.5881 118.139V121.937C39.5881 122.129 39.5641 122.309 39.5161 122.477C39.4801 122.645 39.3841 122.777 39.2281 122.873C39.0841 122.969 38.8381 123.017 38.4901 123.017Z"
     fill="black"
     id="path561" />
  <path
     d="M7.60798 43.0392C7.60798 43.4592 7.54198 43.8372 7.40998 44.1732C7.27798 44.5092 7.09198 44.8092 6.85198 45.0732C6.61198 45.3252 6.31798 45.5352 5.96998 45.7032C5.63398 45.8592 5.25598 45.9732 4.83598 46.0452V47.2692C4.83598 47.4492 4.81798 47.6112 4.78198 47.7552C4.75798 47.9112 4.68598 48.0312 4.56598 48.1152C4.44598 48.1992 4.25398 48.2412 3.98998 48.2412C3.74998 48.2412 3.56998 48.1932 3.44998 48.0972C3.32998 48.0132 3.25198 47.8932 3.21598 47.7372C3.19198 47.5932 3.17998 47.4372 3.17998 47.2692V46.0452C2.85598 45.9852 2.54398 45.8892 2.24398 45.7572C1.94398 45.6132 1.67398 45.4452 1.43398 45.2532C1.19398 45.0612 0.989984 44.8452 0.821984 44.6052C0.641984 44.3292 0.551984 44.0952 0.551984 43.9032C0.551984 43.7112 0.689984 43.4952 0.965984 43.2552C1.15798 43.0992 1.33798 43.0152 1.50598 43.0032C1.67398 42.9912 1.82998 43.0392 1.97398 43.1472C2.11798 43.2432 2.24998 43.3752 2.36998 43.5432C2.57398 43.8192 2.80798 44.0292 3.07198 44.1732C3.33598 44.3052 3.62998 44.3712 3.95398 44.3712C4.33798 44.3712 4.66198 44.3232 4.92598 44.2272C5.18998 44.1192 5.38798 43.9692 5.51998 43.7772C5.65198 43.5852 5.71798 43.3512 5.71798 43.0752C5.71798 42.7512 5.58598 42.5052 5.32198 42.3372C5.05798 42.1572 4.72198 42.0072 4.31398 41.8872C3.90598 41.7552 3.49198 41.5992 3.07198 41.4192C2.77198 41.3112 2.48398 41.1852 2.20798 41.0412C1.93198 40.8852 1.68598 40.6992 1.46998 40.4832C1.25398 40.2672 1.07998 40.0092 0.947984 39.7092C0.815984 39.4092 0.749984 39.0492 0.749984 38.6292C0.749984 38.2572 0.803984 37.9212 0.911984 37.6212C1.03198 37.3092 1.19398 37.0392 1.39798 36.8112C1.61398 36.5712 1.87198 36.3732 2.17198 36.2172C2.47198 36.0612 2.80798 35.9472 3.17998 35.8752V34.7592C3.17998 34.5792 3.19198 34.4172 3.21598 34.2732C3.25198 34.1292 3.32998 34.0152 3.44998 33.9312C3.56998 33.8472 3.75598 33.8052 4.00798 33.8052C4.25998 33.8052 4.44598 33.8472 4.56598 33.9312C4.68598 34.0152 4.75798 34.1292 4.78198 34.2732C4.81798 34.4172 4.83598 34.5792 4.83598 34.7592V35.8572C5.23198 35.9172 5.57998 36.0312 5.87998 36.1992C6.19198 36.3672 6.46198 36.5652 6.68998 36.7932C6.92998 37.0092 7.05598 37.1952 7.06798 37.3512C7.09198 37.5072 7.00198 37.7232 6.79798 37.9992C6.67798 38.1792 6.54598 38.3112 6.40198 38.3952C6.25798 38.4672 6.11398 38.4852 5.96998 38.4492C5.82598 38.4132 5.66998 38.3352 5.50198 38.2152C5.38198 38.0952 5.24398 37.9872 5.08798 37.8912C4.94398 37.7952 4.77598 37.7172 4.58398 37.6572C4.40398 37.5972 4.18798 37.5672 3.93598 37.5672C3.74398 37.5672 3.56398 37.5972 3.39598 37.6572C3.23998 37.7052 3.10198 37.7772 2.98198 37.8732C2.87398 37.9692 2.78398 38.0832 2.71198 38.2152C2.65198 38.3472 2.62198 38.4912 2.62198 38.6472C2.62198 38.9232 2.71798 39.1452 2.90998 39.3132C3.11398 39.4812 3.37798 39.6192 3.70198 39.7272C4.02598 39.8232 4.37398 39.9252 4.74598 40.0332C5.08198 40.1412 5.41798 40.2612 5.75398 40.3932C6.08998 40.5252 6.39598 40.7052 6.67198 40.9332C6.95998 41.1492 7.18798 41.4252 7.35598 41.7612C7.52398 42.0972 7.60798 42.5232 7.60798 43.0392ZM13.4937 47.0352C13.0977 47.0352 12.8217 46.9572 12.6657 46.8012C12.5097 46.6332 12.4317 46.3452 12.4317 45.9372V35.4972C12.4317 35.1012 12.5097 34.8252 12.6657 34.6692C12.8217 34.5132 13.1037 34.4352 13.5117 34.4352C13.9077 34.4352 14.1837 34.5192 14.3397 34.6872C14.4957 34.8432 14.5737 35.1252 14.5737 35.5332V45.9552C14.5737 46.3512 14.4957 46.6332 14.3397 46.8012C14.1837 46.9572 13.9017 47.0352 13.4937 47.0352ZM10.7217 39.1332C10.4457 39.3852 10.1997 39.5112 9.9837 39.5112C9.7677 39.4992 9.5277 39.3492 9.2637 39.0612C9.0117 38.7852 8.8917 38.5272 8.9037 38.2872C8.9277 38.0472 9.0957 37.7892 9.4077 37.5132L12.4857 34.7952C12.7617 34.5552 13.0077 34.4472 13.2237 34.4712C13.4517 34.4832 13.6917 34.6272 13.9437 34.9032C14.2077 35.1792 14.3277 35.4372 14.3037 35.6772C14.2797 35.9172 14.1057 36.1752 13.7817 36.4512L10.7217 39.1332ZM17.0342 46.9272C16.7582 46.9272 16.5062 46.8192 16.2782 46.6032C16.0622 46.3752 15.9542 46.1112 15.9542 45.8112C15.9542 45.6192 15.9662 45.4332 15.9902 45.2532C16.0142 45.0732 16.0682 44.8992 16.1522 44.7312C16.2362 44.5632 16.3622 44.4012 16.5302 44.2452C17.0822 43.7892 17.6402 43.3692 18.2042 42.9852C18.7802 42.6012 19.3322 42.2352 19.8602 41.8872C20.3882 41.5392 20.8622 41.1912 21.2822 40.8432C21.7022 40.4832 22.0322 40.1112 22.2722 39.7272C22.5122 39.3312 22.6322 38.9052 22.6322 38.4492C22.6322 38.0772 22.5542 37.7412 22.3982 37.4412C22.2542 37.1412 22.0202 36.9012 21.6962 36.7212C21.3722 36.5412 20.9402 36.4512 20.4002 36.4512C20.0282 36.4512 19.6982 36.5052 19.4102 36.6132C19.1342 36.7212 18.9002 36.8772 18.7082 37.0812C18.5282 37.2852 18.3842 37.5372 18.2762 37.8372C18.1802 38.1252 18.1322 38.4552 18.1322 38.8272C18.1322 39.0312 18.1142 39.2112 18.0782 39.3672C18.0422 39.5232 17.9462 39.6492 17.7902 39.7452C17.6462 39.8292 17.3942 39.8712 17.0342 39.8712C16.6742 39.8712 16.4162 39.8172 16.2602 39.7092C16.1162 39.6012 16.0262 39.4572 15.9902 39.2772C15.9662 39.0852 15.9542 38.8872 15.9542 38.6832C15.9542 38.0832 16.0502 37.5192 16.2422 36.9912C16.4462 36.4512 16.7402 35.9832 17.1242 35.5872C17.5082 35.1792 17.9702 34.8612 18.5102 34.6332C19.0622 34.3932 19.6862 34.2732 20.3822 34.2732C21.2582 34.2732 22.0262 34.4532 22.6862 34.8132C23.3582 35.1732 23.8802 35.6772 24.2522 36.3252C24.6362 36.9732 24.8282 37.7472 24.8282 38.6472C24.8282 39.1152 24.7562 39.5532 24.6122 39.9612C24.4682 40.3692 24.2702 40.7532 24.0182 41.1132C23.7662 41.4612 23.4722 41.7852 23.1362 42.0852C22.8122 42.3852 22.4582 42.6732 22.0742 42.9492C21.7022 43.2132 21.3242 43.4652 20.9402 43.7052C20.5562 43.9332 20.1842 44.1552 19.8242 44.3712L19.1402 44.7312H24.2522C24.4562 44.7312 24.6422 44.7552 24.8102 44.8032C24.9782 44.8392 25.1042 44.9352 25.1882 45.0912C25.2842 45.2472 25.3322 45.4992 25.3322 45.8472C25.3322 46.1832 25.2842 46.4292 25.1882 46.5852C25.0922 46.7412 24.9602 46.8372 24.7922 46.8732C24.6242 46.9092 24.4322 46.9272 24.2162 46.9272H17.0342ZM31.1807 47.1432C30.4727 47.1432 29.8547 47.0292 29.3267 46.8012C28.7987 46.5612 28.3547 46.2372 27.9947 45.8292C27.6347 45.4092 27.3467 44.9292 27.1307 44.3892C26.9147 43.8372 26.7587 43.2492 26.6627 42.6252C26.5667 42.0012 26.5187 41.3592 26.5187 40.6992C26.5187 40.0752 26.5667 39.4572 26.6627 38.8452C26.7587 38.2332 26.9087 37.6572 27.1127 37.1172C27.3287 36.5652 27.6167 36.0792 27.9767 35.6592C28.3367 35.2272 28.7747 34.8912 29.2907 34.6512C29.8187 34.3992 30.4367 34.2732 31.1447 34.2732C31.8287 34.2732 32.4227 34.3932 32.9267 34.6332C33.4427 34.8732 33.8747 35.2032 34.2227 35.6232C34.5827 36.0432 34.8707 36.5292 35.0867 37.0812C35.3027 37.6332 35.4587 38.2212 35.5547 38.8452C35.6507 39.4572 35.6987 40.0812 35.6987 40.7172C35.6987 41.3652 35.6507 42.0012 35.5547 42.6252C35.4587 43.2492 35.3027 43.8372 35.0867 44.3892C34.8707 44.9292 34.5827 45.4092 34.2227 45.8292C33.8747 46.2372 33.4487 46.5612 32.9447 46.8012C32.4407 47.0292 31.8527 47.1432 31.1807 47.1432ZM31.0907 44.9472C31.5827 44.9472 31.9787 44.8452 32.2787 44.6412C32.5787 44.4252 32.8127 44.1492 32.9807 43.8132C33.1607 43.4772 33.2867 43.1172 33.3587 42.7332C33.4307 42.3492 33.4727 41.9892 33.4847 41.6532C33.5087 41.3052 33.5207 41.0232 33.5207 40.8072V40.6992C33.5207 39.7992 33.4307 39.0312 33.2507 38.3952C33.0707 37.7592 32.8007 37.2792 32.4407 36.9552C32.0927 36.6192 31.6547 36.4512 31.1267 36.4512C30.5747 36.4512 30.1187 36.6192 29.7587 36.9552C29.3987 37.2792 29.1287 37.7592 28.9487 38.3952C28.7807 39.0192 28.6967 39.7932 28.6967 40.7172C28.6967 41.6172 28.7867 42.3852 28.9667 43.0212C29.1467 43.6452 29.4107 44.1252 29.7587 44.4612C30.1187 44.7852 30.5627 44.9472 31.0907 44.9472ZM38.4901 47.0172C38.1541 47.0172 37.9081 46.9632 37.7521 46.8552C37.5961 46.7592 37.5001 46.6272 37.4641 46.4592C37.4281 46.2912 37.4101 46.1112 37.4101 45.9192V35.5152C37.4101 35.3112 37.4281 35.1312 37.4641 34.9752C37.5121 34.8072 37.6081 34.6752 37.7521 34.5792C37.9081 34.4832 38.1601 34.4352 38.5081 34.4352C38.8441 34.4352 39.0841 34.4832 39.2281 34.5792C39.3841 34.6752 39.4801 34.8072 39.5161 34.9752C39.5641 35.1432 39.5881 35.3292 39.5881 35.5332V39.2592L44.1781 34.7952C44.3701 34.5912 44.5441 34.4532 44.7001 34.3812C44.8561 34.3092 45.0181 34.3032 45.1861 34.3632C45.3541 34.4112 45.5341 34.5312 45.7261 34.7232C46.0381 35.0232 46.1941 35.2872 46.1941 35.5152C46.1941 35.7312 46.0561 35.9832 45.7801 36.2712L41.0281 40.7172L45.8341 45.1812C46.1341 45.4692 46.2781 45.7272 46.2661 45.9552C46.2541 46.1832 46.0921 46.4412 45.7801 46.7292C45.5521 46.9212 45.3541 47.0412 45.1861 47.0892C45.0301 47.1492 44.8741 47.1372 44.7181 47.0532C44.5741 46.9812 44.4121 46.8432 44.2321 46.6392L39.5881 42.1392V45.9372C39.5881 46.1292 39.5641 46.3092 39.5161 46.4772C39.4801 46.6452 39.3841 46.7772 39.2281 46.8732C39.0841 46.9692 38.8381 47.0172 38.4901 47.0172Z"
     fill="black"
     id="path563" />
  <path
     d="M475.621 335.088C472.523 335.088 470 332.566 470 329.463C470 326.36 472.52 323.837 475.621 323.837C478.721 323.837 481.241 326.36 481.241 329.463C481.241 332.566 478.721 335.088 475.621 335.088ZM475.621 326.088C473.762 326.088 472.249 327.603 472.249 329.463C472.249 331.323 473.762 332.837 475.621 332.837C477.479 332.837 478.992 331.323 478.992 329.463C478.992 327.603 477.479 326.088 475.621 326.088Z"
     fill="#65AEDE"
     id="path565" />
  <path
     d="M334.621 259.088C331.523 259.088 329 256.566 329 253.463C329 250.36 331.52 247.837 334.621 247.837C337.721 247.837 340.241 250.36 340.241 253.463C340.241 256.566 337.721 259.088 334.621 259.088ZM334.621 250.088C332.762 250.088 331.249 251.603 331.249 253.463C331.249 255.323 332.762 256.837 334.621 256.837C336.479 256.837 337.992 255.323 337.992 253.463C337.992 251.603 336.479 250.088 334.621 250.088Z"
     fill="#65AEDE"
     id="path567" />
  <path
     d="M296.621 276.088C293.523 276.088 291 273.566 291 270.463C291 267.36 293.52 264.837 296.621 264.837C299.721 264.837 302.241 267.36 302.241 270.463C302.241 273.566 299.721 276.088 296.621 276.088ZM296.621 267.088C294.762 267.088 293.249 268.603 293.249 270.463C293.249 272.323 294.762 273.837 296.621 273.837C298.479 273.837 299.992 272.323 299.992 270.463C299.992 268.603 298.479 267.088 296.621 267.088Z"
     fill="#65AEDE"
     id="path569" />
  <path
     d="M555.34 300.535C549.638 300.535 545 295.891 545 290.186C545 284.481 549.638 279.837 555.34 279.837C561.042 279.837 565.679 284.481 565.679 290.186C565.679 295.891 561.039 300.535 555.34 300.535ZM555.34 282.535C551.124 282.535 547.695 285.967 547.695 290.186C547.695 294.405 551.124 297.837 555.34 297.837C559.555 297.837 562.984 294.405 562.984 290.186C562.984 285.967 559.555 282.535 555.34 282.535Z"
     fill="#65AEDE"
     id="path571" />
  <path
     d="M180.34 258.535C174.638 258.535 170 253.891 170 248.186C170 242.481 174.638 237.837 180.34 237.837C186.042 237.837 190.679 242.481 190.679 248.186C190.679 253.891 186.039 258.535 180.34 258.535ZM180.34 240.535C176.124 240.535 172.695 243.967 172.695 248.186C172.695 252.405 176.124 255.837 180.34 255.837C184.555 255.837 187.984 252.405 187.984 248.186C187.984 243.967 184.555 240.535 180.34 240.535Z"
     fill="#65AEDE"
     id="path573" />
  <path
     d="M841.34 309.535C835.638 309.535 831 304.891 831 299.186C831 293.481 835.64 288.837 841.34 288.837C847.039 288.837 851.679 293.481 851.679 299.186C851.679 304.891 847.039 309.535 841.34 309.535ZM841.34 291.535C837.127 291.535 833.698 294.967 833.698 299.186C833.698 303.405 837.127 306.837 841.34 306.837C845.553 306.837 848.982 303.405 848.982 299.186C848.982 294.967 845.553 291.535 841.34 291.535Z"
     fill="#65AEDE"
     id="path575" />
  <path
     d="M379.34 333.535C373.638 333.535 369 328.891 369 323.186C369 317.481 373.64 312.837 379.34 312.837C385.039 312.837 389.679 317.481 389.679 323.186C389.679 328.891 385.039 333.535 379.34 333.535ZM379.34 315.535C375.127 315.535 371.698 318.967 371.698 323.186C371.698 327.405 375.127 330.837 379.34 330.837C383.553 330.837 386.982 327.405 386.982 323.186C386.982 318.967 383.553 315.535 379.34 315.535Z"
     fill="#65AEDE"
     id="path577" />
  <path
     d="M955.621 224.088C952.523 224.088 950 221.566 950 218.463C950 215.36 952.523 212.837 955.621 212.837C958.719 212.837 961.241 215.36 961.241 218.463C961.241 221.566 958.721 224.088 955.621 224.088ZM955.621 215.088C953.762 215.088 952.249 216.603 952.249 218.463C952.249 220.323 953.762 221.837 955.621 221.837C957.479 221.837 958.992 220.323 958.992 218.463C958.992 216.603 957.479 215.088 955.621 215.088Z"
     fill="#65AEDE"
     id="path579" />
  <path
     d="M915.007 321.247C911.909 321.247 909.386 318.724 909.386 315.621C909.386 312.518 911.909 309.996 915.007 309.996C918.105 309.996 920.628 312.518 920.628 315.621C920.628 318.724 918.107 321.247 915.007 321.247ZM915.007 312.247C913.149 312.247 911.635 313.761 911.635 315.621C911.635 317.481 913.149 318.996 915.007 318.996C916.865 318.996 918.378 317.481 918.378 315.621C918.378 313.761 916.865 312.247 915.007 312.247Z"
     fill="#65AEDE"
     id="path581" />
  <path
     d="M214.621 335.088C211.523 335.088 209 332.566 209 329.463C209 326.36 211.523 323.837 214.621 323.837C217.719 323.837 220.241 326.36 220.241 329.463C220.241 332.566 217.721 335.088 214.621 335.088ZM214.621 326.088C212.762 326.088 211.249 327.603 211.249 329.463C211.249 331.323 212.762 332.837 214.621 332.837C216.479 332.837 217.992 331.323 217.992 329.463C217.992 327.603 216.479 326.088 214.621 326.088Z"
     fill="#65AEDE"
     id="path583" />
  <path
     d="M690.621 270.088C687.523 270.088 685 267.566 685 264.463C685 261.36 687.523 258.837 690.621 258.837C693.719 258.837 696.241 261.36 696.241 264.463C696.241 267.566 693.721 270.088 690.621 270.088ZM690.621 261.088C688.762 261.088 687.249 262.603 687.249 264.463C687.249 266.323 688.762 267.837 690.621 267.837C692.479 267.837 693.992 266.323 693.992 264.463C693.992 262.603 692.479 261.088 690.621 261.088Z"
     fill="#65AEDE"
     id="path585" />
  <path
     d="M128.621 310.088C125.523 310.088 123 307.566 123 304.463C123 301.36 125.523 298.837 128.621 298.837C131.719 298.837 134.241 301.36 134.241 304.463C134.241 307.566 131.721 310.088 128.621 310.088ZM128.621 301.088C126.762 301.088 125.249 302.603 125.249 304.463C125.249 306.323 126.762 307.837 128.621 307.837C130.479 307.837 131.992 306.323 131.992 304.463C131.992 302.603 130.479 301.088 128.621 301.088Z"
     fill="#65AEDE"
     id="path587" />
  <path
     d="M997 349.837L63 349.837L63 33.8372"
     stroke="black"
     stroke-width="2"
     id="path589" />
  <path
     d="M622.621 338.088C619.523 338.088 617 335.566 617 332.463C617 329.36 619.523 326.837 622.621 326.837C625.719 326.837 628.241 329.36 628.241 332.463C628.241 335.566 625.721 338.088 622.621 338.088ZM622.621 329.088C620.762 329.088 619.249 330.603 619.249 332.463C619.249 334.323 620.762 335.837 622.621 335.837C624.479 335.837 625.992 334.323 625.992 332.463C625.992 330.603 624.479 329.088 622.621 329.088Z"
     fill="#65AEDE"
     id="path591" />
  <path
     d="M799.621 244.088C796.523 244.088 794 241.566 794 238.463C794 235.36 796.52 232.837 799.621 232.837C802.721 232.837 805.241 235.36 805.241 238.463C805.241 241.566 802.721 244.088 799.621 244.088ZM799.621 235.088C797.762 235.088 796.249 236.603 796.249 238.463C796.249 240.323 797.762 241.837 799.621 241.837C801.479 241.837 802.992 240.323 802.992 238.463C802.992 236.603 801.479 235.088 799.621 235.088Z"
     fill="#65AEDE"
     id="path593" />
  <g
     style="mix-blend-mode:screen"
     id="g601">
    <path
       d="M961.586 179.068C957.527 178.186 953.761 176.434 950.019 174.005C940.418 167.794 930.843 162.078 920.201 166.658C909.184 171.407 898.334 181.412 887 180.881C894.384 183.31 901.134 180.724 908.751 176.712C915.793 172.99 922.668 170.803 930.176 172.156C943.302 174.512 959.002 190.173 971.778 178.778C968.378 179.153 964.944 179.805 961.594 179.068H961.586Z"
       fill="#7BBBE7"
       id="path599" />
  </g>
  <defs
     id="defs610">
    <linearGradient
       id="paint0_linear_8129_1136"
       x1="63"
       y1="208.337"
       x2="997"
       y2="208.337"
       gradientUnits="userSpaceOnUse">
      <stop
         stop-color="#79DCFF"
         id="stop603" />
      <stop
         offset="0.950749"
         stop-color="#5BE4FF"
         id="stop605" />
      <stop
         offset="1"
         stop-color="#5BE4FF"
         stop-opacity="0"
         id="stop607" />
    </linearGradient>
  </defs>
</svg>
