<svg width="145" height="22" viewBox="0 0 145 22" fill="none" xmlns="http://www.w3.org/2000/svg">
<ellipse cx="92.9974" cy="11" rx="11" ry="11" fill="#F3BA2F"/>
<path d="M90.3273 9.90275L92.9976 7.2325L95.6692 9.90413L97.2229 8.35038L92.9976 4.125L88.7736 8.349L90.3273 9.90275ZM86.1226 11L87.6763 9.44625L89.2301 11L87.6763 12.5538L86.1226 11ZM90.3273 12.0973L92.9976 14.7675L95.6692 12.0959L97.2229 13.6489L92.9976 17.875L88.7736 13.651L88.7715 13.6489L90.3273 12.0973ZM96.7651 11L98.3188 9.44625L99.8726 11L98.3188 12.5538L96.7651 11ZM94.5733 10.9986H94.5747V11L92.9976 12.5771L91.4225 11.0027L91.4197 11L91.4225 10.9979L91.6982 10.7216L91.8322 10.5875L92.9976 9.42288L94.574 10.9993L94.5733 10.9986Z" fill="white"/>
<path d="M133.997 22C140.073 22 144.997 17.0751 144.997 11C144.997 4.92487 140.073 0 133.997 0C127.922 0 122.997 4.92487 122.997 11C122.997 17.0751 127.922 22 133.997 22Z" fill="#627EEA"/>
<path d="M134.341 2.75V8.84813L139.495 11.1513L134.341 2.75Z" fill="white" fill-opacity="0.602"/>
<path d="M134.34 2.75L129.185 11.1513L134.34 8.84813V2.75Z" fill="white"/>
<path d="M134.341 15.1036V19.2471L139.499 12.1116L134.341 15.1036Z" fill="white" fill-opacity="0.602"/>
<path d="M134.34 19.2471V15.1029L129.185 12.1116L134.34 19.2471Z" fill="white"/>
<path d="M134.341 14.1441L139.495 11.1514L134.341 8.84966V14.1441Z" fill="white" fill-opacity="0.2"/>
<path d="M129.185 11.1514L134.34 14.1441V8.84966L129.185 11.1514Z" fill="white" fill-opacity="0.602"/>
<path d="M11 22C17.0751 22 22 17.0751 22 11C22 4.92487 17.0751 0 11 0C4.92487 0 0 4.92487 0 11C0 17.0751 4.92487 22 11 22Z" fill="#26A17B"/>
<path fill-rule="evenodd" clip-rule="evenodd" d="M12.3203 11.9511V11.9497C12.2447 11.9552 11.8549 11.9786 10.9852 11.9786C10.2908 11.9786 9.80201 11.958 9.63014 11.9497V11.9518C6.95714 11.8342 4.96201 11.3688 4.96201 10.8119C4.96201 10.2557 6.95714 9.79029 9.63014 9.67067V11.4884C9.80476 11.5008 10.3053 11.5304 10.9969 11.5304C11.8267 11.5304 12.2426 11.496 12.3203 11.4891V9.67204C14.9878 9.79098 16.9781 10.2564 16.9781 10.8119C16.9781 11.3688 14.9878 11.8329 12.3203 11.9511ZM12.3203 9.48298V7.85635H16.0425V5.37585H5.90801V7.85635H9.63014V9.48229C6.60514 9.62117 4.3302 10.2207 4.3302 10.9384C4.3302 11.6562 6.60514 12.255 9.63014 12.3945V17.6072H12.3203V12.3932C15.3405 12.2543 17.61 11.6555 17.61 10.9384C17.61 10.2214 15.3405 9.62254 12.3203 9.48298Z" fill="white"/>
<path d="M62.6682 13.661C61.1991 19.5539 55.2306 23.1402 49.337 21.6707C43.4459 20.2015 39.8596 14.2327 41.3295 8.34018C42.798 2.44665 48.7664 -1.14 54.6582 0.32917C60.5514 1.79834 64.1374 7.76784 62.6682 13.661Z" fill="#F7931A"/>
<path d="M56.8483 9.43288C57.0672 7.9692 55.9528 7.18237 54.429 6.65747L54.9233 4.67474L53.7164 4.37396L53.2351 6.30444C52.9179 6.22538 52.592 6.15078 52.2682 6.07688L52.7529 4.13368L51.5467 3.8329L51.052 5.81494C50.7894 5.75513 50.5316 5.69601 50.2813 5.63379L50.2827 5.6276L48.6183 5.21201L48.2972 6.50106C48.2972 6.50106 49.1927 6.70628 49.1738 6.719C49.6626 6.84103 49.7509 7.16449 49.7361 7.42093L49.1731 9.67969C49.2068 9.68828 49.2504 9.70065 49.2985 9.7199C49.2583 9.70993 49.2154 9.69894 49.171 9.68828L48.3818 12.8525C48.322 13.001 48.1704 13.2237 47.8287 13.1392C47.8407 13.1567 46.9514 12.9202 46.9514 12.9202L46.3523 14.3017L47.9229 14.6932C48.2151 14.7664 48.5014 14.8431 48.7833 14.9153L48.2838 16.9207L49.4893 17.2215L49.984 15.2374C50.3133 15.3268 50.633 15.4093 50.9458 15.4869L50.4528 17.4618L51.6597 17.7625L52.1592 15.7609C54.2172 16.1504 55.7648 15.9933 56.4162 14.1319C56.9411 12.6332 56.39 11.7686 55.3072 11.2049C56.0958 11.023 56.6898 10.5043 56.8483 9.43288ZM54.0907 13.2997C53.7178 14.7984 51.1943 13.9882 50.3762 13.785L51.0389 11.1282C51.8571 11.3324 54.4805 11.7367 54.0907 13.2997ZM54.464 9.41122C54.1237 10.7745 52.0234 10.0819 51.3421 9.91206L51.943 7.50239C52.6243 7.67221 54.8184 7.98914 54.464 9.41122Z" fill="white"/>
</svg>
