<svg width="15" height="14" viewBox="0 0 15 14" fill="none" xmlns="http://www.w3.org/2000/svg">
<path d="M13.1532 12.2089C13.1532 11.7445 12.7774 11.3687 12.313 11.3687H2.68726C2.22285 11.3687 1.84705 11.7445 1.84705 12.2089C1.84705 12.6733 2.22285 13.0491 2.68726 13.0491H12.313C12.7774 13.0491 13.1532 12.6717 13.1532 12.2089Z" fill="black"/>
<path d="M0.999055 5.40789C1.0128 5.40789 1.02503 5.40789 1.03877 5.40637L2.37089 10.2276H7.50075H12.6291L13.9612 5.40637C13.9749 5.40637 13.9872 5.40789 14.0009 5.40789C14.5524 5.40789 15 4.96029 15 4.40881C15 3.85733 14.5524 3.40972 14.0009 3.40972C13.4494 3.40972 13.0018 3.85733 13.0018 4.40881C13.0018 4.51574 13.0186 4.61962 13.0507 4.71587L10.6416 6.12436L8.05223 1.83166C8.32111 1.65292 8.49985 1.34586 8.49985 0.999085C8.49985 0.447603 8.05223 0 7.50076 0C6.9493 0 6.50168 0.447603 6.50168 0.999085C6.50168 1.34739 6.6789 1.65292 6.9493 1.83166L4.35992 6.12436L1.95081 4.71587C1.98137 4.61962 1.9997 4.51574 1.9997 4.40881C1.9997 3.85733 1.5521 3.40972 1.00061 3.40972C0.447602 3.40972 0 3.85733 0 4.40881C0 4.96029 0.447572 5.40789 0.999055 5.40789Z" fill="black"/>
</svg>
