<svg width="201" height="46" viewBox="0 0 201 46" fill="none" xmlns="http://www.w3.org/2000/svg">
<path fill-rule="evenodd" clip-rule="evenodd" d="M46.5179 22.6895C46.5252 26.8192 45.3728 30.8719 43.1864 34.4067L39.4413 29.285C40.3381 27.1966 40.7983 24.9542 40.7951 22.6895C40.795 21.5385 40.677 20.3904 40.443 19.2624C40.4204 19.1551 40.3977 19.051 40.3719 18.9469V18.909C40.3428 18.7954 40.317 18.6786 40.2846 18.565C40.2523 18.4514 40.2394 18.3788 40.2135 18.2904C40.1554 18.0822 40.0971 17.8707 40.0294 17.6593L39.9712 17.4731L39.9421 17.3816C39.8774 17.1922 39.8097 17.0029 39.7385 16.8104C39.69 16.6779 39.6384 16.5485 39.5867 16.4191C39.5349 16.2897 39.48 16.1603 39.425 16.0341C39.3701 15.9078 39.312 15.7784 39.2539 15.6522C39.1376 15.3998 39.0147 15.1505 38.8822 14.9043C38.8305 14.797 38.7723 14.6866 38.7109 14.5888C38.7109 14.5888 38.6948 14.5636 38.6883 14.5478C38.6819 14.532 38.6883 14.5478 38.6883 14.532C38.6269 14.4153 38.5591 14.2985 38.488 14.1817C38.4169 14.0649 38.3491 13.945 38.2715 13.8251C38.1164 13.5727 37.9483 13.3201 37.7804 13.0741C36.8494 11.7298 35.724 10.5245 34.4391 9.49545C34.339 9.41341 34.2356 9.3345 34.1322 9.25561C34.0288 9.17672 33.8866 9.06627 33.7605 8.97791C33.6345 8.88955 33.5343 8.81066 33.4213 8.73492C33.3081 8.65919 33.2112 8.58661 33.0981 8.51717C32.9753 8.43197 32.8494 8.35308 32.7201 8.27419L32.4551 8.11009L32.1934 7.95545C29.9472 6.66784 27.4369 5.88206 24.8429 5.65452C22.2488 5.427 19.6354 5.76339 17.1902 6.63952C15.8977 7.10972 13.1899 8.69074 13.0832 8.76332L9.73877 4.2033L10.1718 3.9256C11.3038 3.1725 12.5019 2.51882 13.7521 1.9722C16.9365 0.585563 20.3989 -0.0855213 23.8841 0.00841877C27.3694 0.102359 30.7886 0.958927 33.8898 2.51499C34.1095 2.62545 34.326 2.73904 34.536 2.85581L34.8592 3.03884L35.163 3.21556L35.4635 3.39229C35.6768 3.52167 35.8867 3.65421 36.1097 3.7899L36.352 3.94768L36.701 4.18437L37.063 4.44313L37.2601 4.58514C37.3732 4.67035 37.4863 4.7524 37.5832 4.84076C37.8773 5.06481 38.1649 5.29519 38.446 5.53501C38.7272 5.77485 39.0018 6.01784 39.2732 6.26715L39.6706 6.64899C39.8032 6.77837 39.9324 6.90776 40.0616 7.0403C40.3072 7.2896 40.5431 7.54521 40.7757 7.80714C40.876 7.91759 40.9729 8.0312 41.0666 8.14165C41.1604 8.25209 41.2605 8.36886 41.3542 8.48562C41.4479 8.60238 41.5093 8.67181 41.5836 8.76647L41.8098 9.05365L42.0295 9.34714C42.1233 9.4702 42.2137 9.59327 42.301 9.7195C42.3883 9.84573 42.4754 9.97196 42.5627 10.0982C42.6112 10.1645 42.6532 10.2307 42.6985 10.297C42.7436 10.3633 42.7921 10.4295 42.8309 10.499L43.041 10.8145C43.1411 10.9692 43.2381 11.1301 43.3318 11.2847C43.4255 11.4394 43.4675 11.5151 43.5321 11.6319C43.5968 11.7487 43.6678 11.8622 43.7325 11.9821L43.7486 12.0105C43.7538 12.0228 43.7603 12.0344 43.768 12.0453C43.7723 12.0598 43.7789 12.0736 43.7874 12.0863C43.7948 12.1017 43.8034 12.1164 43.8132 12.1305L43.9942 12.4745L44.0201 12.5218C44.0879 12.6544 44.1557 12.7868 44.2204 12.9194C44.285 13.052 44.3593 13.2129 44.4304 13.358L44.6275 13.7083C44.6825 13.8283 44.7309 13.945 44.7827 14.0649L44.9087 14.3805C44.9669 14.5215 45.0218 14.6635 45.0734 14.8066C45.0914 14.8432 45.1065 14.8813 45.1187 14.9202C45.1801 15.0811 45.2382 15.2357 45.2932 15.4061C45.416 15.7564 45.5291 16.113 45.6357 16.4728C45.6842 16.64 45.7294 16.8073 45.7746 16.9776C45.7779 16.9901 45.7779 17.0032 45.7746 17.0155C45.8717 17.3785 45.9556 17.7445 46.0365 18.1137C46.0752 18.2968 46.1107 18.4798 46.143 18.6628C46.143 18.6628 46.143 18.7101 46.143 18.7386C46.1721 18.8964 46.198 19.0541 46.2238 19.2182C46.2497 19.3824 46.2755 19.5811 46.3046 19.7579V19.7863C46.3304 19.9756 46.3498 20.1681 46.3725 20.3574C46.408 20.7109 46.4371 21.0644 46.4565 21.4241C46.505 21.8469 46.5179 22.2666 46.5179 22.6895Z" fill="black"/>
<path d="M40.2702 38.1815C39.2131 39.287 38.045 40.2861 36.7836 41.1637C35.5221 42.0436 34.1745 42.7994 32.7605 43.42C28.2198 45.4023 23.1482 45.9113 18.2896 44.8725C13.431 43.8336 9.04108 41.3014 5.76402 37.6475C2.48697 33.9936 0.495183 29.4102 0.080878 24.5697C-0.333427 19.7293 0.851553 14.8866 3.46198 10.752C3.56539 10.5847 3.67525 10.4364 3.78511 10.2565C3.89498 10.0766 4.00485 9.94095 4.10824 9.76738C4.50894 9.19935 4.93978 8.65236 5.40078 8.1264C5.48804 8.02227 5.57851 7.91813 5.67545 7.81083C5.71853 7.76034 5.76377 7.70985 5.81117 7.65936C5.91134 7.54575 6.01474 7.4353 6.1343 7.32486L6.25385 7.20178L9.60152 11.8154L9.64354 11.8723C9.56598 11.9637 9.48843 12.0584 9.41734 12.1562C9.33745 12.2467 9.263 12.3414 9.19438 12.4403C6.68622 15.7118 5.45922 19.7518 5.73515 23.8297C6.01109 27.9077 7.77175 31.7549 10.6989 34.6757C13.6261 37.5963 17.5266 39.3982 21.6953 39.7552C25.8642 40.1123 30.0263 39.0012 33.4295 36.6225L31.4906 33.9686L28.1656 29.4244C29.4948 28.4927 30.5221 27.2079 31.1255 25.7227C31.6296 24.4669 31.8119 23.1098 31.6569 21.7695C31.5018 20.4291 31.014 19.1459 30.2356 18.0316C29.4573 16.9172 28.4121 16.0054 27.1909 15.3753C25.9697 14.7452 24.6093 14.4157 23.2281 14.4158C23.1085 14.4158 22.9825 14.4158 22.863 14.4158H22.8468C21.2196 14.4882 19.6489 15.0211 18.3261 15.9494L15.0075 11.402C16.2833 10.5088 17.7032 9.83042 19.2083 9.395C20.5191 9.01366 21.8797 8.8202 23.2475 8.82066C23.674 8.82066 24.0909 8.83959 24.5045 8.87431C28.0394 9.18389 31.3279 10.7734 33.7238 13.3304C36.1196 15.8875 37.4497 19.2272 37.4524 22.6932C37.4524 25.5762 36.5306 28.3874 34.8157 30.734L36.845 33.5079L40.2702 38.1815Z" fill="black"/>
<path fill-rule="evenodd" clip-rule="evenodd" d="M28.1746 29.4058C27.2721 30.0526 26.247 30.518 25.159 30.775C24.0708 31.0318 22.9413 31.0753 21.8358 30.9025C20.7304 30.7299 19.6712 30.3446 18.7194 29.7691C17.7676 29.1934 16.9424 28.439 16.2914 27.5495C15.6405 26.6601 15.177 25.6532 14.9276 24.5874C14.6782 23.5216 14.648 22.418 14.8388 21.3407C15.0294 20.2634 15.4372 19.2339 16.0386 18.3117C16.6399 17.3895 17.4227 16.5931 18.3417 15.9688L28.1746 29.4058Z" fill="black"/>
<path d="M55.5791 23.4507C55.5791 22.0343 55.8853 20.7745 56.4977 19.6713C57.1103 18.5545 57.961 17.6897 59.0499 17.0768C60.1524 16.4503 61.3978 16.1371 62.786 16.1371C64.4874 16.1371 65.9438 16.5865 67.1551 17.4854C68.3666 18.3843 69.1764 19.61 69.5847 21.1626H65.7464C65.4607 20.5634 65.0523 20.1071 64.5215 19.7939C64.0043 19.4806 63.4122 19.324 62.7452 19.324C61.6699 19.324 60.7988 19.6986 60.132 20.4476C59.4649 21.1967 59.1315 22.1977 59.1315 23.4507C59.1315 24.7037 59.4649 25.7047 60.132 26.4538C60.7988 27.2028 61.6699 27.5774 62.7452 27.5774C63.4122 27.5774 64.0043 27.4208 64.5215 27.1075C65.0523 26.7943 65.4607 26.338 65.7464 25.7388H69.5847C69.1764 27.2914 68.3666 28.5171 67.1551 29.416C65.9438 30.3013 64.4874 30.7439 62.786 30.7439C61.3978 30.7439 60.1524 30.4374 59.0499 29.8246C57.961 29.1981 57.1103 28.3332 56.4977 27.2301C55.8853 26.1269 55.5791 24.8671 55.5791 23.4507Z" fill="black"/>
<path d="M75.2141 21.1424C75.6224 20.5159 76.1329 20.0256 76.7453 19.6715C77.3578 19.3037 78.0383 19.1199 78.7869 19.1199V22.8175H77.8273C76.9563 22.8175 76.303 23.0082 75.8674 23.3896C75.4318 23.7573 75.2141 24.411 75.2141 25.3507V30.6419H71.7229V19.2424H75.2141V21.1424Z" fill="black"/>
<path d="M92.0933 19.2423L84.9476 36.0554H81.1909L83.8042 30.2536L79.1697 19.2423H83.0693L85.703 26.3721L88.3162 19.2423H92.0933Z" fill="black"/>
<path d="M96.8477 20.8564C97.1879 20.3253 97.6576 19.8963 98.2565 19.5694C98.8553 19.2425 99.5562 19.0791 100.359 19.0791C101.298 19.0791 102.149 19.3174 102.911 19.7941C103.674 20.2708 104.272 20.9518 104.708 21.837C105.157 22.7223 105.382 23.7506 105.382 24.9218C105.382 26.0931 105.157 27.1282 104.708 28.027C104.272 28.9123 103.674 29.6001 102.911 30.0904C102.149 30.5671 101.298 30.8054 100.359 30.8054C99.5698 30.8054 98.8689 30.642 98.2565 30.3151C97.6576 29.9882 97.1879 29.566 96.8477 29.0485V36.0761H93.3564V19.2425H96.8477V20.8564ZM101.829 24.9218C101.829 24.0502 101.584 23.3692 101.094 22.8789C100.618 22.375 100.026 22.123 99.3181 22.123C98.624 22.123 98.0319 22.375 97.5418 22.8789C97.0655 23.3828 96.8272 24.0706 96.8272 24.9423C96.8272 25.8139 97.0655 26.5017 97.5418 27.0056C98.0319 27.5095 98.624 27.7615 99.3181 27.7615C100.012 27.7615 100.604 27.5095 101.094 27.0056C101.584 26.488 101.829 25.7935 101.829 24.9218Z" fill="black"/>
<path d="M113.562 27.6791V30.6413H111.786C110.521 30.6413 109.534 30.3349 108.826 29.722C108.118 29.0955 107.764 28.0808 107.764 26.678V22.1428H106.376V19.2419H107.764V16.4635H111.256V19.2419H113.542V22.1428H111.256V26.7189C111.256 27.0594 111.337 27.3045 111.5 27.4543C111.664 27.6042 111.936 27.6791 112.317 27.6791H113.562Z" fill="black"/>
<path d="M120.692 30.8054C119.575 30.8054 118.568 30.5671 117.67 30.0904C116.785 29.6137 116.084 28.9327 115.568 28.0475C115.064 27.1622 114.812 26.1271 114.812 24.9423C114.812 23.771 115.071 22.7427 115.587 21.8575C116.104 20.9586 116.813 20.2708 117.71 19.7941C118.609 19.3174 119.616 19.0791 120.733 19.0791C121.848 19.0791 122.856 19.3174 123.754 19.7941C124.653 20.2708 125.36 20.9586 125.878 21.8575C126.395 22.7427 126.653 23.771 126.653 24.9423C126.653 26.1135 126.388 27.1486 125.857 28.0475C125.34 28.9327 124.626 29.6137 123.713 30.0904C122.815 30.5671 121.808 30.8054 120.692 30.8054ZM120.692 27.7819C121.358 27.7819 121.923 27.5367 122.386 27.0464C122.863 26.5561 123.1 25.8547 123.1 24.9423C123.1 24.0298 122.87 23.3284 122.407 22.8381C121.957 22.3478 121.399 22.1026 120.733 22.1026C120.052 22.1026 119.487 22.3478 119.038 22.8381C118.589 23.3147 118.364 24.0161 118.364 24.9423C118.364 25.8547 118.582 26.5561 119.018 27.0464C119.466 27.5367 120.025 27.7819 120.692 27.7819Z" fill="black"/>
<path d="M131.997 20.8564C132.338 20.3253 132.808 19.8963 133.407 19.5694C134.005 19.2425 134.706 19.0791 135.51 19.0791C136.448 19.0791 137.3 19.3174 138.061 19.7941C138.824 20.2708 139.422 20.9518 139.858 21.837C140.307 22.7223 140.532 23.7506 140.532 24.9218C140.532 26.0931 140.307 27.1282 139.858 28.027C139.422 28.9123 138.824 29.6001 138.061 30.0904C137.3 30.5671 136.448 30.8054 135.51 30.8054C134.72 30.8054 134.019 30.642 133.407 30.3151C132.808 29.9882 132.338 29.566 131.997 29.0485V36.0761H128.506V19.2425H131.997V20.8564ZM136.98 24.9218C136.98 24.0502 136.734 23.3692 136.244 22.8789C135.768 22.375 135.176 22.123 134.468 22.123C133.775 22.123 133.182 22.375 132.692 22.8789C132.215 23.3828 131.977 24.0706 131.977 24.9423C131.977 25.8139 132.215 26.5017 132.692 27.0056C133.182 27.5095 133.775 27.7615 134.468 27.7615C135.163 27.7615 135.754 27.5095 136.244 27.0056C136.734 26.488 136.98 25.7935 136.98 24.9218Z" fill="black"/>
<path d="M147.548 30.8054C146.431 30.8054 145.425 30.5671 144.526 30.0904C143.642 29.6137 142.94 28.9327 142.424 28.0475C141.92 27.1622 141.668 26.1271 141.668 24.9423C141.668 23.771 141.927 22.7427 142.444 21.8575C142.961 20.9586 143.669 20.2708 144.567 19.7941C145.466 19.3174 146.472 19.0791 147.589 19.0791C148.705 19.0791 149.712 19.3174 150.61 19.7941C151.509 20.2708 152.216 20.9586 152.734 21.8575C153.251 22.7427 153.51 23.771 153.51 24.9423C153.51 26.1135 153.244 27.1486 152.713 28.0475C152.196 28.9327 151.482 29.6137 150.569 30.0904C149.672 30.5671 148.664 30.8054 147.548 30.8054ZM147.548 27.7819C148.214 27.7819 148.78 27.5367 149.243 27.0464C149.719 26.5561 149.957 25.8547 149.957 24.9423C149.957 24.0298 149.726 23.3284 149.263 22.8381C148.814 22.3478 148.255 22.1026 147.589 22.1026C146.908 22.1026 146.343 22.3478 145.895 22.8381C145.445 23.3147 145.22 24.0161 145.22 24.9423C145.22 25.8547 145.438 26.5561 145.874 27.0464C146.322 27.5367 146.881 27.7819 147.548 27.7819Z" fill="black"/>
<path d="M158.855 15.5244V30.6419H155.363V15.5244H158.855Z" fill="black"/>
<path d="M163.141 18.0576C162.528 18.0576 162.024 17.8805 161.63 17.5264C161.249 17.1587 161.058 16.7093 161.058 16.1781C161.058 15.6333 161.249 15.1839 161.63 14.8298C162.024 14.4621 162.528 14.2782 163.141 14.2782C163.739 14.2782 164.229 14.4621 164.611 14.8298C165.005 15.1839 165.203 15.6333 165.203 16.1781C165.203 16.7093 165.005 17.1587 164.611 17.5264C164.229 17.8805 163.739 18.0576 163.141 18.0576ZM164.876 19.2425V30.6419H161.385V19.2425H164.876Z" fill="black"/>
<path d="M173.755 27.6791V30.6413H171.979C170.712 30.6413 169.726 30.3349 169.018 29.722C168.311 29.0955 167.957 28.0808 167.957 26.678V22.1428H166.569V19.2419H167.957V16.4635H171.448V19.2419H173.735V22.1428H171.448V26.7189C171.448 27.0594 171.529 27.3045 171.693 27.4543C171.856 27.6042 172.128 27.6791 172.509 27.6791H173.755Z" fill="black"/>
<path d="M175.004 24.9218C175.004 23.7506 175.222 22.7223 175.658 21.837C176.108 20.9518 176.712 20.2708 177.475 19.7941C178.238 19.3174 179.088 19.0791 180.028 19.0791C180.83 19.0791 181.531 19.2425 182.131 19.5694C182.742 19.8963 183.212 20.3253 183.539 20.8564V19.2425H187.03V30.642H183.539V29.0281C183.199 29.5592 182.722 29.9882 182.11 30.3151C181.511 30.642 180.81 30.8054 180.007 30.8054C179.081 30.8054 178.238 30.5671 177.475 30.0904C176.712 29.6001 176.108 28.9123 175.658 28.027C175.222 27.1282 175.004 26.0931 175.004 24.9218ZM183.539 24.9423C183.539 24.0706 183.294 23.3828 182.804 22.8789C182.327 22.375 181.743 22.123 181.048 22.123C180.353 22.123 179.762 22.375 179.272 22.8789C178.795 23.3692 178.557 24.0502 178.557 24.9218C178.557 25.7935 178.795 26.488 179.272 27.0056C179.762 27.5095 180.353 27.7615 181.048 27.7615C181.743 27.7615 182.327 27.5095 182.804 27.0056C183.294 26.5017 183.539 25.8139 183.539 24.9423Z" fill="black"/>
<path d="M196.496 19.1199C197.831 19.1199 198.892 19.5557 199.682 20.4273C200.484 21.2854 200.886 22.4702 200.886 23.982V30.6419H197.416V24.4519C197.416 23.6892 197.218 23.0967 196.823 22.6745C196.429 22.2523 195.898 22.0412 195.231 22.0412C194.565 22.0412 194.033 22.2523 193.638 22.6745C193.244 23.0967 193.046 23.6892 193.046 24.4519V30.6419H189.555V19.2424H193.046V20.7542C193.4 20.2503 193.877 19.8553 194.476 19.5693C195.074 19.2697 195.748 19.1199 196.496 19.1199Z" fill="black"/>
</svg>
