<svg width="968" height="416" fill="none" version="1.1" viewBox="0 0 968 416" xmlns="http://www.w3.org/2000/svg">
 <path d="m968.5 54.58c-110 306-685.33 307.17-932 324.5h932z" fill="url(#a)"/>
 <path d="m34.501 379.08c222.98-15.669 714.54-18.127 888.15-244.5" stroke="#000" stroke-width="3"/>
 <path d="m966.5 55.58c-10.56 29.382-25.41 55.954-43.85 80" stroke="#000" stroke-dasharray="6, 6" stroke-width="3"/>
 <g fill="#000">
  <path d="m35.964 411.85c-0.408 0-0.792-0.05-1.152-0.16-0.348-0.1-0.66-0.22-0.936-0.38s-0.516-0.31-0.72-0.45c-0.192-0.16-0.336-0.28-0.432-0.38-0.132-0.14-0.252-0.28-0.36-0.41-0.096-0.13-0.144-0.27-0.144-0.42 0-0.13 0.036-0.26 0.108-0.39 0.084-0.15 0.192-0.28 0.324-0.42 0.156-0.16 0.294-0.28 0.414-0.34 0.12-0.07 0.246-0.11 0.378-0.11 0.18 0 0.336 0.07 0.468 0.2 0.144 0.12 0.312 0.27 0.504 0.45 0.096 0.07 0.222 0.16 0.378 0.27 0.156 0.1 0.336 0.18 0.54 0.25 0.216 0.08 0.45 0.11 0.702 0.11 0.336 0 0.624-0.05 0.864-0.16 0.252-0.12 0.456-0.29 0.612-0.5 0.168-0.22 0.288-0.47 0.36-0.76 0.084-0.3 0.126-0.62 0.126-0.97v-6.88c0-0.21 0.024-0.42 0.072-0.61s0.15-0.34 0.306-0.45 0.408-0.16 0.756-0.16c0.324 0 0.558 0.05 0.702 0.16 0.156 0.1 0.252 0.23 0.288 0.4 0.048 0.16 0.072 0.35 0.072 0.55v7.11c0 0.64-0.102 1.23-0.306 1.77-0.192 0.54-0.474 1.01-0.846 1.42-0.36 0.4-0.804 0.71-1.332 0.94-0.516 0.21-1.098 0.32-1.746 0.32zm9.99-0.11c-0.552 0-1.062-0.09-1.53-0.29-0.456-0.2-0.858-0.49-1.206-0.86s-0.618-0.82-0.81-1.33c-0.192-0.52-0.288-1.09-0.288-1.71v-3.58c0-0.21 0.018-0.39 0.054-0.54 0.036-0.17 0.132-0.3 0.288-0.4s0.396-0.14 0.72-0.14c0.348 0 0.594 0.04 0.738 0.14 0.156 0.1 0.252 0.23 0.288 0.4 0.036 0.16 0.054 0.35 0.054 0.55v3.57c0 0.43 0.072 0.8 0.216 1.11 0.156 0.32 0.378 0.56 0.666 0.74 0.288 0.17 0.642 0.25 1.062 0.25 0.432 0 0.798-0.08 1.098-0.25 0.312-0.18 0.552-0.42 0.72-0.74s0.252-0.69 0.252-1.11v-3.6c0-0.21 0.018-0.39 0.054-0.54 0.036-0.17 0.132-0.3 0.288-0.38 0.156-0.1 0.402-0.14 0.738-0.14s0.576 0.04 0.72 0.14 0.234 0.23 0.27 0.4c0.048 0.16 0.072 0.34 0.072 0.54v6.75c0 0.18-0.024 0.34-0.072 0.5-0.036 0.16-0.132 0.28-0.288 0.38-0.144 0.09-0.384 0.14-0.72 0.14-0.24 0-0.432-0.03-0.576-0.09-0.132-0.05-0.234-0.11-0.306-0.2-0.06-0.09-0.102-0.19-0.126-0.28-0.012-0.1-0.018-0.2-0.018-0.29l0.144-0.49c-0.072 0.11-0.18 0.24-0.324 0.4-0.144 0.14-0.324 0.29-0.54 0.45-0.204 0.14-0.444 0.26-0.72 0.36-0.276 0.09-0.582 0.14-0.918 0.14zm9.338 0.02c-0.444 0-0.84-0.03-1.188-0.09-0.336-0.06-0.63-0.16-0.882-0.31-0.24-0.14-0.438-0.33-0.594-0.57-0.156-0.25-0.276-0.56-0.36-0.92-0.072-0.36-0.108-0.79-0.108-1.3v-8.67c0-0.21 0.018-0.39 0.054-0.54 0.048-0.17 0.144-0.3 0.288-0.4 0.156-0.11 0.402-0.16 0.738-0.16s0.576 0.05 0.72 0.14c0.156 0.1 0.252 0.23 0.288 0.4 0.048 0.16 0.072 0.34 0.072 0.54v8.6c0 0.23 0.012 0.42 0.036 0.58 0.036 0.14 0.09 0.26 0.162 0.36 0.084 0.08 0.186 0.14 0.306 0.18 0.132 0.04 0.288 0.05 0.468 0.05 0.156 0 0.294 0.02 0.414 0.06 0.132 0.03 0.234 0.12 0.306 0.27 0.084 0.14 0.126 0.38 0.126 0.7 0 0.34-0.042 0.58-0.126 0.74-0.072 0.15-0.174 0.25-0.306 0.29-0.132 0.03-0.27 0.05-0.414 0.05zm3.478 3.55c-0.384-0.17-0.606-0.36-0.666-0.58-0.06-0.2-6e-3 -0.48 0.162-0.83l4.644-10.4c0.168-0.39 0.348-0.61 0.54-0.69s0.486-0.04 0.882 0.13c0.372 0.17 0.588 0.35 0.648 0.56 0.072 0.2 0.03 0.48-0.126 0.83l-4.68 10.45c-0.156 0.39-0.33 0.61-0.522 0.67-0.192 0.07-0.486 0.02-0.882-0.14zm1.674-4.41-4.158-6.39c-0.216-0.33-0.306-0.6-0.27-0.81 0.048-0.22 0.24-0.43 0.576-0.63 0.372-0.23 0.66-0.32 0.864-0.27 0.216 0.04 0.432 0.24 0.648 0.57l3.294 5.13z"/>
  <path d="m121.51 410.23c0.12 0.23 0.18 0.43 0.18 0.61 0.012 0.17-0.036 0.32-0.144 0.45-0.108 0.12-0.288 0.25-0.54 0.38-0.384 0.18-0.684 0.23-0.9 0.14-0.204-0.08-0.396-0.31-0.576-0.7l-4.014-8.48-3.996 8.48c-0.18 0.37-0.378 0.6-0.594 0.67-0.216 0.08-0.516 0.04-0.9-0.13-0.24-0.12-0.42-0.24-0.54-0.38-0.108-0.13-0.156-0.28-0.144-0.46 0.024-0.2 0.102-0.42 0.234-0.69l4.95-10.31c0.096-0.19 0.234-0.34 0.414-0.45 0.192-0.12 0.39-0.18 0.594-0.18 0.144 0 0.276 0.02 0.396 0.07s0.228 0.12 0.324 0.22c0.108 0.09 0.198 0.21 0.27 0.36zm-9.198-1.75 0.864-1.85h4.698l0.864 1.85zm14.167 3.26c-0.552 0-1.062-0.09-1.53-0.29-0.456-0.2-0.858-0.49-1.206-0.86s-0.618-0.82-0.81-1.33c-0.192-0.52-0.288-1.09-0.288-1.71v-3.58c0-0.21 0.018-0.39 0.054-0.54 0.036-0.17 0.132-0.3 0.288-0.4s0.396-0.14 0.72-0.14c0.348 0 0.594 0.04 0.738 0.14 0.156 0.1 0.252 0.23 0.288 0.4 0.036 0.16 0.054 0.35 0.054 0.55v3.57c0 0.43 0.072 0.8 0.216 1.11 0.156 0.32 0.378 0.56 0.666 0.74 0.288 0.17 0.642 0.25 1.062 0.25 0.432 0 0.798-0.08 1.098-0.25 0.312-0.18 0.552-0.42 0.72-0.74s0.252-0.69 0.252-1.11v-3.6c0-0.21 0.018-0.39 0.054-0.54 0.036-0.17 0.132-0.3 0.288-0.38 0.156-0.1 0.402-0.14 0.738-0.14s0.576 0.04 0.72 0.14 0.234 0.23 0.27 0.4c0.048 0.16 0.072 0.34 0.072 0.54v6.75c0 0.18-0.024 0.34-0.072 0.5-0.036 0.16-0.132 0.28-0.288 0.38-0.144 0.09-0.384 0.14-0.72 0.14-0.24 0-0.432-0.03-0.576-0.09-0.132-0.05-0.234-0.11-0.306-0.2-0.06-0.09-0.102-0.19-0.126-0.28-0.012-0.1-0.018-0.2-0.018-0.29l0.144-0.49c-0.072 0.11-0.18 0.24-0.324 0.4-0.144 0.14-0.324 0.29-0.54 0.45-0.204 0.14-0.444 0.26-0.72 0.36-0.276 0.09-0.582 0.14-0.918 0.14zm10.112 3.62c-0.432 0-0.846-0.05-1.242-0.16-0.396-0.1-0.756-0.23-1.08-0.4-0.312-0.17-0.564-0.35-0.756-0.54-0.18-0.19-0.27-0.37-0.27-0.54s0.024-0.31 0.072-0.43c0.06-0.12 0.144-0.24 0.252-0.36 0.144-0.14 0.258-0.25 0.342-0.32 0.096-0.08 0.222-0.11 0.378-0.11 0.132 0 0.258 0.05 0.378 0.14 0.132 0.1 0.282 0.21 0.45 0.33s0.372 0.22 0.612 0.32 0.546 0.14 0.918 0.14c0.312 0 0.6-0.05 0.864-0.16s0.486-0.27 0.666-0.48c0.192-0.21 0.342-0.45 0.45-0.74s0.162-0.61 0.162-0.97l-0.018-7.46c0.024-0.27 0.12-0.46 0.288-0.57 0.168-0.12 0.426-0.18 0.774-0.18 0.324 0 0.558 0.05 0.702 0.14s0.234 0.21 0.27 0.38c0.036 0.16 0.054 0.33 0.054 0.52v7.29c0 0.66-0.114 1.25-0.342 1.77-0.228 0.51-0.54 0.94-0.936 1.29-0.396 0.36-0.852 0.63-1.368 0.81-0.504 0.19-1.044 0.29-1.62 0.29zm-0.198-3.83c-0.564 0-1.092-0.11-1.584-0.33-0.48-0.21-0.906-0.52-1.278-0.92-0.36-0.39-0.648-0.85-0.864-1.36-0.204-0.53-0.306-1.1-0.306-1.71 0-0.6 0.102-1.16 0.306-1.68 0.216-0.51 0.504-0.97 0.864-1.37 0.372-0.39 0.798-0.7 1.278-0.91 0.492-0.23 1.014-0.35 1.566-0.35 0.54 0 1.008 0.11 1.404 0.33 0.408 0.2 0.744 0.5 1.008 0.88s0.462 0.84 0.594 1.37c0.144 0.53 0.216 1.11 0.216 1.74 0 0.88-0.12 1.64-0.36 2.29s-0.594 1.15-1.062 1.49c-0.468 0.35-1.062 0.53-1.782 0.53zm0.198-2.04c0.408 0 0.768-0.09 1.08-0.29 0.324-0.2 0.576-0.48 0.756-0.82 0.192-0.35 0.288-0.74 0.288-1.17 0-0.45-0.096-0.84-0.288-1.17-0.18-0.35-0.432-0.62-0.756-0.81-0.324-0.2-0.69-0.29-1.098-0.29s-0.774 0.1-1.098 0.3c-0.312 0.2-0.558 0.46-0.738 0.8-0.18 0.33-0.27 0.72-0.27 1.17 0 0.44 0.09 0.84 0.27 1.18 0.192 0.34 0.444 0.61 0.756 0.81 0.324 0.2 0.69 0.29 1.098 0.29z"/>
  <path d="m677.06 411.92c-0.54 0-1.04-0.06-1.48-0.2-0.43-0.13-0.82-0.3-1.15-0.5s-0.6-0.41-0.83-0.63-0.4-0.41-0.5-0.59c-0.16-0.22-0.26-0.41-0.31-0.58s-0.04-0.33 0.04-0.49 0.23-0.34 0.45-0.52c0.21-0.19 0.41-0.29 0.59-0.29 0.19-0.01 0.37 0.05 0.54 0.17 0.18 0.12 0.35 0.28 0.52 0.5 0.29 0.38 0.61 0.66 0.97 0.83 0.36 0.15 0.72 0.23 1.08 0.23 0.47 0 0.88-0.06 1.23-0.18 0.35-0.13 0.62-0.32 0.81-0.57 0.2-0.26 0.3-0.58 0.3-0.98 0-0.32-0.1-0.58-0.3-0.79-0.19-0.21-0.45-0.39-0.78-0.54-0.32-0.15-0.69-0.29-1.09-0.41-0.4-0.13-0.8-0.28-1.21-0.43-0.29-0.1-0.58-0.21-0.86-0.35-0.29-0.14-0.56-0.3-0.81-0.48-0.24-0.18-0.46-0.39-0.65-0.63-0.18-0.25-0.33-0.54-0.43-0.87-0.11-0.32-0.17-0.7-0.17-1.13 0-0.68 0.17-1.28 0.51-1.8 0.33-0.53 0.8-0.94 1.4-1.24 0.6-0.31 1.29-0.47 2.05-0.47 0.5 0 0.93 0.05 1.32 0.14s0.73 0.2 1.01 0.35c0.28 0.13 0.52 0.27 0.7 0.41 0.19 0.13 0.33 0.25 0.41 0.34 0.28 0.28 0.43 0.51 0.45 0.7 0.04 0.18-0.07 0.43-0.32 0.74-0.25 0.33-0.5 0.51-0.74 0.54-0.23 0.03-0.49-0.07-0.77-0.29-0.2-0.2-0.39-0.36-0.58-0.48-0.19-0.13-0.41-0.23-0.65-0.29-0.23-0.06-0.51-0.09-0.84-0.09-0.24 0-0.48 0.04-0.71 0.11-0.21 0.06-0.4 0.15-0.55 0.29-0.16 0.12-0.29 0.27-0.38 0.45s-0.13 0.38-0.13 0.61c0 0.31 0.09 0.57 0.25 0.77 0.18 0.19 0.42 0.36 0.72 0.49 0.3 0.12 0.64 0.23 1.01 0.34s0.75 0.22 1.14 0.34c0.39 0.13 0.78 0.29 1.17 0.47 0.38 0.18 0.72 0.41 1.02 0.68s0.54 0.6 0.72 1.01c0.18 0.4 0.27 0.88 0.27 1.46 0 0.66-0.12 1.24-0.38 1.73-0.25 0.49-0.59 0.89-1.02 1.2-0.43 0.32-0.91 0.54-1.44 0.69s-1.06 0.23-1.6 0.23zm10.23-0.05c-0.78 0-1.46-0.13-2.05-0.38-0.57-0.25-1.06-0.59-1.46-1.03-0.38-0.44-0.67-0.93-0.88-1.47-0.19-0.55-0.29-1.12-0.29-1.71 0-0.87 0.2-1.63 0.6-2.31 0.39-0.67 0.94-1.2 1.64-1.58s1.51-0.58 2.43-0.58c0.64 0 1.21 0.11 1.71 0.31 0.49 0.2 0.9 0.47 1.22 0.81 0.34 0.32 0.59 0.68 0.76 1.08 0.18 0.4 0.27 0.78 0.27 1.15 0 0.64-0.16 1.1-0.47 1.39-0.3 0.29-0.68 0.43-1.14 0.43h-4.75c0.01 0.41 0.14 0.76 0.38 1.06 0.25 0.3 0.56 0.54 0.94 0.7s0.77 0.24 1.17 0.24c0.3 0 0.56-0.02 0.79-0.06 0.24-0.03 0.44-0.07 0.61-0.12 0.17-0.06 0.31-0.12 0.43-0.18 0.13-0.06 0.25-0.12 0.36-0.16 0.11-0.05 0.21-0.08 0.31-0.09 0.13-0.02 0.26 0.01 0.39 0.09 0.14 0.07 0.24 0.19 0.33 0.37 0.07 0.12 0.12 0.24 0.14 0.35 0.04 0.09 0.06 0.19 0.06 0.28 0 0.24-0.15 0.47-0.44 0.69-0.28 0.2-0.69 0.37-1.22 0.5-0.52 0.15-1.13 0.22-1.84 0.22zm-2.41-5.17h3.69c0.21 0 0.36-0.03 0.47-0.09 0.11-0.07 0.16-0.21 0.16-0.43 0-0.28-0.08-0.52-0.25-0.74-0.17-0.23-0.4-0.4-0.68-0.52-0.29-0.13-0.63-0.2-1.01-0.2-0.45 0-0.85 0.09-1.21 0.27-0.36 0.17-0.65 0.4-0.86 0.7s-0.31 0.64-0.31 1.01zm12.39 4.93c-0.59 0-1.12-0.1-1.59-0.32-0.45-0.23-0.84-0.54-1.17-0.94-0.31-0.4-0.55-0.87-0.72-1.4-0.15-0.53-0.23-1.1-0.23-1.71 0.01-0.61 0.1-1.18 0.27-1.71 0.17-0.54 0.41-1.01 0.72-1.4 0.32-0.4 0.71-0.71 1.17-0.94s0.97-0.34 1.55-0.34c0.55 0 1.07 0.11 1.55 0.34 0.49 0.23 0.92 0.55 1.29 0.95 0.39 0.41 0.69 0.89 0.9 1.43 0.22 0.52 0.33 1.09 0.33 1.71s-0.11 1.2-0.33 1.72c-0.21 0.53-0.51 0.99-0.88 1.39-0.37 0.38-0.8 0.68-1.3 0.9-0.49 0.22-1.01 0.32-1.56 0.32zm-3.6 3.75c-0.33 0-0.57-0.05-0.72-0.15-0.16-0.09-0.25-0.22-0.29-0.37-0.04-0.16-0.05-0.34-0.05-0.54v-10.35c0-0.21 0.01-0.39 0.05-0.54 0.04-0.16 0.13-0.29 0.27-0.38 0.16-0.11 0.4-0.16 0.72-0.16 0.31 0 0.56 0.04 0.74 0.14s0.3 0.26 0.36 0.49v10.78c0.01 0.2-0.01 0.38-0.06 0.54-0.03 0.17-0.13 0.3-0.28 0.39-0.16 0.1-0.41 0.15-0.74 0.15zm3.31-5.76c0.42 0 0.8-0.1 1.13-0.29 0.34-0.2 0.6-0.48 0.8-0.83 0.2-0.36 0.3-0.76 0.3-1.2 0-0.46-0.1-0.86-0.3-1.21s-0.46-0.62-0.8-0.81c-0.33-0.2-0.71-0.31-1.13-0.31-0.41 0-0.78 0.11-1.12 0.31-0.33 0.2-0.6 0.48-0.81 0.83-0.19 0.33-0.28 0.73-0.28 1.19 0 0.44 0.09 0.84 0.28 1.2 0.21 0.35 0.48 0.63 0.81 0.83 0.34 0.19 0.71 0.29 1.12 0.29zm10.07 2.14c-0.58 0-1.09-0.06-1.51-0.18s-0.76-0.31-1.02-0.56c-0.27-0.25-0.47-0.57-0.6-0.97-0.12-0.41-0.18-0.89-0.18-1.44v-7.63c0-0.22 0.02-0.4 0.06-0.56s0.14-0.28 0.28-0.36c0.16-0.1 0.4-0.14 0.72-0.14 0.34 0 0.58 0.04 0.72 0.14 0.16 0.1 0.26 0.23 0.29 0.4 0.05 0.15 0.07 0.33 0.07 0.52v7.56c0 0.25 0.02 0.45 0.06 0.61 0.05 0.16 0.11 0.28 0.2 0.36 0.09 0.07 0.21 0.13 0.36 0.16s0.34 0.04 0.55 0.04c0.23 0 0.42 0.02 0.58 0.05 0.17 0.04 0.29 0.13 0.38 0.27 0.08 0.13 0.12 0.36 0.12 0.67 0 0.33-0.05 0.58-0.16 0.74-0.09 0.14-0.23 0.23-0.39 0.27-0.16 0.03-0.33 0.05-0.53 0.05zm-4.05-8.69 1.86 0.01 2.48-0.07c0.21 0 0.39 0.03 0.54 0.07 0.17 0.04 0.3 0.14 0.4 0.29 0.09 0.15 0.14 0.39 0.14 0.72 0 0.31-0.05 0.55-0.14 0.7-0.1 0.16-0.22 0.26-0.38 0.31-0.16 0.04-0.34 0.05-0.54 0.05l-2.41-0.03-2 0.02c-0.3-0.02-0.51-0.1-0.63-0.26-0.11-0.16-0.16-0.43-0.16-0.81 0-0.34 0.06-0.6 0.2-0.75 0.14-0.17 0.36-0.25 0.64-0.25z"/>
  <path d="m830.55 411.74c-0.33 0-0.57-0.05-0.72-0.16-0.15-0.1-0.24-0.23-0.29-0.4-0.04-0.16-0.05-0.34-0.05-0.54v-10.44c0-0.18 0.02-0.34 0.07-0.5s0.15-0.28 0.3-0.38c0.17-0.09 0.42-0.14 0.74-0.14 0.36 0 0.61 0.04 0.74 0.12 0.14 0.08 0.28 0.18 0.4 0.33l6.01 8.4v-7.83c0-0.18 0.02-0.34 0.07-0.5s0.15-0.28 0.31-0.38c0.15-0.09 0.39-0.14 0.72-0.14s0.57 0.05 0.72 0.16c0.15 0.1 0.25 0.23 0.28 0.4 0.05 0.16 0.08 0.35 0.08 0.55v10.37c0 0.19-0.03 0.37-0.09 0.54-0.05 0.16-0.16 0.28-0.33 0.38-0.15 0.11-0.4 0.16-0.74 0.16-0.26 0-0.47-0.02-0.63-0.07-0.14-0.05-0.27-0.15-0.39-0.31l-6.1-8.38v7.68c0 0.19-0.03 0.37-0.08 0.54-0.03 0.16-0.13 0.28-0.28 0.38-0.16 0.11-0.41 0.16-0.74 0.16zm15.57 0.13c-0.57 0-1.14-0.11-1.69-0.33-0.54-0.22-1.03-0.54-1.47-0.95s-0.78-0.89-1.05-1.44c-0.25-0.55-0.38-1.16-0.38-1.82 0-0.63 0.12-1.23 0.36-1.78s0.57-1.04 0.99-1.46 0.9-0.74 1.44-0.97c0.56-0.24 1.14-0.36 1.77-0.36 0.84 0 1.6 0.2 2.28 0.61 0.69 0.4 1.23 0.94 1.64 1.62 0.41 0.69 0.61 1.46 0.61 2.32 0 0.69-0.12 1.31-0.37 1.88-0.26 0.55-0.6 1.03-1.03 1.44-0.43 0.39-0.92 0.7-1.46 0.91-0.53 0.22-1.07 0.33-1.64 0.33zm-0.03-2.13c0.39 0 0.77-0.09 1.13-0.28 0.37-0.21 0.67-0.5 0.9-0.87 0.24-0.37 0.36-0.81 0.36-1.31 0-0.47-0.11-0.88-0.32-1.24s-0.49-0.65-0.85-0.85-0.77-0.31-1.24-0.31c-0.44 0-0.85 0.11-1.21 0.33-0.36 0.2-0.64 0.49-0.86 0.86-0.2 0.36-0.31 0.77-0.31 1.23 0 0.5 0.12 0.94 0.35 1.31 0.22 0.36 0.52 0.64 0.88 0.85 0.37 0.19 0.76 0.28 1.17 0.28zm9.42 2.06c-0.25 0-0.46-0.05-0.63-0.13s-0.3-0.22-0.4-0.41l-3.27-6.86c-0.18-0.36-0.23-0.65-0.15-0.87 0.09-0.21 0.3-0.4 0.65-0.57 0.36-0.18 0.65-0.24 0.86-0.18 0.22 0.06 0.41 0.28 0.58 0.66l2.36 5.53 2.32-5.42c0.17-0.39 0.36-0.64 0.58-0.74 0.21-0.1 0.52-0.06 0.93 0.15 0.41 0.2 0.63 0.43 0.65 0.68 0.02 0.24-0.04 0.52-0.2 0.83l-3.26 6.79c-0.09 0.18-0.22 0.31-0.39 0.39-0.17 0.1-0.38 0.15-0.63 0.15z"/>
  <path d="m759.58 411.9c-0.86 0-1.67-0.16-2.43-0.48-0.74-0.34-1.4-0.79-1.98-1.37-0.57-0.59-1.02-1.26-1.35-2.02-0.32-0.76-0.48-1.59-0.48-2.46 0-0.9 0.15-1.74 0.46-2.52 0.33-0.79 0.77-1.48 1.32-2.07 0.56-0.6 1.21-1.07 1.94-1.41 0.73-0.33 1.52-0.5 2.36-0.5 0.88 0 1.69 0.17 2.43 0.5 0.76 0.33 1.42 0.78 1.98 1.37s1.01 1.27 1.33 2.05c0.33 0.77 0.49 1.61 0.49 2.51 0 0.87-0.16 1.7-0.47 2.48-0.31 0.77-0.75 1.45-1.31 2.05-0.57 0.59-1.22 1.05-1.95 1.39-0.72 0.32-1.5 0.48-2.34 0.48zm-0.09-2.19c0.55 0 1.07-0.11 1.55-0.33 0.48-0.21 0.9-0.51 1.26-0.9 0.37-0.38 0.66-0.82 0.86-1.33 0.21-0.51 0.31-1.07 0.31-1.65 0-0.59-0.11-1.14-0.32-1.64-0.21-0.52-0.5-0.97-0.87-1.35-0.36-0.4-0.78-0.7-1.26-0.92-0.47-0.22-0.98-0.32-1.53-0.32-0.54 0-1.05 0.1-1.53 0.32s-0.9 0.52-1.28 0.92c-0.36 0.38-0.64 0.83-0.84 1.35-0.21 0.51-0.31 1.06-0.31 1.64 0 0.57 0.1 1.12 0.31 1.63 0.21 0.52 0.5 0.97 0.86 1.35 0.36 0.39 0.78 0.69 1.24 0.9 0.48 0.22 1 0.33 1.55 0.33zm11.76 2.09c-0.57 0-1.14-0.1-1.69-0.29-0.54-0.21-1.03-0.5-1.47-0.88-0.44-0.39-0.78-0.86-1.05-1.41-0.25-0.56-0.38-1.2-0.38-1.91 0-0.7 0.13-1.33 0.38-1.89 0.27-0.55 0.61-1.02 1.05-1.4 0.43-0.38 0.91-0.68 1.45-0.88 0.54-0.21 1.1-0.31 1.68-0.31 0.42 0 0.81 0.06 1.19 0.18s0.71 0.27 0.99 0.43c0.27 0.17 0.47 0.34 0.59 0.51 0.16 0.14 0.29 0.28 0.4 0.41 0.1 0.13 0.14 0.3 0.1 0.49-0.03 0.12-0.09 0.23-0.16 0.34-0.07 0.1-0.16 0.2-0.27 0.31-0.29 0.32-0.57 0.44-0.84 0.36-0.16-0.09-0.32-0.18-0.47-0.27-0.16-0.1-0.32-0.19-0.49-0.27-0.15-0.1-0.32-0.18-0.48-0.24-0.17-0.06-0.36-0.09-0.56-0.09-0.46 0-0.87 0.1-1.23 0.31-0.34 0.19-0.62 0.46-0.82 0.81s-0.29 0.75-0.29 1.2c0 0.46 0.09 0.87 0.29 1.23 0.2 0.35 0.48 0.62 0.82 0.83 0.35 0.19 0.75 0.28 1.19 0.28 0.22 0 0.42-0.02 0.61-0.07 0.21-0.06 0.39-0.13 0.54-0.21 0.16-0.1 0.29-0.2 0.38-0.29 0.13-0.09 0.25-0.16 0.36-0.24 0.11-0.07 0.22-0.1 0.34-0.1 0.15 0 0.29 0.05 0.42 0.16 0.14 0.09 0.3 0.25 0.47 0.47 0.15 0.18 0.24 0.35 0.25 0.52 0.02 0.17-0.01 0.33-0.11 0.48-0.08 0.16-0.23 0.3-0.43 0.44-0.15 0.14-0.36 0.29-0.65 0.45-0.28 0.14-0.6 0.27-0.97 0.37-0.36 0.11-0.74 0.17-1.14 0.17zm9.04-0.04c-0.59 0-1.09-0.06-1.51-0.18s-0.76-0.31-1.03-0.56c-0.26-0.25-0.46-0.57-0.59-0.97-0.12-0.41-0.18-0.89-0.18-1.44v-7.63c0-0.22 0.02-0.4 0.05-0.56 0.05-0.16 0.15-0.28 0.29-0.36 0.16-0.1 0.4-0.14 0.72-0.14 0.34 0 0.58 0.04 0.72 0.14 0.16 0.1 0.25 0.23 0.29 0.4 0.05 0.15 0.07 0.33 0.07 0.52v7.56c0 0.25 0.02 0.45 0.06 0.61s0.11 0.28 0.19 0.36c0.1 0.07 0.22 0.13 0.36 0.16 0.16 0.03 0.35 0.04 0.56 0.04 0.23 0 0.42 0.02 0.58 0.05 0.17 0.04 0.29 0.13 0.38 0.27 0.08 0.13 0.12 0.36 0.12 0.67 0 0.33-0.05 0.58-0.16 0.74-0.1 0.14-0.23 0.23-0.4 0.27-0.15 0.03-0.33 0.05-0.52 0.05zm-4.05-8.69 1.86 0.01 2.48-0.07c0.2 0 0.38 0.03 0.54 0.07 0.17 0.04 0.3 0.14 0.4 0.29 0.09 0.15 0.14 0.39 0.14 0.72 0 0.31-0.05 0.55-0.14 0.7-0.1 0.16-0.23 0.26-0.38 0.31-0.16 0.04-0.34 0.05-0.54 0.05l-2.41-0.03-2 0.02c-0.3-0.02-0.51-0.1-0.63-0.26-0.11-0.16-0.16-0.43-0.16-0.81 0-0.34 0.06-0.6 0.19-0.75 0.15-0.17 0.36-0.25 0.65-0.25z"/>
  <path d="m908.01 411.74c-0.32 0-0.55-0.05-0.71-0.16-0.15-0.1-0.25-0.23-0.3-0.4-0.05-0.16-0.07-0.34-0.07-0.54v-10.4c0-0.19 0.01-0.37 0.05-0.52 0.05-0.17 0.15-0.3 0.31-0.4 0.15-0.11 0.4-0.16 0.73-0.16l3.39 0.02c0.87 0 1.68 0.15 2.41 0.45 0.74 0.3 1.39 0.72 1.93 1.28 0.54 0.55 0.95 1.21 1.24 1.98 0.3 0.75 0.45 1.59 0.45 2.5 0 0.93-0.15 1.79-0.45 2.57s-0.72 1.45-1.26 2.02c-0.54 0.56-1.18 1-1.93 1.31-0.73 0.3-1.55 0.45-2.45 0.45zm1.09-2.18h2.31c0.77 0 1.44-0.16 2.01-0.5 0.58-0.35 1.02-0.83 1.34-1.44s0.48-1.33 0.48-2.14c0-0.83-0.16-1.55-0.48-2.16-0.32-0.63-0.77-1.11-1.35-1.44-0.58-0.35-1.25-0.52-2.02-0.52h-2.29zm14.33 2.31c-0.78 0-1.47-0.13-2.06-0.38-0.57-0.25-1.06-0.59-1.45-1.03s-0.68-0.93-0.89-1.47c-0.19-0.55-0.28-1.12-0.28-1.71 0-0.87 0.19-1.63 0.59-2.31 0.4-0.67 0.94-1.2 1.64-1.58 0.71-0.38 1.52-0.58 2.43-0.58 0.65 0 1.22 0.11 1.71 0.31s0.9 0.47 1.22 0.81c0.34 0.32 0.59 0.68 0.76 1.08 0.18 0.4 0.27 0.78 0.27 1.15 0 0.64-0.16 1.1-0.47 1.39-0.3 0.29-0.68 0.43-1.13 0.43h-4.76c0.02 0.41 0.14 0.76 0.38 1.06 0.25 0.3 0.57 0.54 0.94 0.7 0.38 0.16 0.77 0.24 1.17 0.24 0.3 0 0.56-0.02 0.79-0.06 0.24-0.03 0.44-0.07 0.61-0.12 0.17-0.06 0.31-0.12 0.43-0.18 0.14-0.06 0.26-0.12 0.36-0.16 0.11-0.05 0.21-0.08 0.31-0.09 0.13-0.02 0.26 0.01 0.4 0.09 0.13 0.07 0.24 0.19 0.32 0.37 0.07 0.12 0.12 0.24 0.14 0.35 0.04 0.09 0.06 0.19 0.06 0.28 0 0.24-0.15 0.47-0.43 0.69-0.29 0.2-0.7 0.37-1.23 0.5-0.51 0.15-1.13 0.22-1.83 0.22zm-2.42-5.17h3.69c0.21 0 0.36-0.03 0.47-0.09 0.11-0.07 0.16-0.21 0.16-0.43 0-0.28-0.08-0.52-0.25-0.74-0.17-0.23-0.39-0.4-0.68-0.52-0.29-0.13-0.63-0.2-1.01-0.2-0.44 0-0.85 0.09-1.21 0.27-0.36 0.17-0.64 0.4-0.86 0.7-0.2 0.3-0.31 0.64-0.31 1.01zm12.12 5.1c-0.58 0-1.14-0.1-1.69-0.29-0.54-0.21-1.03-0.5-1.48-0.88-0.43-0.39-0.78-0.86-1.04-1.41-0.25-0.56-0.38-1.2-0.38-1.91 0-0.7 0.13-1.33 0.38-1.89 0.26-0.55 0.61-1.02 1.04-1.4s0.92-0.68 1.46-0.88c0.54-0.21 1.1-0.31 1.67-0.31 0.42 0 0.82 0.06 1.19 0.18 0.39 0.12 0.72 0.27 0.99 0.43 0.28 0.17 0.48 0.34 0.6 0.51 0.15 0.14 0.28 0.28 0.39 0.41s0.15 0.3 0.11 0.49c-0.04 0.12-0.09 0.23-0.16 0.34-0.07 0.1-0.16 0.2-0.27 0.31-0.29 0.32-0.57 0.44-0.85 0.36-0.15-0.09-0.31-0.18-0.47-0.27-0.15-0.1-0.31-0.19-0.48-0.27-0.16-0.1-0.32-0.18-0.49-0.24s-0.35-0.09-0.56-0.09c-0.45 0-0.86 0.1-1.22 0.31-0.35 0.19-0.62 0.46-0.83 0.81-0.19 0.35-0.29 0.75-0.29 1.2 0 0.46 0.1 0.87 0.29 1.23 0.21 0.35 0.48 0.62 0.83 0.83 0.35 0.19 0.74 0.28 1.19 0.28 0.21 0 0.42-0.02 0.61-0.07 0.2-0.06 0.38-0.13 0.54-0.21 0.16-0.1 0.28-0.2 0.38-0.29 0.13-0.09 0.25-0.16 0.36-0.24 0.11-0.07 0.22-0.1 0.34-0.1 0.14 0 0.28 0.05 0.41 0.16 0.15 0.09 0.3 0.25 0.47 0.47 0.16 0.18 0.24 0.35 0.25 0.52 0.03 0.17-0.01 0.33-0.1 0.48-0.09 0.16-0.23 0.3-0.44 0.44-0.14 0.14-0.36 0.29-0.64 0.45-0.28 0.14-0.6 0.27-0.98 0.37-0.36 0.11-0.73 0.17-1.13 0.17z"/>
  <path d="m12.69 243.87c0 0.336-0.048 0.582-0.144 0.738s-0.228 0.252-0.396 0.288c-0.18 0.036-0.366 0.054-0.558 0.054h-10.386c-0.192 0-0.366-0.018-0.522-0.054-0.168-0.048-0.3-0.15-0.396-0.306-0.108-0.156-0.162-0.402-0.162-0.738v-3.816c0-0.528 0.09-1.044 0.27-1.548s0.45-0.954 0.81-1.35c0.36-0.408 0.804-0.726 1.332-0.954 0.528-0.24 1.146-0.36 1.854-0.36 0.696 0 1.308 0.12 1.836 0.36 0.516 0.228 0.954 0.546 1.314 0.954s0.63 0.864 0.81 1.368c0.18 0.492 0.27 1.008 0.27 1.548v2.718h2.988c0.192 0 0.372 0.024 0.54 0.072 0.168 0.036 0.3 0.132 0.396 0.288 0.096 0.144 0.144 0.39 0.144 0.738zm-6.264-1.098v-2.736c0-0.372-0.072-0.708-0.216-1.008-0.156-0.312-0.384-0.564-0.684-0.756-0.312-0.192-0.702-0.288-1.17-0.288-0.42 0-0.78 0.09-1.08 0.27-0.312 0.168-0.552 0.408-0.72 0.72-0.168 0.3-0.252 0.66-0.252 1.08v2.718zm6.264-9.749c0 0.336-0.048 0.582-0.144 0.738-0.096 0.144-0.228 0.24-0.396 0.288-0.18 0.036-0.366 0.054-0.558 0.054h-10.386c-0.192 0-0.366-0.024-0.522-0.072-0.168-0.048-0.3-0.144-0.396-0.288-0.108-0.156-0.162-0.402-0.162-0.738v-3.852c0-0.552 0.09-1.074 0.27-1.566 0.168-0.504 0.432-0.954 0.792-1.35 0.348-0.396 0.792-0.708 1.332-0.936 0.528-0.24 1.146-0.36 1.854-0.36 0.468 0 0.936 0.072 1.404 0.216 0.456 0.144 0.882 0.36 1.278 0.648 0.384 0.276 0.714 0.63 0.99 1.062s0.456 0.942 0.54 1.53v3.528h3.024c0.192 0 0.372 0.024 0.54 0.072 0.168 0.036 0.3 0.132 0.396 0.288 0.096 0.144 0.144 0.39 0.144 0.738zm-0.27-7.668c0.24 0.348 0.33 0.636 0.27 0.864-0.06 0.216-0.252 0.432-0.576 0.648l-4.572 3.024-0.324-2.43 3.636-2.394c0.24-0.168 0.444-0.27 0.612-0.306s0.324-6e-3 0.468 0.09 0.306 0.264 0.486 0.504zm-5.994 6.57v-3.042c0-0.216-0.036-0.426-0.108-0.63-0.084-0.216-0.21-0.408-0.378-0.576-0.18-0.168-0.396-0.3-0.648-0.396-0.264-0.108-0.576-0.162-0.936-0.162-0.432 0-0.798 0.084-1.098 0.252-0.312 0.168-0.546 0.408-0.702 0.72-0.168 0.3-0.252 0.666-0.252 1.098v2.736zm6.282-9.849c0 0.336-0.054 0.582-0.162 0.738-0.096 0.156-0.228 0.252-0.396 0.288s-0.354 0.054-0.558 0.054h-10.386c-0.192 0-0.372-0.018-0.54-0.054-0.168-0.048-0.3-0.144-0.396-0.288-0.096-0.156-0.144-0.408-0.144-0.756 0-0.336 0.048-0.576 0.144-0.72 0.096-0.156 0.228-0.252 0.396-0.288 0.168-0.048 0.354-0.072 0.558-0.072h10.386c0.204 0 0.39 0.024 0.558 0.072 0.156 0.036 0.282 0.132 0.378 0.288 0.108 0.156 0.162 0.402 0.162 0.738zm0.072-9.066c0 0.588-0.084 1.182-0.252 1.782-0.18 0.6-0.444 1.176-0.792 1.728-0.36 0.552-0.798 1.044-1.314 1.476-0.528 0.42-1.134 0.756-1.818 1.008-0.696 0.252-1.464 0.378-2.304 0.378-0.828 0-1.572-0.126-2.232-0.378-0.672-0.252-1.26-0.588-1.764-1.008-0.504-0.432-0.924-0.918-1.26-1.458-0.336-0.552-0.588-1.128-0.756-1.728-0.18-0.612-0.276-1.218-0.288-1.818 0-0.612 0.066-1.14 0.198-1.584s0.276-0.804 0.432-1.08c0.144-0.276 0.246-0.462 0.306-0.558 0.12-0.192 0.258-0.372 0.414-0.54 0.144-0.18 0.324-0.276 0.54-0.288 0.144-0.012 0.276 6e-3 0.396 0.054 0.108 0.048 0.222 0.114 0.342 0.198 0.204 0.144 0.354 0.288 0.45 0.432s0.144 0.288 0.144 0.432c0 0.132-0.036 0.258-0.108 0.378-0.072 0.108-0.162 0.246-0.27 0.414-0.048 0.072-0.12 0.204-0.216 0.396-0.108 0.18-0.204 0.426-0.288 0.738-0.084 0.3-0.126 0.666-0.126 1.098 0 0.516 0.09 1.02 0.27 1.512s0.45 0.936 0.81 1.332c0.348 0.384 0.786 0.69 1.314 0.918 0.516 0.228 1.11 0.342 1.782 0.342s1.272-0.114 1.8-0.342c0.516-0.228 0.954-0.534 1.314-0.918 0.348-0.396 0.612-0.84 0.792-1.332s0.27-0.996 0.27-1.512c0-0.408-0.036-0.756-0.108-1.044-0.084-0.3-0.18-0.552-0.288-0.756l-0.27-0.486c-0.084-0.132-0.162-0.258-0.234-0.378s-0.108-0.246-0.108-0.378c0-0.144 0.048-0.282 0.144-0.414 0.096-0.144 0.252-0.282 0.468-0.414 0.132-0.084 0.258-0.15 0.378-0.198s0.246-0.066 0.378-0.054c0.216 0.012 0.402 0.108 0.558 0.288 0.144 0.168 0.27 0.348 0.378 0.54 0.06 0.096 0.168 0.282 0.324 0.558 0.144 0.264 0.276 0.618 0.396 1.062 0.132 0.444 0.198 0.978 0.198 1.602zm-0.072-6.971c0 0.336-0.054 0.582-0.162 0.738-0.096 0.156-0.228 0.252-0.396 0.288s-0.354 0.054-0.558 0.054h-10.386c-0.408 0-0.69-0.078-0.846-0.234-0.156-0.168-0.234-0.468-0.234-0.9v-7.02c0-0.204 0.024-0.384 0.072-0.54 0.036-0.168 0.132-0.3 0.288-0.396 0.144-0.096 0.39-0.144 0.738-0.144 0.336 0 0.582 0.054 0.738 0.162 0.156 0.096 0.252 0.228 0.288 0.396 0.036 0.156 0.054 0.336 0.054 0.54v5.958h3.024v-4.104c0-0.204 0.024-0.378 0.072-0.522 0.036-0.144 0.12-0.258 0.252-0.342s0.354-0.126 0.666-0.126c0.3 0 0.522 0.042 0.666 0.126 0.132 0.084 0.216 0.204 0.252 0.36 0.024 0.156 0.036 0.336 0.036 0.54v4.068h3.24v-5.976c0-0.204 0.024-0.384 0.072-0.54 0.036-0.168 0.132-0.3 0.288-0.396s0.402-0.144 0.738-0.144 0.582 0.054 0.738 0.162c0.156 0.096 0.252 0.228 0.288 0.396 0.048 0.156 0.072 0.336 0.072 0.54z"/>
 </g>
 <g stroke="#000">
  <line x1="845" x2="845" y1="147.58" y2="206.58" stroke-width="3"/>
  <line x1="614.03" x2="614.03" y1="249.58" y2="307.58" stroke-width="3"/>
  <path d="m968.5 379.58h-934v-316" stroke-width="2"/>
 </g>
 <path d="m906.41 23.184c0 1.135-0.16 2.162-0.46 3.082-0.31 0.889-0.76 1.687-1.34 2.392-0.55 0.675-1.24 1.242-2.07 1.702-0.8 0.46-1.7 0.813-2.71 1.058v2.484c0 0.583-0.05 1.15-0.14 1.702s-0.35 0.997-0.78 1.334c-0.4 0.368-1.09 0.552-2.07 0.552-0.95 0-1.64-0.184-2.07-0.552-0.4-0.368-0.65-0.828-0.74-1.38-0.06-0.552-0.09-1.104-0.09-1.656v-2.484c-0.77-0.184-1.5-0.445-2.21-0.782-0.67-0.337-1.3-0.736-1.88-1.196-0.56-0.46-1.06-0.981-1.52-1.564-0.71-0.981-1.01-1.794-0.92-2.438 0.09-0.675 0.61-1.472 1.56-2.392 0.58-0.521 1.15-0.813 1.7-0.874 0.59-0.092 1.14 0.015 1.66 0.322 0.55 0.276 1.04 0.69 1.47 1.242 0.52 0.613 1 1.058 1.43 1.334 0.43 0.245 0.93 0.368 1.52 0.368 0.64 0 1.16-0.077 1.56-0.23s0.69-0.383 0.87-0.69c0.19-0.337 0.28-0.751 0.28-1.242 0-0.552-0.38-0.935-1.15-1.15-0.74-0.245-1.67-0.491-2.81-0.736-1.13-0.245-2.25-0.629-3.35-1.15-0.59-0.276-1.14-0.613-1.66-1.012s-0.98-0.874-1.38-1.426c-0.4-0.583-0.72-1.242-0.97-1.978-0.21-0.767-0.32-1.656-0.32-2.668s0.14-1.932 0.42-2.76c0.27-0.828 0.67-1.549 1.19-2.162 0.55-0.644 1.2-1.181 1.93-1.61 0.77-0.429 1.63-0.751 2.58-0.966v-2.116c0-0.583 0.03-1.135 0.09-1.656 0.09-0.552 0.34-0.997 0.74-1.334 0.43-0.368 1.13-0.552 2.11-0.552 0.95 0 1.63 0.184 2.03 0.552 0.43 0.368 0.69 0.828 0.78 1.38 0.09 0.521 0.14 1.073 0.14 1.656v1.978c0.7 0.123 1.33 0.337 1.88 0.644 0.56 0.276 1.18 0.705 1.89 1.288 0.86 0.736 1.32 1.365 1.38 1.886 0.09 0.521-0.22 1.303-0.92 2.346-0.46 0.736-0.95 1.257-1.47 1.564-0.49 0.307-1 0.414-1.52 0.322s-1.09-0.337-1.7-0.736c-0.22-0.153-0.43-0.322-0.65-0.506-0.18-0.184-0.44-0.337-0.78-0.46-0.31-0.123-0.78-0.184-1.42-0.184-0.25 0-0.48 0.046-0.69 0.138-0.22 0.061-0.42 0.169-0.6 0.322-0.16 0.123-0.29 0.276-0.42 0.46-0.09 0.184-0.13 0.368-0.13 0.552 0 0.552 0.23 0.966 0.69 1.242 0.49 0.276 1.11 0.491 1.88 0.644 0.8 0.153 1.64 0.322 2.53 0.506 0.8 0.184 1.58 0.429 2.35 0.736 0.79 0.307 1.52 0.736 2.16 1.288s1.15 1.273 1.52 2.162c0.4 0.889 0.6 2.024 0.6 3.404zm13.95 10.902c-1.53 0-2.61-0.307-3.22-0.92s-0.92-1.702-0.92-3.266v-23.966c0-1.533 0.31-2.607 0.92-3.22s1.7-0.92 3.27-0.92c1.53 0 2.6 0.322 3.22 0.966 0.61 0.613 0.92 1.702 0.92 3.266v23.92c0 1.533-0.31 2.607-0.92 3.22-0.62 0.613-1.71 0.92-3.27 0.92zm-4.6-19.32c-1.04 0.92-1.99 1.365-2.85 1.334-0.83-0.031-1.73-0.567-2.72-1.61-1.01-1.073-1.48-2.085-1.42-3.036s0.7-1.963 1.93-3.036l5.84-5.244c1.01-0.92 1.95-1.334 2.81-1.242 0.89 0.061 1.81 0.613 2.76 1.656 0.98 1.043 1.42 2.039 1.33 2.99-0.06 0.92-0.7 1.932-1.93 3.036zm17.06 19.182c-1.38 0-2.36-0.199-2.94-0.598-0.58-0.429-0.94-0.966-1.06-1.61-0.12-0.675-0.18-1.365-0.18-2.07v-23.736c0-0.675 0.06-1.334 0.18-1.978s0.48-1.165 1.06-1.564c0.58-0.429 1.58-0.644 2.99-0.644h10.76c1.87 0 3.54 0.46 5.02 1.38 1.47 0.889 2.63 2.085 3.49 3.588s1.29 3.128 1.29 4.876c0 0.583-0.06 1.181-0.18 1.794-0.1 0.583-0.26 1.165-0.51 1.748-0.21 0.552-0.49 1.089-0.83 1.61 0.52 0.644 0.97 1.349 1.34 2.116 0.36 0.736 0.64 1.503 0.82 2.3 0.19 0.767 0.28 1.549 0.28 2.346-0.03 1.472-0.32 2.852-0.87 4.14-0.52 1.257-1.26 2.361-2.21 3.312-0.95 0.92-2.04 1.656-3.27 2.208-1.22 0.521-2.53 0.782-3.91 0.782zm4.23-8.418h6.58c0.22 0 0.51-0.031 0.88-0.092 0.36-0.092 0.69-0.307 0.96-0.644 0.31-0.368 0.46-0.966 0.46-1.794 0-0.429-0.04-0.782-0.14-1.058-0.06-0.307-0.16-0.537-0.32-0.69-0.15-0.184-0.33-0.307-0.55-0.368-0.18-0.092-0.41-0.153-0.69-0.184-0.24-0.031-0.52-0.046-0.83-0.046h-0.6c-1.22 0-2.1-0.261-2.62-0.782s-0.78-1.441-0.78-2.76c0-1.257 0.28-2.131 0.83-2.622 0.58-0.521 1.52-0.782 2.8-0.782h0.56c0.24 0 0.46-0.015 0.64-0.046s0.32-0.107 0.41-0.23c0.13-0.123 0.22-0.291 0.28-0.506 0.06-0.245 0.09-0.567 0.09-0.966 0-0.705-0.17-1.181-0.5-1.426-0.31-0.245-0.94-0.368-1.89-0.368h-5.57z" fill="#000"/>
 <circle cx="922" cy="135.08" r="5" fill="#e6f7f6" stroke="#000" stroke-width="3"/>
 <g fill="#000">
  <path d="m899.86 62.82c-0.45 0-0.78-0.072-0.99-0.216-0.21-0.128-0.33-0.304-0.38-0.528s-0.07-0.472-0.07-0.744v-13.848c0-0.544 0.1-0.92 0.31-1.128 0.22-0.208 0.62-0.312 1.2-0.312h9.36c0.27 0 0.51 0.032 0.72 0.096 0.21 0.048 0.37 0.176 0.5 0.384 0.13 0.192 0.19 0.52 0.19 0.984 0 0.448-0.07 0.776-0.21 0.984-0.13 0.208-0.31 0.336-0.53 0.384-0.21 0.048-0.45 0.072-0.72 0.072h-7.92v4.032h5.45c0.27 0 0.5 0.032 0.69 0.096 0.21 0.048 0.36 0.168 0.46 0.36 0.11 0.176 0.17 0.472 0.17 0.888 0 0.384-0.06 0.672-0.17 0.864-0.11 0.176-0.27 0.288-0.48 0.336-0.19 0.032-0.42 0.048-0.7 0.048h-5.42v5.784c0 0.272-0.03 0.52-0.1 0.744-0.04 0.208-0.17 0.376-0.38 0.504-0.21 0.144-0.54 0.216-0.98 0.216zm14.97-0.024c-0.41 0-0.73-0.072-0.93-0.216-0.21-0.128-0.35-0.304-0.41-0.528-0.07-0.224-0.1-0.464-0.1-0.72v-13.872c0-0.256 0.03-0.488 0.07-0.696 0.07-0.224 0.2-0.4 0.41-0.528 0.21-0.144 0.54-0.216 0.99-0.216l4.51 0.024c1.17 0 2.24 0.2 3.21 0.6 1 0.4 1.85 0.968 2.57 1.704s1.27 1.616 1.66 2.64c0.4 1.008 0.6 2.12 0.6 3.336 0 1.248-0.2 2.392-0.6 3.432s-0.96 1.936-1.68 2.688-1.58 1.336-2.57 1.752c-0.98 0.4-2.06 0.6-3.26 0.6zm1.47-2.904h3.07c1.02 0 1.92-0.224 2.69-0.672 0.76-0.464 1.36-1.104 1.77-1.92 0.43-0.816 0.65-1.768 0.65-2.856 0-1.104-0.22-2.064-0.65-2.88-0.41-0.832-1.01-1.472-1.8-1.92-0.77-0.464-1.66-0.696-2.69-0.696h-3.04zm20.15 2.904c-0.37 0-0.68-0.064-0.94-0.192-0.24-0.112-0.42-0.312-0.55-0.6l-5.95-14.04c-0.21-0.496-0.25-0.864-0.12-1.104s0.42-0.48 0.89-0.72c0.32-0.176 0.6-0.264 0.84-0.264 0.24-0.016 0.44 0.056 0.6 0.216 0.17 0.144 0.32 0.384 0.45 0.72l4.75 11.904 4.71-11.784c0.14-0.32 0.29-0.568 0.45-0.744 0.16-0.192 0.37-0.288 0.63-0.288 0.25-0.016 0.56 0.072 0.91 0.264 0.56 0.272 0.86 0.552 0.91 0.84s-0.03 0.656-0.24 1.104l-5.9 13.896c-0.11 0.24-0.3 0.432-0.55 0.576-0.26 0.144-0.56 0.216-0.89 0.216z"/>
  <path d="m825.07 111.77c-0.72 0-1.24-0.104-1.54-0.312-0.3-0.224-0.49-0.504-0.55-0.84-0.07-0.352-0.1-0.712-0.1-1.08v-12.384c0-0.352 0.03-0.696 0.1-1.032 0.06-0.336 0.25-0.608 0.55-0.816 0.3-0.224 0.82-0.336 1.56-0.336h5.62c0.97 0 1.84 0.24 2.61 0.72 0.77 0.464 1.38 1.088 1.83 1.872 0.44 0.784 0.67 1.632 0.67 2.544 0 0.304-0.03 0.616-0.1 0.936-0.05 0.304-0.13 0.608-0.26 0.912-0.11 0.288-0.26 0.568-0.43 0.84 0.27 0.336 0.5 0.704 0.69 1.104 0.19 0.384 0.34 0.784 0.43 1.2 0.1 0.4 0.15 0.808 0.15 1.224-0.02 0.768-0.17 1.488-0.46 2.16-0.27 0.656-0.65 1.232-1.15 1.728-0.5 0.48-1.06 0.864-1.7 1.152-0.64 0.272-1.32 0.408-2.04 0.408zm2.2-4.392h3.44c0.11 0 0.26-0.016 0.45-0.048 0.19-0.048 0.36-0.16 0.51-0.336 0.16-0.192 0.24-0.504 0.24-0.936 0-0.224-0.03-0.408-0.08-0.552-0.03-0.16-0.08-0.28-0.16-0.36-0.08-0.096-0.18-0.16-0.29-0.192-0.1-0.048-0.22-0.08-0.36-0.096-0.13-0.016-0.27-0.024-0.43-0.024h-0.32c-0.64 0-1.09-0.136-1.36-0.408-0.28-0.272-0.41-0.752-0.41-1.44 0-0.656 0.14-1.112 0.43-1.368 0.3-0.272 0.79-0.408 1.46-0.408h0.29c0.13 0 0.24-8e-3 0.34-0.024 0.09-0.016 0.17-0.056 0.21-0.12 0.07-0.064 0.12-0.152 0.15-0.264 0.03-0.128 0.05-0.296 0.05-0.504 0-0.368-0.09-0.616-0.27-0.744-0.16-0.128-0.49-0.192-0.98-0.192h-2.91zm22.21-12.408c0.3 0 0.59 0.024 0.86 0.072s0.5 0.2 0.67 0.456c0.19 0.256 0.29 0.696 0.29 1.32 0 0.608-0.1 1.048-0.29 1.32-0.17 0.256-0.41 0.408-0.69 0.456s-0.56 0.072-0.87 0.072h-3.31v10.992c0 0.352-0.03 0.696-0.1 1.032-0.06 0.32-0.24 0.584-0.55 0.792-0.29 0.208-0.8 0.312-1.53 0.312-0.71 0-1.21-0.104-1.52-0.312-0.3-0.224-0.48-0.496-0.55-0.816-0.05-0.336-0.07-0.68-0.07-1.032v-10.968h-3.34c-0.28 0-0.57-0.024-0.86-0.072-0.27-0.064-0.5-0.224-0.7-0.48-0.17-0.256-0.26-0.696-0.26-1.32 0-0.608 0.09-1.04 0.26-1.296 0.2-0.256 0.44-0.408 0.72-0.456 0.29-0.048 0.58-0.072 0.87-0.072zm10.01 17.064c-0.63 0-1.32-0.104-2.09-0.312-0.77-0.192-1.55-0.504-2.33-0.936-0.77-0.432-1.48-0.992-2.14-1.68-0.64-0.688-1.16-1.512-1.56-2.472-0.38-0.96-0.57-2.072-0.57-3.336 0-1.216 0.19-2.288 0.57-3.216 0.4-0.928 0.92-1.728 1.56-2.4s1.35-1.216 2.12-1.632c0.78-0.416 1.56-0.72 2.35-0.912 0.78-0.208 1.5-0.312 2.16-0.312 0.81 0 1.53 0.104 2.16 0.312 0.62 0.192 1.13 0.4 1.51 0.624 0.4 0.208 0.65 0.344 0.74 0.408 0.32 0.208 0.62 0.44 0.89 0.696 0.29 0.24 0.43 0.568 0.43 0.984 0 0.208-0.04 0.424-0.14 0.648-0.08 0.224-0.21 0.456-0.38 0.696-0.32 0.448-0.63 0.776-0.92 0.984-0.27 0.208-0.54 0.312-0.81 0.312-0.21 0-0.41-0.048-0.6-0.144s-0.43-0.232-0.7-0.408c-0.11-0.08-0.25-0.168-0.43-0.264-0.18-0.112-0.42-0.208-0.72-0.288-0.3-0.096-0.7-0.144-1.2-0.144-0.42 0-0.87 0.08-1.37 0.24-0.48 0.144-0.93 0.384-1.37 0.72-0.43 0.32-0.78 0.752-1.05 1.296-0.27 0.528-0.41 1.168-0.41 1.92 0 0.768 0.14 1.416 0.41 1.944 0.29 0.528 0.65 0.96 1.08 1.296 0.43 0.32 0.89 0.56 1.37 0.72 0.49 0.144 0.94 0.216 1.34 0.216 0.42 0 0.77-0.032 1.06-0.096 0.28-0.08 0.54-0.184 0.76-0.312 0.24-0.128 0.46-0.256 0.65-0.384 0.18-0.128 0.37-0.24 0.58-0.336s0.41-0.144 0.62-0.144c0.27 0 0.55 0.112 0.82 0.336s0.56 0.568 0.86 1.032c0.18 0.272 0.31 0.528 0.39 0.768 0.09 0.224 0.14 0.432 0.14 0.624 0 0.4-0.14 0.72-0.43 0.96-0.27 0.24-0.57 0.456-0.89 0.648-0.11 0.064-0.35 0.208-0.72 0.432s-0.86 0.432-1.49 0.624c-0.62 0.192-1.37 0.288-2.25 0.288zm-30.23 22.736c-0.72 0-1.23-0.104-1.54-0.312-0.3-0.224-0.49-0.504-0.55-0.84-0.06-0.352-0.1-0.704-0.1-1.056v-12.384c0-0.352 0.04-0.696 0.1-1.032s0.25-0.608 0.55-0.816c0.31-0.224 0.83-0.336 1.56-0.336 0.74 0 1.25 0.112 1.54 0.336 0.3 0.208 0.49 0.48 0.55 0.816s0.1 0.688 0.1 1.056v12.384c0 0.352-0.04 0.696-0.1 1.032s-0.25 0.616-0.55 0.84c-0.31 0.208-0.83 0.312-1.56 0.312zm-9.87 0c-0.72 0-1.23-0.104-1.53-0.312-0.31-0.224-0.49-0.504-0.55-0.84-0.07-0.352-0.1-0.704-0.1-1.056v-12.384c0-0.352 0.03-0.696 0.1-1.032 0.06-0.336 0.24-0.608 0.55-0.816 0.3-0.224 0.82-0.336 1.56-0.336 0.73 0 1.25 0.112 1.53 0.336 0.31 0.208 0.49 0.48 0.56 0.816 0.06 0.336 0.09 0.688 0.09 1.056v12.384c0 0.352-0.03 0.696-0.09 1.032-0.07 0.336-0.25 0.616-0.56 0.84-0.3 0.208-0.82 0.312-1.56 0.312zm1.83-6.504v-3.744h6.24v3.744zm14.02 6.528c-0.72 0-1.23-0.104-1.53-0.312-0.31-0.224-0.49-0.504-0.56-0.84-0.06-0.352-0.09-0.704-0.09-1.056v-12.408c0-0.352 0.03-0.696 0.09-1.032 0.07-0.336 0.25-0.608 0.56-0.816 0.3-0.224 0.82-0.336 1.56-0.336 0.73 0 1.24 0.112 1.53 0.336 0.31 0.208 0.49 0.48 0.55 0.816 0.07 0.336 0.1 0.688 0.1 1.056v12.408c0 0.352-0.03 0.696-0.1 1.032-0.06 0.336-0.24 0.616-0.55 0.84-0.3 0.208-0.82 0.312-1.56 0.312zm12.42 0.24c-1.16 0-2.24-0.232-3.27-0.696-1.01-0.464-1.9-1.104-2.69-1.92-0.78-0.816-1.4-1.76-1.84-2.832s-0.65-2.216-0.65-3.432c0-1.168 0.22-2.256 0.67-3.264 0.45-1.024 1.06-1.92 1.85-2.688 0.8-0.784 1.72-1.392 2.76-1.824 1.04-0.448 2.15-0.672 3.33-0.672 0.52 0 1.07 0.048 1.66 0.144s1.17 0.248 1.73 0.456c0.57 0.192 1.07 0.432 1.49 0.72 0.33 0.224 0.64 0.464 0.91 0.72 0.29 0.256 0.43 0.576 0.43 0.96 0 0.192-0.05 0.4-0.14 0.624-0.1 0.224-0.24 0.464-0.41 0.72-0.31 0.448-0.61 0.776-0.91 0.984-0.31 0.192-0.6 0.288-0.87 0.288-0.17 0-0.36-0.04-0.55-0.12-0.18-0.096-0.42-0.24-0.74-0.432-0.1-0.064-0.28-0.144-0.56-0.24-0.27-0.112-0.6-0.208-0.98-0.288-0.37-0.096-0.76-0.144-1.18-0.144-0.75 0-1.44 0.184-2.06 0.552-0.62 0.352-1.12 0.84-1.49 1.464s-0.55 1.32-0.55 2.088c0 0.784 0.19 1.512 0.58 2.184 0.38 0.656 0.88 1.192 1.51 1.608 0.64 0.4 1.33 0.6 2.06 0.6 0.29 0 0.57-8e-3 0.84-0.024 0.29-0.016 0.57-0.048 0.84-0.096s0.51-0.112 0.72-0.192v-2.064h-1.77c-0.29 0-0.56-0.024-0.82-0.072-0.26-0.064-0.46-0.224-0.62-0.48s-0.24-0.696-0.24-1.32 0.08-1.064 0.26-1.32 0.4-0.408 0.67-0.456 0.55-0.072 0.82-0.072h4.2c0.64 0.016 1.09 0.136 1.34 0.36 0.26 0.208 0.41 0.464 0.46 0.768 0.06 0.304 0.09 0.624 0.09 0.96v4.92c0 0.448-0.19 0.912-0.57 1.392-0.39 0.464-0.91 0.864-1.56 1.2-0.4 0.208-0.85 0.376-1.35 0.504-0.49 0.144-1.03 0.248-1.6 0.312-0.56 0.08-1.16 0.12-1.8 0.12zm20.92-0.264c-0.72 0-1.23-0.104-1.54-0.312-0.3-0.224-0.49-0.504-0.55-0.84-0.06-0.352-0.1-0.704-0.1-1.056v-12.384c0-0.352 0.04-0.696 0.1-1.032s0.25-0.608 0.55-0.816c0.31-0.224 0.83-0.336 1.56-0.336 0.74 0 1.25 0.112 1.54 0.336 0.3 0.208 0.49 0.48 0.55 0.816s0.1 0.688 0.1 1.056v12.384c0 0.352-0.04 0.696-0.1 1.032s-0.25 0.616-0.55 0.84c-0.31 0.208-0.83 0.312-1.56 0.312zm-9.87 0c-0.72 0-1.23-0.104-1.53-0.312-0.31-0.224-0.49-0.504-0.55-0.84-0.07-0.352-0.1-0.704-0.1-1.056v-12.384c0-0.352 0.03-0.696 0.1-1.032 0.06-0.336 0.24-0.608 0.55-0.816 0.3-0.224 0.82-0.336 1.56-0.336 0.73 0 1.25 0.112 1.53 0.336 0.31 0.208 0.49 0.48 0.56 0.816 0.06 0.336 0.09 0.688 0.09 1.056v12.384c0 0.352-0.03 0.696-0.09 1.032-0.07 0.336-0.25 0.616-0.56 0.84-0.3 0.208-0.82 0.312-1.56 0.312zm1.83-6.504v-3.744h6.24v3.744z"/>
  <path d="m572.25 210.82c-0.464 0-0.8-0.072-1.008-0.216-0.208-0.128-0.344-0.304-0.408-0.528-0.048-0.224-0.072-0.464-0.072-0.72v-13.848c0-0.272 0.024-0.52 0.072-0.744 0.064-0.224 0.192-0.4 0.384-0.528 0.208-0.128 0.544-0.192 1.008-0.192 0.448 0 0.768 0.064 0.96 0.192 0.208 0.128 0.336 0.304 0.384 0.528 0.064 0.224 0.096 0.472 0.096 0.744v12.72h7.32c0.24 0 0.456 0.024 0.648 0.072 0.192 0.032 0.344 0.144 0.456 0.336 0.112 0.176 0.168 0.464 0.168 0.864s-0.056 0.696-0.168 0.888c-0.112 0.176-0.264 0.288-0.456 0.336-0.192 0.064-0.408 0.096-0.648 0.096zm13.476 0c-0.448 0-0.776-0.072-0.984-0.216-0.208-0.128-0.336-0.304-0.384-0.528s-0.072-0.472-0.072-0.744v-13.848c0-0.256 0.024-0.496 0.072-0.72 0.064-0.224 0.192-0.4 0.384-0.528 0.208-0.128 0.544-0.192 1.008-0.192 0.448 0 0.768 0.064 0.96 0.192 0.208 0.128 0.336 0.304 0.384 0.528 0.064 0.224 0.096 0.472 0.096 0.744v13.848c0 0.272-0.032 0.52-0.096 0.744-0.048 0.208-0.176 0.376-0.384 0.504-0.208 0.144-0.536 0.216-0.984 0.216zm9.424 0.216c-0.72 0-1.376-0.088-1.968-0.264-0.576-0.176-1.088-0.4-1.536-0.672-0.432-0.272-0.8-0.552-1.104-0.84s-0.528-0.552-0.672-0.792c-0.208-0.288-0.344-0.544-0.408-0.768s-0.048-0.44 0.048-0.648c0.112-0.224 0.312-0.456 0.6-0.696 0.288-0.256 0.552-0.384 0.792-0.384 0.256-0.016 0.496 0.056 0.72 0.216 0.24 0.16 0.472 0.384 0.696 0.672 0.384 0.512 0.816 0.88 1.296 1.104 0.48 0.208 0.96 0.312 1.44 0.312 0.624 0 1.168-0.08 1.632-0.24 0.464-0.176 0.824-0.432 1.08-0.768 0.272-0.336 0.408-0.768 0.408-1.296 0-0.432-0.136-0.784-0.408-1.056-0.256-0.288-0.6-0.528-1.032-0.72-0.432-0.208-0.92-0.392-1.464-0.552-0.528-0.176-1.064-0.368-1.608-0.576-0.384-0.128-0.768-0.28-1.152-0.456-0.384-0.192-0.744-0.408-1.08-0.648-0.32-0.24-0.608-0.52-0.864-0.84-0.24-0.336-0.432-0.72-0.576-1.152s-0.216-0.936-0.216-1.512c0-0.912 0.224-1.712 0.672-2.4 0.448-0.704 1.072-1.256 1.872-1.656 0.8-0.416 1.712-0.624 2.736-0.624 0.656 0 1.24 0.064 1.752 0.192 0.528 0.112 0.976 0.264 1.344 0.456 0.384 0.176 0.696 0.36 0.936 0.552 0.256 0.176 0.44 0.328 0.552 0.456 0.368 0.368 0.568 0.68 0.6 0.936 0.048 0.24-0.096 0.568-0.432 0.984-0.336 0.432-0.664 0.672-0.984 0.72-0.304 0.032-0.648-0.096-1.032-0.384-0.256-0.272-0.512-0.488-0.768-0.648-0.256-0.176-0.544-0.304-0.864-0.384-0.304-0.08-0.68-0.12-1.128-0.12-0.32 0-0.632 0.048-0.936 0.144-0.288 0.08-0.536 0.208-0.744 0.384-0.208 0.16-0.376 0.36-0.504 0.6-0.112 0.24-0.168 0.512-0.168 0.816 0 0.416 0.112 0.76 0.336 1.032 0.24 0.256 0.56 0.472 0.96 0.648 0.4 0.16 0.848 0.312 1.344 0.456s1 0.296 1.512 0.456c0.528 0.176 1.048 0.384 1.56 0.624s0.968 0.544 1.368 0.912c0.4 0.352 0.72 0.8 0.96 1.344 0.24 0.528 0.36 1.176 0.36 1.944 0 0.88-0.168 1.648-0.504 2.304s-0.792 1.192-1.368 1.608-1.216 0.72-1.92 0.912c-0.704 0.208-1.416 0.312-2.136 0.312zm19.512-17.016c0.24 0 0.448 0.024 0.624 0.072 0.192 0.048 0.344 0.168 0.456 0.36 0.112 0.176 0.168 0.464 0.168 0.864s-0.056 0.696-0.168 0.888c-0.112 0.176-0.264 0.288-0.456 0.336-0.192 0.032-0.408 0.048-0.648 0.048h-4.416v12.792c0 0.272-0.032 0.52-0.096 0.744-0.048 0.208-0.176 0.376-0.384 0.504-0.192 0.128-0.52 0.192-0.984 0.192-0.432 0-0.752-0.072-0.96-0.216-0.208-0.128-0.336-0.296-0.384-0.504-0.048-0.224-0.072-0.472-0.072-0.744v-12.768h-4.464c-0.224 0-0.432-0.024-0.624-0.072s-0.352-0.16-0.48-0.336c-0.112-0.176-0.168-0.464-0.168-0.864s0.056-0.688 0.168-0.864c0.112-0.192 0.264-0.312 0.456-0.36 0.208-0.048 0.424-0.072 0.648-0.072zm4.897 16.8c-0.44 0-0.77-0.072-0.98-0.216-0.21-0.128-0.34-0.304-0.38-0.528-0.05-0.224-0.08-0.472-0.08-0.744v-13.848c0-0.256 0.03-0.496 0.08-0.72 0.06-0.224 0.19-0.4 0.38-0.528 0.21-0.128 0.54-0.192 1.01-0.192 0.45 0 0.77 0.064 0.96 0.192 0.21 0.128 0.33 0.304 0.38 0.528 0.07 0.224 0.1 0.472 0.1 0.744v13.848c0 0.272-0.03 0.52-0.1 0.744-0.05 0.208-0.17 0.376-0.38 0.504-0.21 0.144-0.54 0.216-0.99 0.216zm5.61-0.024c-0.43 0-0.75-0.072-0.96-0.216-0.19-0.128-0.32-0.304-0.38-0.528-0.05-0.224-0.07-0.464-0.07-0.72v-13.92c0-0.24 0.03-0.464 0.09-0.672 0.07-0.208 0.2-0.376 0.41-0.504 0.22-0.128 0.55-0.192 0.98-0.192 0.48 0 0.81 0.056 0.99 0.168 0.19 0.096 0.37 0.24 0.53 0.432l8.01 11.208v-10.44c0-0.24 0.03-0.464 0.1-0.672 0.06-0.208 0.2-0.376 0.41-0.504 0.2-0.128 0.52-0.192 0.96-0.192s0.76 0.072 0.96 0.216c0.2 0.128 0.33 0.304 0.38 0.528 0.06 0.224 0.1 0.472 0.1 0.744v13.824c0 0.256-0.04 0.496-0.12 0.72-0.07 0.208-0.21 0.376-0.44 0.504-0.2 0.144-0.53 0.216-0.98 0.216-0.35 0-0.63-0.032-0.84-0.096-0.19-0.064-0.37-0.2-0.53-0.408l-8.13-11.184v10.248c0 0.256-0.04 0.496-0.1 0.72-0.05 0.208-0.18 0.376-0.38 0.504-0.21 0.144-0.54 0.216-0.99 0.216zm23.65 0.12c-1.2 0-2.3-0.208-3.31-0.624-1.01-0.432-1.88-1.04-2.62-1.824-0.73-0.784-1.3-1.704-1.7-2.76-0.4-1.072-0.6-2.256-0.6-3.552 0-1.216 0.21-2.328 0.62-3.336 0.42-1.008 1-1.88 1.75-2.616 0.76-0.752 1.64-1.336 2.67-1.752 1.04-0.416 2.17-0.624 3.41-0.624 0.51 0 1.04 0.048 1.58 0.144 0.54 0.08 1.07 0.216 1.58 0.408 0.52 0.176 0.96 0.4 1.35 0.672 0.3 0.192 0.56 0.392 0.77 0.6 0.22 0.192 0.34 0.416 0.36 0.672 0.01 0.144-0.01 0.304-0.08 0.48-0.06 0.16-0.16 0.328-0.28 0.504-0.18 0.272-0.37 0.472-0.58 0.6-0.19 0.128-0.38 0.192-0.58 0.192-0.11 0-0.24-0.04-0.4-0.12-0.16-0.096-0.38-0.224-0.65-0.384-0.21-0.144-0.48-0.28-0.82-0.408-0.33-0.128-0.7-0.232-1.1-0.312s-0.82-0.12-1.25-0.12c-1.07 0-2.02 0.224-2.83 0.672-0.82 0.448-1.46 1.088-1.92 1.92-0.45 0.816-0.67 1.776-0.67 2.88 0 1.136 0.23 2.136 0.69 3 0.47 0.864 1.1 1.544 1.9 2.04 0.81 0.48 1.75 0.72 2.81 0.72 0.36 0 0.73-0.024 1.1-0.072 0.38-0.048 0.75-0.12 1.1-0.216 0.37-0.096 0.71-0.216 1.01-0.36v-3.792h-3.41c-0.22 0-0.43-0.024-0.62-0.072-0.18-0.048-0.32-0.16-0.43-0.336-0.1-0.176-0.15-0.464-0.15-0.864 0-0.416 0.06-0.712 0.17-0.888s0.26-0.288 0.43-0.336c0.2-0.048 0.4-0.072 0.63-0.072h4.89c0.42 0 0.72 0.072 0.92 0.216 0.19 0.144 0.32 0.328 0.38 0.552 0.06 0.208 0.1 0.448 0.1 0.72v5.592c0 0.32-0.16 0.648-0.48 0.984-0.31 0.336-0.74 0.648-1.3 0.936-0.37 0.192-0.79 0.36-1.27 0.504-0.47 0.128-0.97 0.232-1.51 0.312-0.53 0.08-1.08 0.12-1.66 0.12zm-65.993 22.88c-0.448 0-0.776-0.064-0.984-0.192s-0.336-0.304-0.384-0.528c-0.048-0.24-0.072-0.488-0.072-0.744v-13.848c0-0.256 0.024-0.488 0.072-0.696 0.064-0.224 0.2-0.4 0.408-0.528 0.208-0.144 0.536-0.216 0.984-0.216h5.088c0.704 0 1.392 0.12 2.064 0.36s1.272 0.6 1.8 1.08c0.544 0.48 0.968 1.072 1.272 1.776 0.32 0.704 0.48 1.528 0.48 2.472 0 0.928-0.16 1.744-0.48 2.448-0.304 0.688-0.728 1.272-1.272 1.752s-1.152 0.84-1.824 1.08c-0.656 0.24-1.344 0.36-2.064 0.36h-3.624v3.984c0 0.256-0.032 0.496-0.096 0.72-0.048 0.224-0.176 0.4-0.384 0.528-0.192 0.128-0.52 0.192-0.984 0.192zm1.464-8.352h3.648c0.496 0 0.944-0.096 1.344-0.288 0.416-0.208 0.752-0.512 1.008-0.912 0.256-0.416 0.384-0.936 0.384-1.56 0-0.56-0.12-1.04-0.36-1.44-0.224-0.416-0.544-0.736-0.96-0.96-0.4-0.224-0.88-0.336-1.44-0.336h-3.624zm13.24 8.352c-0.448 0-0.776-0.064-0.984-0.192-0.192-0.128-0.32-0.304-0.384-0.528-0.048-0.24-0.072-0.488-0.072-0.744v-13.848c0-0.256 0.032-0.488 0.096-0.696 0.064-0.224 0.192-0.4 0.384-0.528 0.208-0.144 0.536-0.216 0.984-0.216h5.136c0.736 0 1.432 0.12 2.088 0.36 0.672 0.224 1.272 0.576 1.8 1.056 0.528 0.464 0.944 1.056 1.248 1.776 0.32 0.704 0.48 1.528 0.48 2.472 0 0.624-0.096 1.248-0.288 1.872-0.192 0.608-0.48 1.176-0.864 1.704-0.368 0.512-0.84 0.952-1.416 1.32s-1.256 0.608-2.04 0.72h-4.704v4.032c0 0.256-0.032 0.496-0.096 0.72-0.048 0.224-0.176 0.4-0.384 0.528-0.192 0.128-0.52 0.192-0.984 0.192zm10.224-0.36c-0.464 0.32-0.848 0.44-1.152 0.36-0.288-0.08-0.576-0.336-0.864-0.768l-4.032-6.096 3.24-0.432 3.192 4.848c0.224 0.32 0.36 0.592 0.408 0.816s8e-3 0.432-0.12 0.624-0.352 0.408-0.672 0.648zm-8.76-7.992h4.056c0.288 0 0.568-0.048 0.84-0.144 0.288-0.112 0.544-0.28 0.768-0.504 0.224-0.24 0.4-0.528 0.528-0.864 0.144-0.352 0.216-0.768 0.216-1.248 0-0.576-0.112-1.064-0.336-1.464-0.224-0.416-0.544-0.728-0.96-0.936-0.4-0.224-0.888-0.336-1.464-0.336h-3.648zm13.371 8.376c-0.448 0-0.776-0.072-0.984-0.216-0.208-0.128-0.336-0.304-0.384-0.528s-0.072-0.472-0.072-0.744v-13.848c0-0.256 0.024-0.496 0.072-0.72 0.064-0.224 0.192-0.4 0.384-0.528 0.208-0.128 0.544-0.192 1.008-0.192 0.448 0 0.768 0.064 0.96 0.192 0.208 0.128 0.336 0.304 0.384 0.528 0.064 0.224 0.096 0.472 0.096 0.744v13.848c0 0.272-0.032 0.52-0.096 0.744-0.048 0.208-0.176 0.376-0.384 0.504-0.208 0.144-0.536 0.216-0.984 0.216zm12.324 0.096c-0.78 0-1.57-0.112-2.37-0.336-0.8-0.24-1.57-0.592-2.31-1.056-0.73-0.48-1.39-1.064-1.96-1.752-0.564-0.704-1.012-1.512-1.348-2.424-0.336-0.928-0.504-1.952-0.504-3.072 0-1.104 0.168-2.096 0.504-2.976 0.336-0.896 0.784-1.68 1.348-2.352 0.57-0.672 1.22-1.232 1.94-1.68 0.74-0.448 1.5-0.784 2.3-1.008 0.82-0.24 1.63-0.368 2.43-0.384 0.81 0 1.52 0.088 2.11 0.264s1.07 0.368 1.44 0.576c0.37 0.192 0.62 0.328 0.74 0.408 0.26 0.16 0.5 0.344 0.72 0.552 0.24 0.192 0.37 0.432 0.39 0.72 0.01 0.192-0.01 0.368-0.07 0.528-0.07 0.144-0.16 0.296-0.27 0.456-0.19 0.272-0.38 0.472-0.57 0.6-0.2 0.128-0.39 0.192-0.58 0.192-0.18 0-0.34-0.048-0.5-0.144-0.15-0.096-0.33-0.216-0.56-0.36-0.09-0.064-0.27-0.16-0.52-0.288-0.24-0.144-0.57-0.272-0.99-0.384-0.4-0.112-0.89-0.168-1.46-0.168-0.69 0-1.36 0.12-2.02 0.36-0.65 0.24-1.25 0.6-1.77 1.08-0.52 0.464-0.92 1.048-1.23 1.752-0.3 0.688-0.45 1.48-0.45 2.376s0.15 1.696 0.45 2.4c0.31 0.688 0.71 1.272 1.23 1.752 0.52 0.464 1.12 0.816 1.77 1.056 0.66 0.24 1.33 0.36 2.02 0.36 0.54 0 1.01-0.048 1.39-0.144 0.4-0.112 0.74-0.24 1.01-0.384 0.29-0.16 0.5-0.28 0.65-0.36 0.17-0.112 0.34-0.216 0.5-0.312s0.33-0.144 0.5-0.144c0.2 0 0.38 0.064 0.56 0.192 0.19 0.128 0.37 0.336 0.55 0.624 0.11 0.176 0.2 0.344 0.26 0.504 0.07 0.16 0.09 0.328 0.07 0.504-0.01 0.288-0.14 0.536-0.38 0.744-0.22 0.192-0.46 0.36-0.72 0.504-0.13 0.08-0.38 0.224-0.74 0.432-0.36 0.192-0.83 0.368-1.42 0.528-0.59 0.176-1.3 0.264-2.14 0.264zm9.54-0.096c-0.45 0-0.78-0.072-0.99-0.216-0.2-0.128-0.33-0.304-0.38-0.528s-0.07-0.472-0.07-0.744v-13.848c0-0.544 0.1-0.92 0.31-1.128 0.22-0.208 0.62-0.312 1.2-0.312h9.36c0.27 0 0.51 0.032 0.72 0.096 0.22 0.048 0.4 0.176 0.53 0.384 0.13 0.192 0.19 0.52 0.19 0.984 0 0.448-0.07 0.776-0.22 0.984-0.12 0.208-0.3 0.336-0.52 0.384-0.21 0.048-0.45 0.072-0.72 0.072h-7.95v4.032h5.47c0.28 0 0.51 0.032 0.7 0.096 0.19 0.048 0.34 0.16 0.46 0.336 0.11 0.176 0.16 0.472 0.16 0.888 0 0.4-0.05 0.696-0.16 0.888-0.12 0.176-0.28 0.288-0.48 0.336-0.21 0.032-0.45 0.048-0.72 0.048h-5.43v4.32h7.97c0.27 0 0.51 0.032 0.72 0.096 0.22 0.048 0.4 0.176 0.53 0.384s0.19 0.536 0.19 0.984-0.07 0.776-0.22 0.984c-0.12 0.208-0.3 0.336-0.52 0.384-0.21 0.064-0.45 0.096-0.72 0.096z"/>
  <path d="m574.08 176.16c0 0.592-0.08 1.128-0.24 1.608-0.16 0.464-0.392 0.88-0.696 1.248-0.288 0.352-0.648 0.648-1.08 0.888-0.416 0.24-0.888 0.424-1.416 0.552v1.296c0 0.304-0.024 0.6-0.072 0.888s-0.184 0.52-0.408 0.696c-0.208 0.192-0.568 0.288-1.08 0.288-0.496 0-0.856-0.096-1.08-0.288-0.208-0.192-0.336-0.432-0.384-0.72-0.032-0.288-0.048-0.576-0.048-0.864v-1.296c-0.4-0.096-0.784-0.232-1.152-0.408-0.352-0.176-0.68-0.384-0.984-0.624-0.288-0.24-0.552-0.512-0.792-0.816-0.368-0.512-0.528-0.936-0.48-1.272 0.048-0.352 0.32-0.768 0.816-1.248 0.304-0.272 0.6-0.424 0.888-0.456 0.304-0.048 0.592 8e-3 0.864 0.168 0.288 0.144 0.544 0.36 0.768 0.648 0.272 0.32 0.52 0.552 0.744 0.696 0.224 0.128 0.488 0.192 0.792 0.192 0.336 0 0.608-0.04 0.816-0.12s0.36-0.2 0.456-0.36c0.096-0.176 0.144-0.392 0.144-0.648 0-0.288-0.2-0.488-0.6-0.6-0.384-0.128-0.872-0.256-1.464-0.384s-1.176-0.328-1.752-0.6c-0.304-0.144-0.592-0.32-0.864-0.528s-0.512-0.456-0.72-0.744c-0.208-0.304-0.376-0.648-0.504-1.032-0.112-0.4-0.168-0.864-0.168-1.392s0.072-1.008 0.216-1.44 0.352-0.808 0.624-1.128c0.288-0.336 0.624-0.616 1.008-0.84 0.4-0.224 0.848-0.392 1.344-0.504v-1.104c0-0.304 0.016-0.592 0.048-0.864 0.048-0.288 0.176-0.52 0.384-0.696 0.224-0.192 0.592-0.288 1.104-0.288 0.496 0 0.848 0.096 1.056 0.288 0.224 0.192 0.36 0.432 0.408 0.72 0.048 0.272 0.072 0.56 0.072 0.864v1.032c0.368 0.064 0.696 0.176 0.984 0.336 0.288 0.144 0.616 0.368 0.984 0.672 0.448 0.384 0.688 0.712 0.72 0.984 0.048 0.272-0.112 0.68-0.48 1.224-0.24 0.384-0.496 0.656-0.768 0.816-0.256 0.16-0.52 0.216-0.792 0.168s-0.568-0.176-0.888-0.384c-0.112-0.08-0.224-0.168-0.336-0.264-0.096-0.096-0.232-0.176-0.408-0.24-0.16-0.064-0.408-0.096-0.744-0.096-0.128 0-0.248 0.024-0.36 0.072-0.112 0.032-0.216 0.088-0.312 0.168-0.08 0.064-0.152 0.144-0.216 0.24-0.048 0.096-0.072 0.192-0.072 0.288 0 0.288 0.12 0.504 0.36 0.648 0.256 0.144 0.584 0.256 0.984 0.336 0.416 0.08 0.856 0.168 1.32 0.264 0.416 0.096 0.824 0.224 1.224 0.384 0.416 0.16 0.792 0.384 1.128 0.672s0.6 0.664 0.792 1.128c0.208 0.464 0.312 1.056 0.312 1.776zm7.449 5.952c-1.12 0-2.072-0.192-2.856-0.576-0.768-0.4-1.392-0.92-1.872-1.56s-0.856-1.344-1.128-2.112c-0.256-0.768-0.432-1.536-0.528-2.304-0.096-0.784-0.144-1.496-0.144-2.136 0-0.576 0.048-1.24 0.144-1.992s0.264-1.512 0.504-2.28c0.256-0.784 0.624-1.504 1.104-2.16 0.48-0.672 1.104-1.208 1.872-1.608 0.784-0.416 1.736-0.624 2.856-0.624 1.088 0 2.008 0.2 2.76 0.6 0.768 0.4 1.384 0.928 1.848 1.584 0.48 0.64 0.848 1.352 1.104 2.136 0.272 0.768 0.456 1.536 0.552 2.304s0.144 1.456 0.144 2.064c0 0.64-0.056 1.352-0.168 2.136-0.096 0.768-0.28 1.536-0.552 2.304-0.256 0.768-0.624 1.472-1.104 2.112-0.464 0.64-1.072 1.152-1.824 1.536-0.736 0.384-1.64 0.576-2.712 0.576zm-0.096-4.416c0.416 0 0.752-0.096 1.008-0.288 0.256-0.208 0.456-0.472 0.6-0.792s0.248-0.664 0.312-1.032c0.064-0.384 0.104-0.752 0.12-1.104 0.016-0.368 0.024-0.68 0.024-0.936v-0.12c0-0.928-0.08-1.704-0.24-2.328-0.144-0.64-0.368-1.12-0.672-1.44-0.288-0.336-0.664-0.504-1.128-0.504-0.48 0-0.872 0.16-1.176 0.48s-0.528 0.8-0.672 1.44-0.216 1.432-0.216 2.376c0 0.912 0.072 1.688 0.216 2.328 0.16 0.624 0.392 1.104 0.696 1.44 0.304 0.32 0.68 0.48 1.128 0.48zm9.682 4.128c-0.848 0-1.448-0.168-1.8-0.504-0.336-0.336-0.504-0.92-0.504-1.752 0-0.592 0.072-1.056 0.216-1.392 0.16-0.336 0.408-0.576 0.744-0.72 0.336-0.16 0.792-0.24 1.368-0.24 0.848 0 1.44 0.176 1.776 0.528 0.336 0.336 0.504 0.936 0.504 1.8 0 0.56-0.072 1.008-0.216 1.344s-0.384 0.576-0.72 0.72-0.792 0.216-1.368 0.216zm9.738 0.288c-1.12 0-2.072-0.192-2.856-0.576-0.768-0.4-1.392-0.92-1.872-1.56s-0.856-1.344-1.128-2.112c-0.256-0.768-0.432-1.536-0.528-2.304-0.096-0.784-0.144-1.496-0.144-2.136 0-0.576 0.048-1.24 0.144-1.992s0.264-1.512 0.504-2.28c0.256-0.784 0.624-1.504 1.104-2.16 0.48-0.672 1.104-1.208 1.872-1.608 0.784-0.416 1.736-0.624 2.856-0.624 1.088 0 2.008 0.2 2.76 0.6 0.768 0.4 1.384 0.928 1.848 1.584 0.48 0.64 0.848 1.352 1.104 2.136 0.272 0.768 0.456 1.536 0.552 2.304s0.144 1.456 0.144 2.064c0 0.64-0.056 1.352-0.168 2.136-0.096 0.768-0.28 1.536-0.552 2.304-0.256 0.768-0.624 1.472-1.104 2.112-0.464 0.64-1.072 1.152-1.824 1.536-0.736 0.384-1.64 0.576-2.712 0.576zm-0.096-4.416c0.416 0 0.752-0.096 1.008-0.288 0.256-0.208 0.456-0.472 0.6-0.792s0.248-0.664 0.312-1.032c0.064-0.384 0.104-0.752 0.12-1.104 0.016-0.368 0.024-0.68 0.024-0.936v-0.12c0-0.928-0.08-1.704-0.24-2.328-0.144-0.64-0.368-1.12-0.672-1.44-0.288-0.336-0.664-0.504-1.128-0.504-0.48 0-0.872 0.16-1.176 0.48s-0.528 0.8-0.672 1.44-0.216 1.432-0.216 2.376c0 0.912 0.072 1.688 0.216 2.328 0.16 0.624 0.392 1.104 0.696 1.44 0.304 0.32 0.68 0.48 1.128 0.48zm13.906 4.416c-1.12 0-2.072-0.192-2.856-0.576-0.768-0.4-1.392-0.92-1.872-1.56s-0.856-1.344-1.128-2.112c-0.256-0.768-0.432-1.536-0.528-2.304-0.096-0.784-0.144-1.496-0.144-2.136 0-0.576 0.048-1.24 0.144-1.992s0.264-1.512 0.504-2.28c0.256-0.784 0.624-1.504 1.104-2.16 0.48-0.672 1.104-1.208 1.872-1.608 0.784-0.416 1.736-0.624 2.856-0.624 1.088 0 2.008 0.2 2.76 0.6 0.768 0.4 1.388 0.928 1.848 1.584 0.48 0.64 0.85 1.352 1.1 2.136 0.28 0.768 0.46 1.536 0.56 2.304 0.09 0.768 0.14 1.456 0.14 2.064 0 0.64-0.06 1.352-0.17 2.136-0.09 0.768-0.28 1.536-0.55 2.304-0.26 0.768-0.62 1.472-1.1 2.112-0.47 0.64-1.08 1.152-1.828 1.536-0.736 0.384-1.64 0.576-2.712 0.576zm-0.096-4.416c0.416 0 0.752-0.096 1.008-0.288 0.256-0.208 0.456-0.472 0.6-0.792s0.248-0.664 0.312-1.032c0.064-0.384 0.104-0.752 0.12-1.104 0.016-0.368 0.024-0.68 0.024-0.936v-0.12c0-0.928-0.08-1.704-0.24-2.328-0.144-0.64-0.368-1.12-0.672-1.44-0.288-0.336-0.664-0.504-1.128-0.504-0.48 0-0.872 0.16-1.176 0.48s-0.528 0.8-0.672 1.44-0.216 1.432-0.216 2.376c0 0.912 0.072 1.688 0.216 2.328 0.16 0.624 0.392 1.104 0.696 1.44 0.304 0.32 0.68 0.48 1.128 0.48zm9.566 4.152c-0.6 0-1.11-0.224-1.54-0.672s-0.65-0.968-0.65-1.56c0-0.304 0.03-0.592 0.1-0.864 0.08-0.272 0.18-0.528 0.31-0.768 0.13-0.256 0.28-0.488 0.46-0.696 0.41-0.528 0.92-1.008 1.53-1.44s1.24-0.84 1.9-1.224c0.65-0.384 1.27-0.768 1.85-1.152 0.57-0.384 1.04-0.8 1.39-1.248 0.37-0.448 0.55-0.944 0.55-1.488 0-0.16-0.04-0.36-0.12-0.6-0.06-0.256-0.22-0.48-0.48-0.672-0.26-0.208-0.66-0.312-1.22-0.312-0.34 0-0.63 0.048-0.87 0.144-0.24 0.08-0.43 0.208-0.57 0.384-0.15 0.16-0.26 0.368-0.34 0.624-0.06 0.24-0.1 0.52-0.1 0.84 0 0.336-0.03 0.664-0.09 0.984-0.07 0.304-0.25 0.56-0.55 0.768-0.31 0.192-0.83 0.288-1.56 0.288-0.72 0-1.24-0.104-1.54-0.312-0.3-0.224-0.49-0.504-0.55-0.84-0.07-0.352-0.1-0.704-0.1-1.056 0-0.736 0.14-1.472 0.41-2.208 0.29-0.736 0.7-1.4 1.25-1.992 0.54-0.608 1.2-1.096 1.97-1.464 0.76-0.368 1.64-0.552 2.61-0.552 1.17 0 2.23 0.288 3.17 0.864 0.94 0.56 1.7 1.32 2.26 2.28 0.56 0.944 0.84 2.008 0.84 3.192 0 0.784-0.13 1.496-0.39 2.136-0.25 0.64-0.59 1.216-1.01 1.728-0.4 0.496-0.83 0.928-1.29 1.296-0.47 0.352-0.91 0.648-1.35 0.888-0.43 0.224-0.79 0.392-1.08 0.504-0.28 0.112-0.46 0.168-0.52 0.168l0.24-0.384h3.79c0.37 0 0.72 0.032 1.05 0.096 0.34 0.064 0.61 0.256 0.82 0.576 0.21 0.304 0.31 0.824 0.31 1.56 0 0.704-0.11 1.216-0.33 1.536-0.21 0.304-0.49 0.488-0.84 0.552-0.34 0.064-0.69 0.096-1.06 0.096zm18.17 0.264c-1.12 0-2.07-0.192-2.85-0.576-0.77-0.4-1.39-0.92-1.87-1.56s-0.86-1.344-1.13-2.112c-0.26-0.768-0.43-1.536-0.53-2.304-0.1-0.784-0.14-1.496-0.14-2.136 0-0.576 0.04-1.24 0.14-1.992s0.26-1.512 0.5-2.28c0.26-0.784 0.63-1.504 1.11-2.16 0.48-0.672 1.1-1.208 1.87-1.608 0.78-0.416 1.74-0.624 2.86-0.624 1.08 0 2 0.2 2.76 0.6s1.38 0.928 1.84 1.584c0.48 0.64 0.85 1.352 1.11 2.136 0.27 0.768 0.45 1.536 0.55 2.304s0.14 1.456 0.14 2.064c0 0.64-0.05 1.352-0.16 2.136-0.1 0.768-0.28 1.536-0.56 2.304-0.25 0.768-0.62 1.472-1.1 2.112-0.46 0.64-1.07 1.152-1.82 1.536-0.74 0.384-1.64 0.576-2.72 0.576zm-0.09-4.416c0.41 0 0.75-0.096 1.01-0.288 0.25-0.208 0.45-0.472 0.6-0.792 0.14-0.32 0.24-0.664 0.31-1.032 0.06-0.384 0.1-0.752 0.12-1.104 0.01-0.368 0.02-0.68 0.02-0.936v-0.12c0-0.928-0.08-1.704-0.24-2.328-0.14-0.64-0.37-1.12-0.67-1.44-0.29-0.336-0.66-0.504-1.13-0.504-0.48 0-0.87 0.16-1.17 0.48-0.31 0.32-0.53 0.8-0.68 1.44-0.14 0.64-0.21 1.432-0.21 2.376 0 0.912 0.07 1.688 0.21 2.328 0.16 0.624 0.4 1.104 0.7 1.44 0.3 0.32 0.68 0.48 1.13 0.48zm13.59 4.416c-1.17 0-2.22-0.248-3.17-0.744-0.92-0.512-1.67-1.2-2.23-2.064-0.54-0.88-0.81-1.872-0.81-2.976 0-0.528 0.08-1.008 0.26-1.44 0.18-0.448 0.38-0.832 0.62-1.152s0.46-0.568 0.65-0.744c0.21-0.192 0.34-0.304 0.39-0.336 0.04-0.048-0.04 0-0.24 0.144 0.24 0.16 0.31 0.216 0.21 0.168-0.08-0.064-0.24-0.224-0.48-0.48-0.22-0.256-0.44-0.6-0.65-1.032-0.19-0.432-0.28-0.936-0.28-1.512 0-0.992 0.25-1.88 0.76-2.664 0.52-0.8 1.2-1.432 2.07-1.896 0.88-0.48 1.85-0.72 2.9-0.72 1.04 0 1.99 0.24 2.83 0.72 0.85 0.464 1.52 1.104 2.02 1.92 0.51 0.816 0.77 1.728 0.77 2.736 0 0.384-0.07 0.752-0.19 1.104-0.13 0.336-0.28 0.64-0.46 0.912-0.18 0.256-0.34 0.464-0.48 0.624s-0.23 0.256-0.26 0.288c-0.02 0.032 0.05-0.024 0.21-0.168-0.19-0.144-0.26-0.192-0.21-0.144 0.04 0.032 0.16 0.144 0.36 0.336s0.42 0.448 0.64 0.768c0.24 0.32 0.44 0.704 0.6 1.152 0.18 0.432 0.27 0.904 0.27 1.416 0 0.912-0.19 1.728-0.55 2.448-0.37 0.72-0.86 1.328-1.47 1.824-0.59 0.496-1.25 0.872-1.97 1.128-0.7 0.256-1.4 0.384-2.11 0.384zm-0.02-4.2c0.37 0 0.68-0.056 0.93-0.168 0.26-0.128 0.45-0.304 0.58-0.528 0.14-0.224 0.22-0.488 0.22-0.792s-0.08-0.56-0.22-0.768c-0.13-0.224-0.33-0.392-0.6-0.504-0.26-0.112-0.58-0.168-0.96-0.168-0.37 0-0.69 0.056-0.96 0.168-0.26 0.112-0.46 0.28-0.6 0.504-0.13 0.208-0.19 0.464-0.19 0.768s0.07 0.568 0.21 0.792c0.15 0.224 0.35 0.4 0.6 0.528 0.28 0.112 0.6 0.168 0.99 0.168zm0-6.984c0.27 0 0.49-0.04 0.67-0.12 0.19-0.08 0.34-0.192 0.43-0.336 0.1-0.16 0.15-0.344 0.15-0.552s-0.06-0.384-0.17-0.528c-0.1-0.16-0.24-0.28-0.43-0.36-0.18-0.08-0.4-0.12-0.68-0.12-0.25 0-0.48 0.04-0.67 0.12s-0.33 0.2-0.43 0.36c-0.1 0.144-0.14 0.32-0.14 0.528s0.04 0.392 0.14 0.552c0.11 0.144 0.26 0.256 0.46 0.336 0.19 0.08 0.41 0.12 0.67 0.12z"/>
 </g>
 <circle cx="614.03" cy="310.08" r="5" fill="#e6f7f6" stroke="#000" stroke-width="3"/>
 <circle cx="379" cy="353.08" r="9" fill="#e6f7f6" stroke="#000" stroke-width="3"/>
 <circle cx="379" cy="353.08" r="3.5" fill="#000"/>
 <circle cx="845" cy="207.08" r="5" fill="#e6f7f6" stroke="#000" stroke-width="3"/>
 <defs>
  <linearGradient id="a" x1="1351" x2="419" y1="883" y2="883" gradientTransform="translate(-382.47 -634.42)" gradientUnits="userSpaceOnUse">
   <stop stop-color="#8AB1FF" stop-opacity="0" offset="0"/>
   <stop stop-color="#8AB1FF" offset=".045064"/>
  </linearGradient>
 </defs>
</svg>
