<svg xmlns="http://www.w3.org/2000/svg" width="13" height="11" viewBox="0 0 13 11" fill="none">
<path d="M12.1908 8.64181L10.2924 10.6337C10.2511 10.677 10.2011 10.7115 10.1457 10.7351C10.0902 10.7586 10.0303 10.7708 9.96984 10.7708H0.970393C0.927452 10.7708 0.885446 10.7585 0.849538 10.7354C0.813629 10.7124 0.785381 10.6796 0.768265 10.6411C0.751149 10.6025 0.74591 10.56 0.753192 10.5186C0.760475 10.4772 0.77996 10.4387 0.809256 10.408L2.70911 8.41613C2.75027 8.37297 2.80004 8.33854 2.85534 8.31498C2.91065 8.2914 2.97032 8.27919 3.03065 8.27908H12.0296C12.0725 8.27908 12.1145 8.29136 12.1505 8.31439C12.1863 8.33743 12.2146 8.37024 12.2318 8.40876C12.2489 8.4473 12.2541 8.48987 12.2468 8.53127C12.2395 8.57268 12.22 8.6111 12.1908 8.64181ZM10.2924 4.63071C10.2511 4.58744 10.2011 4.55294 10.1457 4.52936C10.0902 4.50579 10.0303 4.49364 9.96984 4.49367H0.970393C0.927452 4.49367 0.885446 4.50594 0.849538 4.52898C0.813629 4.55202 0.785381 4.58482 0.768265 4.62334C0.751149 4.66188 0.74591 4.70446 0.753192 4.74586C0.760475 4.78726 0.77996 4.82568 0.809256 4.8564L2.70911 6.8483C2.75027 6.89145 2.80004 6.92587 2.85534 6.94945C2.91065 6.97302 2.97032 6.98524 3.03065 6.98533H12.0296C12.0725 6.98533 12.1145 6.97306 12.1505 6.95002C12.1863 6.92698 12.2146 6.89419 12.2318 6.85566C12.2489 6.81713 12.2541 6.77454 12.2468 6.73314C12.2395 6.69175 12.22 6.65333 12.1908 6.6226L10.2924 4.63071ZM0.970393 3.19992H9.96984C10.0303 3.19994 10.0902 3.1878 10.1457 3.16422C10.2011 3.14064 10.2511 3.10615 10.2924 3.06288L12.1908 1.07098C12.22 1.04027 12.2395 1.00185 12.2468 0.960443C12.2541 0.919041 12.2489 0.876459 12.2318 0.83793C12.2146 0.799401 12.1863 0.766603 12.1505 0.743565C12.1145 0.720527 12.0725 0.708253 12.0296 0.708252H3.03065C2.97032 0.708352 2.91065 0.720567 2.85534 0.744139C2.80004 0.767712 2.75027 0.80214 2.70911 0.845294L0.809746 2.83719C0.780479 2.86787 0.761001 2.90626 0.753703 2.9476C0.746404 2.98896 0.751601 3.03151 0.768657 3.07002C0.785713 3.10854 0.813885 3.14133 0.84972 3.16441C0.885555 3.18748 0.927494 3.19982 0.970393 3.19992Z" fill="url(#paint0_linear_2542_31504)"/>
<defs>
<linearGradient id="paint0_linear_2542_31504" x1="1.72073" y1="11.0106" x2="10.9275" y2="0.402101" gradientUnits="userSpaceOnUse">
<stop offset="0.08" stop-color="#9945FF"/>
<stop offset="0.3" stop-color="#8752F3"/>
<stop offset="0.5" stop-color="#5497D5"/>
<stop offset="0.6" stop-color="#43B4CA"/>
<stop offset="0.72" stop-color="#28E0B9"/>
<stop offset="0.97" stop-color="#19FB9B"/>
</linearGradient>
</defs>
</svg>