<svg width="84" height="20" viewBox="0 0 84 20" fill="none" xmlns="http://www.w3.org/2000/svg">
<path fill-rule="evenodd" clip-rule="evenodd" d="M1.07564 0.0390381C1.0668 0.0534691 1.07423 0.175902 1.09214 0.3111C1.11005 0.446332 1.1735 1.03563 1.23308 1.62067C1.35389 2.80646 1.58629 4.84722 1.77818 6.40736C1.84909 6.98378 1.91367 7.69502 1.9251 8.02597L1.94558 8.61633L1.716 8.98331C1.58974 9.18517 1.34477 9.57367 1.17164 9.84669C0.739214 10.5286 0 11.7616 0 11.8009C0 11.8187 0.141713 11.9095 0.314921 12.0028C0.672422 12.1953 0.80956 12.3332 0.808997 12.4998C0.808786 12.5617 0.745619 12.748 0.668622 12.9137C0.591625 13.0795 0.528457 13.2419 0.528246 13.2746C0.527683 13.3615 0.728762 13.5146 1.17304 13.7653C2.55294 14.544 3.18802 14.9625 4.06599 15.6715C5.09282 16.5006 6.41177 17.9757 7.291 19.2782C7.73525 19.9364 7.81228 19.9241 7.58231 19.2317C7.17128 17.994 6.42194 16.5692 5.60587 15.4736C5.09757 14.7912 4.71135 14.3574 3.83993 13.4901C3.19179 12.8451 3.02111 12.6567 3.05444 12.6231C3.07925 12.5981 3.23293 12.5743 3.42243 12.566C3.75009 12.5518 4.12606 12.6033 4.55247 12.7209C4.67877 12.7558 4.7715 12.7652 4.79138 12.7451C4.84149 12.6946 4.47086 12.1953 4.10551 11.821C3.7257 11.432 3.29159 11.0703 2.78006 10.7167C2.57683 10.5762 2.4158 10.4428 2.42221 10.4201C2.4367 10.3689 3.16279 9.20956 3.35155 8.93615C3.42802 8.82539 3.51435 8.72561 3.54334 8.71437C3.61918 8.68505 3.85372 8.80028 4.11357 8.99448C4.27123 9.1123 4.33267 9.14297 4.3188 9.09691C4.30796 9.06075 4.07606 8.49773 3.80351 7.84578C3.53092 7.1938 3.30792 6.64042 3.30792 6.61606C3.30792 6.5917 3.45836 6.4898 3.64223 6.38963C3.8261 6.28947 3.97654 6.19129 3.97654 6.17146C3.97654 6.15168 3.88895 5.88731 3.7819 5.58405C3.67485 5.28079 3.59553 5.02433 3.6056 5.01415C3.61569 5.00401 3.7415 5.0301 3.88518 5.07216C4.18902 5.16112 4.22287 5.16427 4.22287 5.10364C4.22287 5.04858 3.77226 4.43648 3.5969 4.25335C3.52687 4.18024 3.48042 4.12038 3.49362 4.12038C3.51572 4.12038 4.9661 4.70599 5.60287 4.97203L5.8744 5.08545L6.41226 4.85562C7.07462 4.57257 7.59484 4.40163 8.14663 4.28572C9.87818 3.92197 11.6496 4.0883 13.2488 4.76475C13.4808 4.86289 13.7444 4.98085 13.8346 5.02691L13.9986 5.11066L14.926 4.72705C15.9724 4.29423 16.6166 4.04429 16.6357 4.06358C16.6714 4.09961 12.5816 6.55635 11.9688 6.86699C11.7505 6.97761 11.7027 6.95141 11.7449 6.7442C11.7826 6.55866 11.7764 6.30918 11.7336 6.2945C11.6868 6.27847 11.2387 6.66471 10.4712 7.38243L9.8835 7.93201L9.90419 13.1087C9.92755 18.9595 9.94058 19.6869 10.0221 19.6856C10.0358 19.6854 10.2119 19.4945 10.4134 19.2615L10.7799 18.8378L10.9348 19.058C11.02 19.1791 11.1024 19.3004 11.1178 19.3274C11.1333 19.3544 11.2075 19.3866 11.2827 19.3989C11.4122 19.4201 11.4232 19.4322 11.4935 19.6317C11.5343 19.7474 11.5857 19.8482 11.6077 19.8556C11.6297 19.863 11.714 19.8119 11.795 19.7421C11.876 19.6722 11.9553 19.6151 11.9711 19.6151C11.987 19.6151 12 19.6759 12 19.7501C12 19.8244 12.0238 19.9162 12.0529 19.954C12.1044 20.021 12.1083 20.02 12.196 19.9165C12.2456 19.858 12.4819 19.5149 12.7211 19.1541C12.9602 18.7934 13.2888 18.3307 13.4511 18.1259C14.7977 16.4274 16.838 14.7341 18.6282 13.8294C19.1284 13.5766 19.349 13.4281 19.3741 13.3273C19.3894 13.2659 19.3366 13.1244 19.1838 12.8172L18.9723 12.3921L19.19 12.2318C19.3097 12.1437 19.5066 12.0215 19.6276 11.9603C19.7519 11.8974 19.8475 11.8256 19.8475 11.7953C19.8475 11.6696 19.6117 11.2623 18.4229 9.33469L17.8666 8.4327L17.8884 7.96959C17.9004 7.71491 17.9585 7.10764 18.0175 6.6201C18.3413 3.94416 18.6681 0.983328 18.7096 0.349393L18.7325 0L18.3486 0.238732C17.9987 0.456331 17.5688 0.745519 16.8035 1.27815C16.6487 1.38591 15.9218 1.90461 15.1882 2.43082L13.8545 3.3876L13.7278 3.35136C13.6581 3.33143 13.3795 3.24945 13.1085 3.16918C11.9793 2.83461 11.6208 2.79685 9.77564 2.81798C8.17608 2.83631 7.97187 2.85585 7.09091 3.07458C6.81994 3.14188 6.461 3.24368 6.29324 3.30083L5.98825 3.40476L5.27272 2.88928C3.74861 1.79129 2.97945 1.24876 2.21701 0.733995C1.36413 0.158138 1.1009 -0.00212743 1.07564 0.0390381ZM25.7679 5.8671L25.2669 6.37279V7.26308V8.15337L26.329 9.62054C26.9132 10.4275 27.5753 11.343 27.8003 11.655C28.0253 11.967 28.5396 12.677 28.9432 13.2328C29.5907 14.1248 30.5461 15.4506 30.6817 15.6454C30.7294 15.714 30.7107 15.7148 29.0551 15.7148H27.3802L27.3705 15.2096L27.3607 14.7043L26.3138 14.6949L25.2669 14.6855V15.7413V16.7972L25.7688 17.302L26.2707 17.8068H29.0507H31.8308L32.3494 17.2834L32.868 16.7599V15.8913V15.0227L32.4574 14.4557C29.2582 10.0389 27.476 7.56999 27.4347 7.49766C27.4145 7.46245 27.754 7.45334 29.083 7.45334H30.7566V7.96747V8.48159H31.8123H32.868L32.8678 7.42675L32.8676 6.3719L32.3634 5.86664L31.8593 5.36138H29.0641H26.2689L25.7679 5.8671ZM34.2405 11.5841V17.8068H35.2962H36.3519V16.2644V14.722H38.5782H40.8044L41.3054 14.2163L41.8064 13.7106V10.0408V6.37098L41.3045 5.86618L40.8026 5.36138H37.5215H34.2405V11.5841ZM42.5382 5.38046C42.5203 5.39854 42.888 6.39818 43.6528 8.41068C44.3045 10.1256 44.8971 11.6918 45.0758 12.172L45.2551 12.6536V15.2302V17.8068H46.3109H47.3666V15.1873V12.5678L47.6855 11.7391C47.8609 11.2833 48.1445 10.5354 48.3158 10.0772C48.4871 9.61888 48.8092 8.76525 49.0315 8.18021C49.2539 7.59517 49.5566 6.79377 49.7041 6.39931C49.8517 6.00485 50.0032 5.60993 50.0407 5.52175L50.1089 5.36138H49.0065H47.904L47.7517 5.79573C47.668 6.03464 47.5411 6.41357 47.4697 6.63783C47.3984 6.8621 47.1462 7.61201 46.9092 8.30431C46.6722 8.99661 46.4385 9.68086 46.3898 9.82485C46.3276 10.0089 46.2927 10.0711 46.2724 10.0345C46.2564 10.0057 46.1148 9.60076 45.9576 9.13443C45.3721 7.397 45.2254 6.9612 45.0457 6.42509C44.9444 6.12282 44.8213 5.75985 44.7721 5.61844L44.6827 5.36138H43.6199C43.0354 5.36138 42.5487 5.36996 42.5382 5.38046ZM50.9689 5.63617C51.0728 6.93836 51.2656 9.28672 51.3959 10.8395C51.5718 12.9354 51.6756 14.1852 51.8345 16.1226C51.8937 16.8441 51.951 17.5185 51.9619 17.6211L51.9817 17.8078L53.0756 17.7984L54.1695 17.7891L54.5155 16.5835C54.9523 15.0616 55.2839 13.8917 55.4652 13.233C55.6075 12.7159 55.6364 12.6352 55.6364 12.7533C55.6364 12.7886 55.8194 13.4654 56.0431 14.2573C56.6028 16.2386 56.7675 16.8293 56.9066 17.3546L57.0264 17.8066L58.1272 17.8067C58.9762 17.8067 59.2315 17.7966 59.2435 17.7625C59.2581 17.7206 59.4024 16.0047 59.5261 14.4029C59.5569 14.0031 59.6045 13.4208 59.6318 13.1087C59.659 12.7967 59.7611 11.5362 59.8585 10.3076C59.956 9.07904 60.0834 7.50741 60.1417 6.81512C60.2 6.12282 60.2474 5.5125 60.247 5.45889L60.2463 5.36138H59.2089H58.1714L58.1556 5.44116C58.147 5.48505 58.1142 5.99163 58.0828 6.56692C58.0514 7.14221 58.019 7.70065 58.0108 7.80791C58.0026 7.91517 57.9794 8.32204 57.9592 8.71206C57.939 9.10209 57.9069 9.66852 57.8878 9.97079C57.8688 10.2731 57.8449 10.656 57.8348 10.8218C57.8247 10.9875 57.7938 11.4742 57.7661 11.9032C57.7384 12.3322 57.7051 12.9306 57.6921 13.2328C57.679 13.5351 57.655 13.8063 57.6387 13.8356C57.6139 13.8802 57.609 13.8787 57.6081 13.8263C57.6071 13.7689 57.2669 12.1305 56.8884 10.3608C56.8029 9.96104 56.6833 9.39461 56.6225 9.10209C56.5618 8.80957 56.5041 8.5423 56.4942 8.50819C56.4777 8.45124 56.4041 8.44614 55.5988 8.44614C55.1162 8.44614 54.7214 8.45227 54.7214 8.45979C54.7214 8.49422 54.149 11.215 53.8403 12.6478C53.7269 13.1743 53.62 13.6849 53.6029 13.7824L53.5717 13.9597L53.5491 13.7647C53.5259 13.5645 53.4942 13.0326 53.4022 11.3004C53.3732 10.7544 53.3411 10.172 53.331 10.0062C53.298 9.47063 53.2115 8.027 53.1556 7.08104C53.1257 6.57401 53.0943 6.07141 53.0858 5.96415C53.0773 5.85689 53.0697 5.67737 53.0689 5.56526L53.0674 5.36138H52.0072H50.9469L50.9689 5.63617ZM62.1902 5.8671L61.6891 6.37279L61.6895 11.5668L61.6899 16.7608L62.1978 17.2838L62.7058 17.8068H65.4981H68.2905L68.7904 17.2988L69.2903 16.7908V15.2481C69.2903 14.3997 69.2798 12.0489 69.2669 10.0242L69.2434 6.3429L68.7696 5.85214L68.2959 5.36138H65.4935H62.6912L62.1902 5.8671ZM70.8739 11.5841V17.8068H74.1471H77.4204L77.4111 16.7697L77.4018 15.7325L75.176 15.7234L72.9501 15.7143V10.5379V5.36138H71.912H70.8739V11.5841ZM78.5369 11.5841L78.5458 17.8068H79.5838H80.6217V15.2361V12.6655H82.3109H84V11.5841V10.5026H82.3109H80.6217V8.97799V7.45334H82.3109H84V6.40736V5.36138H81.2639H78.5279L78.5369 11.5841ZM36.3519 10.024V12.5946H38.0411H39.7302V10.024V7.45334H38.0411H36.3519V10.024ZM63.8006 11.5834V15.7148H65.4897H67.1789V11.5854V7.45597L65.4897 7.45401L63.8006 7.4521V11.5834ZM5.19899 9.5719C5.32659 9.94973 6.47659 12.1335 6.73633 12.4912C6.88691 12.6986 7.06103 12.7858 7.26032 12.7536C7.45594 12.722 8.10359 12.5011 8.31544 12.3937C8.66287 12.2175 8.62353 12.1494 7.75024 11.4148C6.36127 10.2465 5.28827 9.40348 5.19023 9.40348C5.15074 9.40348 5.15233 9.43372 5.19899 9.5719ZM14.5218 9.62508C14.0478 9.96582 11.9342 11.7665 11.7226 12.01L11.6035 12.147L11.705 12.2287C11.8875 12.3757 12.6709 12.6283 12.9478 12.6295C13.2117 12.6307 13.4798 12.225 14.2715 10.6267C14.6895 9.78272 14.7986 9.50985 14.7179 9.50985C14.6982 9.50985 14.61 9.56168 14.5218 9.62508Z" fill="#040404"/>
</svg>
