<svg width="324" height="324" viewBox="0 0 324 324" fill="none" xmlns="http://www.w3.org/2000/svg">
<rect width="324" height="324" fill="#636363"/>
<g clip-path="url(#clip0_8129_1136)">
<rect width="1726" height="9115" transform="translate(-1039 -4660)" fill="white"/>
<rect x="-1039" y="-373" width="1726" height="1270" fill="#E6F7F6"/>
<path d="M322.498 162C322.498 250.642 250.64 322.5 161.999 322.5C73.3578 322.499 1.4998 250.642 1.49978 162.001C1.49982 73.3594 73.3578 1.50157 161.999 1.50149C250.64 1.50148 322.498 73.3593 322.498 162Z" fill="#A7EEE7" stroke="black" stroke-width="3"/>
<mask id="path-3-inside-1_8129_1136" fill="white">
<path d="M162 323.998C124.739 323.998 88.6171 311.153 59.7214 287.628C30.8257 264.103 10.9229 231.337 3.36684 194.85C-4.1892 158.363 1.06355 120.387 18.2398 87.3212C35.4162 54.2554 63.466 28.1213 97.6623 13.3232C131.859 -1.4749 170.111 -4.03239 205.973 6.08174C241.835 16.1959 273.114 38.3632 294.539 68.8483C315.964 99.3333 326.226 136.272 323.594 173.44C320.963 210.608 305.599 245.733 280.092 272.895L162 161.999L162 323.998Z"/>
</mask>
<path d="M162 323.998C124.739 323.998 88.6171 311.153 59.7214 287.628C30.8257 264.103 10.9229 231.337 3.36684 194.85C-4.1892 158.363 1.06355 120.387 18.2398 87.3212C35.4162 54.2554 63.466 28.1213 97.6623 13.3232C131.859 -1.4749 170.111 -4.03239 205.973 6.08174C241.835 16.1959 273.114 38.3632 294.539 68.8483C315.964 99.3333 326.226 136.272 323.594 173.44C320.963 210.608 305.599 245.733 280.092 272.895L162 161.999L162 323.998Z" fill="#FAFAFA" stroke="black" stroke-width="6" mask="url(#path-3-inside-1_8129_1136)"/>
<mask id="path-4-inside-2_8129_1136" fill="white">
<path d="M162 323.999C120.356 323.999 80.312 307.962 50.1799 279.217C20.0478 250.473 2.14247 211.228 0.180801 169.631C-1.78087 128.033 12.3518 87.2781 39.645 55.8254C66.9383 24.3727 105.296 4.63848 146.754 0.719461C188.213 -3.19956 229.589 8.99761 262.292 34.779C294.996 60.5603 316.515 97.9455 322.383 139.174C328.25 180.402 318.016 222.306 293.804 256.188C269.591 290.07 233.261 313.326 192.355 321.129L162 162L162 323.999Z"/>
</mask>
<path d="M162 323.999C120.356 323.999 80.312 307.962 50.1799 279.217C20.0478 250.473 2.14247 211.228 0.180801 169.631C-1.78087 128.033 12.3518 87.2781 39.645 55.8254C66.9383 24.3727 105.296 4.63848 146.754 0.719461C188.213 -3.19956 229.589 8.99761 262.292 34.779C294.996 60.5603 316.515 97.9455 322.383 139.174C328.25 180.402 318.016 222.306 293.804 256.188C269.591 290.07 233.261 313.326 192.355 321.129L162 162L162 323.999Z" fill="#D9D9D9" stroke="black" stroke-width="6" mask="url(#path-4-inside-2_8129_1136)"/>
<mask id="path-5-inside-3_8129_1136" fill="white">
<path d="M162 323.999C121.235 323.999 81.9692 308.63 52.0349 280.959C22.1006 253.288 3.69869 215.349 0.500351 174.71C-2.69802 134.071 9.54231 93.7201 34.7794 61.707C60.0165 29.6938 96.395 8.37197 136.658 1.99498C176.92 -4.38201 218.107 4.65468 252.002 27.3023C285.896 49.9499 310.006 84.5434 319.523 124.182C329.039 163.82 323.262 205.589 303.343 241.156C283.425 276.723 250.83 303.473 212.06 316.07L162 162L162 323.999Z"/>
</mask>
<path d="M162 323.999C121.235 323.999 81.9692 308.63 52.0349 280.959C22.1006 253.288 3.69869 215.349 0.500351 174.71C-2.69802 134.071 9.54231 93.7201 34.7794 61.707C60.0165 29.6938 96.395 8.37197 136.658 1.99498C176.92 -4.38201 218.107 4.65468 252.002 27.3023C285.896 49.9499 310.006 84.5434 319.523 124.182C329.039 163.82 323.262 205.589 303.343 241.156C283.425 276.723 250.83 303.473 212.06 316.07L162 162L162 323.999Z" fill="#FCE7AA" stroke="black" stroke-width="6" mask="url(#path-5-inside-3_8129_1136)"/>
<mask id="path-6-inside-4_8129_1136" fill="white">
<path d="M162 323.999C123.427 323.999 86.1207 310.236 56.79 285.185C27.4593 260.134 8.0295 225.439 1.99544 187.342C-4.03862 149.244 3.71903 110.244 23.8731 77.3553C44.0271 44.4669 75.2549 19.8489 111.939 7.92931C148.624 -3.99025 188.358 -2.42911 223.994 12.3319C259.63 27.093 288.83 54.0852 306.342 88.4535C323.853 122.822 328.527 162.311 319.523 199.818C310.518 237.324 288.426 270.387 257.22 293.06L162 162L162 323.999Z"/>
</mask>
<path d="M162 323.999C123.427 323.999 86.1207 310.236 56.79 285.185C27.4593 260.134 8.0295 225.439 1.99544 187.342C-4.03862 149.244 3.71903 110.244 23.8731 77.3553C44.0271 44.4669 75.2549 19.8489 111.939 7.92931C148.624 -3.99025 188.358 -2.42911 223.994 12.3319C259.63 27.093 288.83 54.0852 306.342 88.4535C323.853 122.822 328.527 162.311 319.523 199.818C310.518 237.324 288.426 270.387 257.22 293.06L162 162L162 323.999Z" fill="#AAE1FC" stroke="black" stroke-width="6" mask="url(#path-6-inside-4_8129_1136)"/>
<mask id="path-7-inside-5_8129_1136" fill="white">
<path d="M162 323.999C125.612 323.999 90.2835 311.748 61.7073 289.22C33.1312 266.693 12.9716 235.2 4.47701 199.818C-4.01762 164.435 -0.352528 127.223 14.8817 94.1771C30.1159 61.1316 56.0319 34.1772 88.4539 17.6574C120.876 1.13752 157.915 -3.98569 193.604 3.11326C229.293 10.2122 261.553 29.1199 285.185 56.7896C308.817 84.4593 322.445 119.28 323.874 155.64C325.302 192 314.448 227.782 293.06 257.22L162 162L162 323.999Z"/>
</mask>
<path d="M162 323.999C125.612 323.999 90.2835 311.748 61.7073 289.22C33.1312 266.693 12.9716 235.2 4.47701 199.818C-4.01762 164.435 -0.352528 127.223 14.8817 94.1771C30.1159 61.1316 56.0319 34.1772 88.4539 17.6574C120.876 1.13752 157.915 -3.98569 193.604 3.11326C229.293 10.2122 261.553 29.1199 285.185 56.7896C308.817 84.4593 322.445 119.28 323.874 155.64C325.302 192 314.448 227.782 293.06 257.22L162 162L162 323.999Z" fill="#FFD2D2" stroke="black" stroke-width="6" mask="url(#path-7-inside-5_8129_1136)"/>
<mask id="path-8-inside-6_8129_1136" fill="white">
<path d="M162 323.999C129.96 323.999 98.6387 314.498 71.9981 296.697C45.3575 278.896 24.5937 253.595 12.3324 223.994C0.0710924 194.393 -3.13704 161.82 3.11372 130.395C9.36448 98.9704 24.7934 70.1049 47.4493 47.449C70.1053 24.793 98.9707 9.36405 130.395 3.11327C161.82 -3.1375 194.393 0.0706187 223.994 12.3319C253.596 24.5933 278.896 45.3571 296.697 71.9977C314.498 98.6383 323.999 129.959 323.999 162L162 162L162 323.999Z"/>
</mask>
<path d="M162 323.999C129.96 323.999 98.6387 314.498 71.9981 296.697C45.3575 278.896 24.5937 253.595 12.3324 223.994C0.0710924 194.393 -3.13704 161.82 3.11372 130.395C9.36448 98.9704 24.7934 70.1049 47.4493 47.449C70.1053 24.793 98.9707 9.36405 130.395 3.11327C161.82 -3.1375 194.393 0.0706187 223.994 12.3319C253.596 24.5933 278.896 45.3571 296.697 71.9977C314.498 98.6383 323.999 129.959 323.999 162L162 162L162 323.999Z" fill="#8AB1FF" stroke="black" stroke-width="6" mask="url(#path-8-inside-6_8129_1136)"/>
<mask id="path-9-inside-7_8129_1136" fill="white">
<path d="M162 323.999C138.583 323.999 115.444 318.922 94.1775 309.118C72.9112 299.314 54.0232 285.016 38.8149 267.21C23.6067 249.403 12.4396 228.511 6.08318 205.973C-0.273208 183.435 -1.66783 159.786 1.99543 136.657C5.6587 113.528 14.2928 91.4685 27.3027 71.9977C40.3126 52.527 57.3892 36.1082 77.3557 23.8727C97.3222 11.6372 119.704 3.87582 142.959 1.12341C166.214 -1.629 189.789 0.692956 212.06 7.9293L162 162L162 323.999Z"/>
</mask>
<path d="M162 323.999C138.583 323.999 115.444 318.922 94.1775 309.118C72.9112 299.314 54.0232 285.016 38.8149 267.21C23.6067 249.403 12.4396 228.511 6.08318 205.973C-0.273208 183.435 -1.66783 159.786 1.99543 136.657C5.6587 113.528 14.2928 91.4685 27.3027 71.9977C40.3126 52.527 57.3892 36.1082 77.3557 23.8727C97.3222 11.6372 119.704 3.87582 142.959 1.12341C166.214 -1.629 189.789 0.692956 212.06 7.9293L162 162L162 323.999Z" fill="#FFC649" stroke="black" stroke-width="6" mask="url(#path-9-inside-7_8129_1136)"/>
</g>
<defs>
<clipPath id="clip0_8129_1136">
<rect width="1726" height="9115" fill="white" transform="translate(-1039 -4660)"/>
</clipPath>
</defs>
</svg>
